<svg xmlns="http://www.w3.org/2000/svg" xmlns:xlink="http://www.w3.org/1999/xlink" width="500" zoomAndPan="magnify" viewBox="0 0 375 374.999991" height="500" preserveAspectRatio="xMidYMid meet" version="1.0"><defs><g/><clipPath id="id1"><path d="M 205 146 L 239 146 L 239 147.265625 L 205 147.265625 Z M 205 146 " clip-rule="nonzero"/></clipPath><clipPath id="id2"><path d="M 182 88.015625 L 200 88.015625 L 200 119 L 182 119 Z M 182 88.015625 " clip-rule="nonzero"/></clipPath><clipPath id="id3"><path d="M 155 116 L 211 116 L 211 147.265625 L 155 147.265625 Z M 155 116 " clip-rule="nonzero"/></clipPath><clipPath id="id4"><path d="M 170 88.015625 L 185 88.015625 L 185 120 L 170 120 Z M 170 88.015625 " clip-rule="nonzero"/></clipPath><clipPath id="id5"><path d="M 125.742188 135 L 158 135 L 158 147.265625 L 125.742188 147.265625 Z M 125.742188 135 " clip-rule="nonzero"/></clipPath><clipPath id="id6"><path d="M 209.492188 136.769531 L 241.957031 136.769531 L 241.957031 147.265625 L 209.492188 147.265625 Z M 209.492188 136.769531 " clip-rule="nonzero"/></clipPath><clipPath id="id7"><path d="M 329 55 L 333.671875 55 L 333.671875 124 L 329 124 Z M 329 55 " clip-rule="nonzero"/></clipPath><clipPath id="id8"><path d="M 237 37.5 L 300 37.5 L 300 43 L 237 43 Z M 237 37.5 " clip-rule="nonzero"/></clipPath><clipPath id="id9"><path d="M 60 37.5 L 131 37.5 L 131 43 L 60 43 Z M 60 37.5 " clip-rule="nonzero"/></clipPath><clipPath id="id10"><path d="M 33.738281 230 L 39 230 L 39 296 L 33.738281 296 Z M 33.738281 230 " clip-rule="nonzero"/></clipPath><clipPath id="id11"><path d="M 328 230 L 333.671875 230 L 333.671875 296 L 328 296 Z M 328 230 " clip-rule="nonzero"/></clipPath><clipPath id="id12"><path d="M 237 311 L 301 311 L 301 316.5 L 237 316.5 Z M 237 311 " clip-rule="nonzero"/></clipPath></defs><path fill="rgb(100%, 84.309387%, 0%)" d="M 140.621094 108.582031 C 140.6875 109.25 140.789062 109.863281 140.933594 110.445312 C 141.535156 112.867188 142.945312 114.726562 144.804688 115.539062 C 145.359375 115.785156 145.988281 115.953125 146.597656 116.117188 C 147.785156 116.4375 149.011719 116.769531 149.871094 117.667969 C 151.003906 118.863281 151.066406 120.5625 151.125 122.207031 C 151.136719 122.582031 151.152344 122.96875 151.175781 123.335938 C 151.375 126.011719 152.5 128.554688 154.347656 130.492188 C 154.875 131.050781 155.457031 131.550781 156.078125 131.980469 C 156.683594 132.402344 157.320312 132.75 157.972656 133.011719 C 158.316406 132.238281 158.691406 131.476562 159.097656 130.746094 C 160.25 128.667969 161.671875 126.738281 163.332031 125.007812 C 163.5625 124.773438 163.777344 124.554688 163.988281 124.351562 C 163.132812 124.054688 162.386719 123.703125 161.722656 123.292969 C 160.707031 122.667969 159.886719 121.886719 159.292969 120.972656 C 158.507812 119.765625 158.09375 118.304688 157.695312 116.890625 C 157.082031 114.707031 156.5 112.648438 154.644531 111.699219 C 153.230469 110.976562 151.527344 111.15625 149.726562 111.34375 C 148.640625 111.457031 147.511719 111.578125 146.433594 111.484375 C 144.328125 111.304688 142.375 110.328125 140.621094 108.582031 Z M 158.164062 133.816406 C 158.125 133.816406 158.082031 133.808594 158.042969 133.792969 C 157.222656 133.5 156.425781 133.085938 155.675781 132.5625 C 155.015625 132.101562 154.394531 131.570312 153.832031 130.976562 C 151.875 128.921875 150.683594 126.226562 150.472656 123.386719 C 150.445312 123.007812 150.429688 122.613281 150.417969 122.230469 C 150.363281 120.71875 150.308594 119.15625 149.355469 118.15625 C 148.636719 117.398438 147.558594 117.109375 146.414062 116.800781 C 145.78125 116.628906 145.125 116.453125 144.519531 116.1875 C 142.460938 115.28125 140.902344 113.253906 140.25 110.613281 C 140.023438 109.710938 139.894531 108.734375 139.84375 107.628906 C 139.839844 107.476562 139.929688 107.339844 140.066406 107.285156 C 140.207031 107.230469 140.367188 107.269531 140.464844 107.378906 C 142.265625 109.449219 144.296875 110.59375 146.496094 110.78125 C 147.507812 110.867188 148.597656 110.753906 149.65625 110.640625 C 151.476562 110.449219 153.363281 110.25 154.964844 111.070312 C 157.097656 112.160156 157.75 114.46875 158.378906 116.699219 C 158.761719 118.0625 159.160156 119.472656 159.886719 120.589844 C 160.429688 121.425781 161.152344 122.113281 162.09375 122.695312 C 162.851562 123.160156 163.722656 123.542969 164.765625 123.863281 C 164.886719 123.898438 164.976562 123.996094 165.003906 124.121094 C 165.03125 124.242188 164.992188 124.371094 164.902344 124.457031 C 164.566406 124.769531 164.21875 125.109375 163.839844 125.5 C 162.226562 127.179688 160.839844 129.0625 159.71875 131.085938 C 159.269531 131.894531 158.855469 132.738281 158.488281 133.601562 C 158.433594 133.734375 158.300781 133.816406 158.164062 133.816406 " fill-opacity="1" fill-rule="nonzero"/><path fill="rgb(100%, 84.309387%, 0%)" d="M 162.171875 122.742188 C 162.859375 123.15625 163.648438 123.503906 164.570312 123.800781 C 166.800781 121.753906 169.328125 120.105469 172.082031 118.890625 C 171.980469 118.695312 171.882812 118.492188 171.792969 118.285156 C 170.609375 117.164062 169.851562 115.964844 169.476562 114.617188 C 169.085938 113.230469 169.132812 111.714844 169.179688 110.246094 C 169.246094 107.980469 169.3125 105.839844 167.824219 104.375 C 166.691406 103.265625 165.011719 102.925781 163.238281 102.566406 C 162.164062 102.347656 161.058594 102.125 160.054688 101.714844 C 158.101562 100.914062 156.535156 99.402344 155.382812 97.207031 C 155.246094 97.867188 155.160156 98.484375 155.125 99.078125 C 154.96875 101.566406 155.757812 103.761719 157.285156 105.097656 C 157.742188 105.496094 158.289062 105.84375 158.820312 106.183594 C 159.859375 106.84375 160.929688 107.527344 161.476562 108.644531 C 162.203125 110.121094 161.75 111.757812 161.3125 113.347656 C 161.210938 113.707031 161.109375 114.082031 161.023438 114.441406 C 160.371094 117.230469 160.789062 120.25 162.171875 122.742188 Z M 164.660156 124.550781 C 164.625 124.550781 164.589844 124.546875 164.554688 124.535156 C 163.457031 124.199219 162.53125 123.792969 161.722656 123.292969 C 161.671875 123.261719 161.628906 123.21875 161.601562 123.167969 C 160.070312 120.46875 159.625 117.3125 160.335938 114.277344 C 160.425781 113.90625 160.53125 113.527344 160.628906 113.160156 C 161.03125 111.699219 161.449219 110.191406 160.839844 108.953125 C 160.382812 108.015625 159.4375 107.414062 158.441406 106.78125 C 157.886719 106.425781 157.316406 106.0625 156.820312 105.628906 C 155.125 104.148438 154.25 101.746094 154.417969 99.035156 C 154.472656 98.113281 154.640625 97.144531 154.925781 96.066406 C 154.964844 95.921875 155.09375 95.816406 155.242188 95.804688 C 155.390625 95.792969 155.53125 95.878906 155.59375 96.015625 C 156.695312 98.527344 158.289062 100.226562 160.324219 101.0625 C 161.261719 101.445312 162.339844 101.664062 163.378906 101.875 C 165.175781 102.238281 167.035156 102.613281 168.320312 103.871094 C 170.03125 105.550781 169.957031 107.949219 169.886719 110.269531 C 169.84375 111.683594 169.796875 113.144531 170.15625 114.425781 C 170.503906 115.664062 171.214844 116.777344 172.328125 117.820312 C 172.367188 117.855469 172.394531 117.894531 172.414062 117.941406 C 172.554688 118.269531 172.714844 118.589844 172.886719 118.886719 C 172.9375 118.976562 172.945312 119.082031 172.914062 119.175781 C 172.882812 119.269531 172.808594 119.347656 172.714844 119.386719 C 169.835938 120.605469 167.207031 122.3125 164.902344 124.457031 C 164.835938 124.519531 164.75 124.550781 164.660156 124.550781 " fill-opacity="1" fill-rule="nonzero"/><path fill="rgb(100%, 84.309387%, 0%)" d="M 213.015625 126.601562 L 213.019531 126.601562 Z M 206.953125 130.277344 C 207.582031 131.363281 208.140625 132.5 208.613281 133.660156 C 209.238281 135.1875 209.726562 136.78125 210.0625 138.398438 C 210.25 139.292969 210.390625 140.207031 210.488281 141.125 C 211.722656 139.5625 213.3125 137.847656 215.253906 136.867188 C 216.160156 136.410156 217.101562 136.140625 218.054688 136.066406 C 219.488281 135.957031 220.972656 136.292969 222.402344 136.621094 C 224.621094 137.125 226.710938 137.605469 228.433594 136.425781 C 229.746094 135.53125 230.402344 133.953125 231.097656 132.285156 C 231.519531 131.277344 231.953125 130.234375 232.550781 129.332031 C 233.714844 127.570312 235.507812 126.328125 237.882812 125.621094 C 237.265625 125.363281 236.675781 125.160156 236.097656 125.007812 C 233.679688 124.375 231.371094 124.722656 229.761719 125.960938 C 229.285156 126.332031 228.835938 126.800781 228.398438 127.257812 C 227.546875 128.144531 226.667969 129.066406 225.46875 129.386719 C 223.875 129.808594 222.351562 129.050781 220.875 128.3125 C 220.542969 128.144531 220.195312 127.972656 219.859375 127.820312 C 217.730469 126.859375 215.382812 126.558594 213.074219 126.949219 C 213.074219 126.949219 213.074219 126.953125 213.074219 126.953125 C 211.96875 127.136719 210.90625 127.484375 209.910156 127.980469 C 208.734375 128.566406 207.71875 129.359375 206.953125 130.277344 Z M 210.210938 142.410156 C 210.179688 142.410156 210.144531 142.40625 210.113281 142.394531 C 209.972656 142.355469 209.871094 142.230469 209.859375 142.082031 C 209.777344 140.890625 209.613281 139.699219 209.367188 138.542969 C 209.042969 136.96875 208.570312 135.414062 207.960938 133.925781 C 207.46875 132.722656 206.882812 131.542969 206.222656 130.425781 C 206.148438 130.300781 206.15625 130.144531 206.246094 130.03125 C 207.089844 128.949219 208.246094 128.023438 209.59375 127.347656 C 210.652344 126.820312 211.78125 126.453125 212.957031 126.253906 C 215.40625 125.835938 217.890625 126.15625 220.152344 127.179688 C 220.5 127.335938 220.851562 127.511719 221.191406 127.683594 C 222.550781 128.359375 223.953125 129.058594 225.285156 128.703125 C 226.292969 128.433594 227.066406 127.625 227.886719 126.769531 C 228.339844 126.296875 228.808594 125.804688 229.332031 125.402344 C 231.113281 124.03125 233.644531 123.636719 236.277344 124.328125 C 237.175781 124.5625 238.097656 124.910156 239.09375 125.398438 C 239.226562 125.464844 239.304688 125.609375 239.289062 125.757812 C 239.269531 125.90625 239.160156 126.027344 239.011719 126.058594 C 236.332031 126.652344 234.355469 127.886719 233.140625 129.722656 C 232.582031 130.566406 232.160156 131.578125 231.753906 132.554688 C 231.046875 134.25 230.320312 136 228.835938 137.007812 C 226.855469 138.359375 224.511719 137.824219 222.246094 137.308594 C 220.867188 136.992188 219.4375 136.667969 218.109375 136.769531 C 217.25 136.835938 216.398438 137.082031 215.574219 137.5 C 213.457031 138.566406 211.746094 140.609375 210.496094 142.269531 C 210.425781 142.359375 210.320312 142.410156 210.210938 142.410156 " fill-opacity="1" fill-rule="nonzero"/><g clip-path="url(#id1)"><path fill="rgb(100%, 84.309387%, 0%)" d="M 211.839844 158.027344 C 213.023438 158.230469 214.074219 158.652344 214.964844 159.28125 C 216.144531 160.109375 217.070312 161.3125 217.964844 162.476562 C 219.347656 164.273438 220.65625 165.972656 222.738281 166.164062 C 224.320312 166.308594 225.832031 165.511719 227.433594 164.667969 C 228.398438 164.15625 229.398438 163.628906 230.433594 163.316406 C 232.457031 162.699219 234.628906 162.882812 236.914062 163.851562 C 236.601562 163.257812 236.277344 162.726562 235.925781 162.238281 C 234.46875 160.214844 232.464844 159.015625 230.4375 158.945312 C 229.832031 158.925781 229.183594 159 228.558594 159.074219 C 227.335938 159.21875 226.070312 159.367188 224.941406 158.851562 C 223.445312 158.164062 222.757812 156.605469 222.089844 155.101562 C 221.9375 154.757812 221.78125 154.40625 221.617188 154.074219 C 220.371094 151.527344 218.246094 149.523438 215.636719 148.441406 C 215.050781 148.199219 214.449219 148.007812 213.851562 147.867188 C 212.675781 147.59375 211.488281 147.539062 210.394531 147.707031 C 210.269531 148.632812 210.09375 149.554688 209.878906 150.449219 C 209.355469 152.621094 208.566406 154.726562 207.53125 156.699219 C 207.269531 157.210938 206.984375 157.714844 206.683594 158.210938 C 208.730469 157.832031 210.382812 157.773438 211.839844 158.027344 Z M 223.109375 166.886719 C 222.964844 166.886719 222.820312 166.882812 222.671875 166.867188 C 220.28125 166.648438 218.820312 164.746094 217.402344 162.90625 C 216.539062 161.78125 215.648438 160.625 214.558594 159.859375 C 213.753906 159.289062 212.796875 158.910156 211.722656 158.722656 C 211.71875 158.722656 211.71875 158.722656 211.71875 158.722656 C 210.167969 158.453125 208.359375 158.5625 206.023438 159.0625 C 205.882812 159.09375 205.738281 159.035156 205.65625 158.917969 C 205.574219 158.800781 205.574219 158.644531 205.652344 158.523438 C 206.101562 157.832031 206.523438 157.105469 206.90625 156.375 C 207.914062 154.449219 208.683594 152.402344 209.191406 150.285156 C 209.421875 149.332031 209.601562 148.347656 209.726562 147.359375 C 209.742188 147.207031 209.859375 147.085938 210.011719 147.054688 C 211.269531 146.820312 212.652344 146.863281 214.011719 147.179688 C 214.648438 147.328125 215.289062 147.53125 215.90625 147.789062 C 218.675781 148.9375 220.929688 151.058594 222.253906 153.765625 C 222.421875 154.105469 222.582031 154.46875 222.734375 154.816406 C 223.347656 156.203125 223.984375 157.632812 225.238281 158.207031 C 226.1875 158.644531 227.296875 158.511719 228.476562 158.375 C 229.128906 158.296875 229.804688 158.214844 230.460938 158.238281 C 232.710938 158.316406 234.910156 159.625 236.5 161.828125 C 237.042969 162.578125 237.53125 163.4375 237.988281 164.449219 C 238.050781 164.585938 238.019531 164.746094 237.914062 164.851562 C 237.804688 164.953125 237.640625 164.976562 237.507812 164.910156 C 235.058594 163.65625 232.746094 163.351562 230.640625 163.992188 C 229.671875 164.285156 228.699219 164.796875 227.761719 165.292969 C 226.273438 166.078125 224.734375 166.886719 223.109375 166.886719 " fill-opacity="1" fill-rule="nonzero"/></g><path fill="rgb(100%, 84.309387%, 0%)" d="M 191.992188 118.023438 C 192.777344 118.285156 193.5625 118.59375 194.339844 118.9375 C 196.777344 120.023438 199.042969 121.460938 201.074219 123.203125 C 201.203125 123.316406 201.332031 123.429688 201.460938 123.542969 C 201.527344 122.800781 201.640625 122.113281 201.804688 121.484375 C 202.191406 119.972656 202.84375 118.769531 203.792969 117.804688 C 204.804688 116.777344 206.144531 116.058594 207.4375 115.363281 C 209.441406 114.292969 211.332031 113.28125 211.859375 111.265625 C 212.257812 109.730469 211.714844 108.109375 211.140625 106.394531 C 210.792969 105.359375 210.433594 104.289062 210.289062 103.214844 C 210.011719 101.125 210.542969 99.011719 211.867188 96.921875 C 211.226562 97.132812 210.648438 97.367188 210.117188 97.628906 C 207.878906 98.742188 206.367188 100.515625 205.976562 102.503906 C 205.855469 103.097656 205.828125 103.746094 205.796875 104.378906 C 205.738281 105.605469 205.683594 106.875 204.988281 107.902344 C 204.066406 109.265625 202.421875 109.691406 200.828125 110.105469 C 200.460938 110.199219 200.085938 110.296875 199.730469 110.402344 C 197.402344 111.101562 195.308594 112.542969 193.828125 114.46875 C 193.21875 115.261719 192.71875 116.128906 192.335938 117.050781 C 192.203125 117.371094 192.089844 117.699219 191.992188 118.023438 Z M 201.761719 124.652344 C 201.671875 124.652344 201.585938 124.617188 201.519531 124.554688 C 201.230469 124.285156 200.925781 124.007812 200.613281 123.738281 C 198.636719 122.039062 196.425781 120.640625 194.050781 119.582031 C 193.195312 119.203125 192.320312 118.867188 191.457031 118.589844 C 191.277344 118.53125 191.175781 118.347656 191.222656 118.164062 C 191.339844 117.703125 191.496094 117.238281 191.683594 116.78125 C 192.089844 115.800781 192.621094 114.878906 193.269531 114.039062 C 194.835938 111.996094 197.058594 110.464844 199.527344 109.726562 C 199.894531 109.617188 200.277344 109.515625 200.652344 109.421875 C 202.117188 109.042969 203.632812 108.648438 204.402344 107.507812 C 204.984375 106.644531 205.035156 105.527344 205.089844 104.34375 C 205.121094 103.6875 205.152344 103.011719 205.28125 102.363281 C 205.71875 100.164062 207.367188 98.207031 209.800781 97 C 210.625 96.589844 211.550781 96.25 212.632812 95.957031 C 212.777344 95.917969 212.933594 95.972656 213.019531 96.097656 C 213.101562 96.222656 213.097656 96.386719 213.011719 96.507812 C 211.378906 98.714844 210.699219 100.941406 210.992188 103.121094 C 211.125 104.128906 211.476562 105.167969 211.8125 106.171875 C 212.394531 107.90625 212.996094 109.703125 212.542969 111.441406 C 211.9375 113.757812 209.820312 114.890625 207.773438 115.988281 C 206.523438 116.65625 205.234375 117.347656 204.296875 118.296875 C 203.4375 119.175781 202.84375 120.273438 202.488281 121.660156 C 202.285156 122.449219 202.160156 123.339844 202.113281 124.316406 C 202.109375 124.453125 202.023438 124.574219 201.894531 124.625 C 201.851562 124.640625 201.804688 124.652344 201.761719 124.652344 " fill-opacity="1" fill-rule="nonzero"/><path fill="rgb(100%, 84.309387%, 0%)" d="M 202.121094 124.152344 C 203.839844 125.789062 205.332031 127.632812 206.570312 129.636719 C 207.378906 128.726562 208.414062 127.9375 209.59375 127.347656 C 210.632812 126.832031 211.742188 126.464844 212.894531 126.265625 C 212.945312 126.238281 213 126.210938 213.054688 126.183594 C 214.34375 125.542969 215.84375 125.300781 217.292969 125.066406 C 219.539062 124.707031 221.65625 124.367188 222.8125 122.628906 C 223.691406 121.308594 223.707031 119.601562 223.726562 117.792969 C 223.734375 116.699219 223.746094 115.570312 223.960938 114.507812 C 224.378906 112.4375 225.570312 110.613281 227.507812 109.070312 C 226.839844 109.0625 226.214844 109.097656 225.621094 109.171875 C 223.144531 109.492188 221.136719 110.679688 220.113281 112.429688 C 219.808594 112.953125 219.566406 113.558594 219.335938 114.140625 C 218.878906 115.285156 218.410156 116.464844 217.414062 117.210938 C 216.097656 118.203125 214.398438 118.070312 212.757812 117.9375 C 212.382812 117.910156 211.996094 117.878906 211.628906 117.863281 C 208.15625 117.722656 204.734375 119.171875 202.46875 121.738281 C 202.46875 121.742188 202.46875 121.742188 202.46875 121.742188 C 202.289062 122.464844 202.171875 123.277344 202.121094 124.152344 Z M 206.527344 130.601562 C 206.519531 130.601562 206.511719 130.601562 206.503906 130.597656 C 206.386719 130.59375 206.28125 130.527344 206.222656 130.425781 C 204.941406 128.261719 203.359375 126.289062 201.519531 124.554688 C 201.445312 124.484375 201.402344 124.382812 201.410156 124.28125 C 201.457031 123.257812 201.589844 122.320312 201.804688 121.484375 C 201.820312 121.421875 201.851562 121.367188 201.898438 121.324219 C 201.902344 121.316406 201.910156 121.304688 201.917969 121.296875 L 201.941406 121.269531 C 204.34375 118.546875 207.980469 117.011719 211.65625 117.160156 C 212.039062 117.175781 212.433594 117.207031 212.8125 117.234375 C 214.324219 117.355469 215.886719 117.476562 216.988281 116.648438 C 217.824219 116.019531 218.238281 114.980469 218.675781 113.882812 C 218.917969 113.273438 219.167969 112.644531 219.5 112.074219 C 220.636719 110.136719 222.832031 108.820312 225.53125 108.472656 C 226.453125 108.355469 227.441406 108.332031 228.546875 108.410156 C 228.699219 108.417969 228.824219 108.523438 228.867188 108.667969 C 228.90625 108.8125 228.847656 108.96875 228.726562 109.050781 C 226.460938 110.605469 225.089844 112.488281 224.652344 114.648438 C 224.453125 115.644531 224.441406 116.738281 224.433594 117.800781 C 224.414062 119.632812 224.394531 121.523438 223.402344 123.019531 C 222.074219 125.015625 219.703125 125.394531 217.40625 125.765625 C 216.007812 125.988281 214.5625 126.222656 213.367188 126.816406 C 213.3125 126.84375 213.253906 126.875 213.195312 126.90625 C 213.15625 126.929688 213.117188 126.945312 213.074219 126.953125 C 211.96875 127.136719 210.90625 127.484375 209.910156 127.980469 C 208.65625 128.605469 207.582031 129.464844 206.804688 130.464844 C 206.738281 130.550781 206.632812 130.601562 206.527344 130.601562 " fill-opacity="1" fill-rule="nonzero"/><g clip-path="url(#id2)"><path fill="rgb(100%, 84.309387%, 0%)" d="M 184.726562 116.617188 C 186.976562 116.742188 189.191406 117.144531 191.320312 117.804688 C 191.421875 117.460938 191.542969 117.121094 191.683594 116.78125 C 192.078125 115.832031 192.589844 114.933594 193.214844 114.109375 C 193.308594 113.515625 193.472656 112.941406 193.703125 112.402344 C 194.273438 111.082031 195.261719 109.925781 196.214844 108.8125 C 197.691406 107.085938 199.085938 105.460938 198.84375 103.386719 C 198.65625 101.8125 197.566406 100.5 196.40625 99.109375 C 195.707031 98.269531 194.984375 97.402344 194.460938 96.453125 C 193.441406 94.605469 193.167969 92.445312 193.644531 90.015625 C 193.128906 90.441406 192.675781 90.871094 192.269531 91.3125 C 190.585938 93.15625 189.824219 95.359375 190.175781 97.355469 C 190.28125 97.949219 190.492188 98.5625 190.691406 99.160156 C 191.085938 100.324219 191.492188 101.53125 191.21875 102.742188 C 190.855469 104.347656 189.472656 105.34375 188.136719 106.308594 C 187.832031 106.527344 187.519531 106.753906 187.230469 106.976562 C 184.972656 108.738281 183.402344 111.347656 182.917969 114.15625 C 183.367188 114.953125 183.960938 115.761719 184.726562 116.617188 Z M 191.5625 118.605469 C 191.527344 118.605469 191.492188 118.601562 191.453125 118.589844 C 189.230469 117.863281 186.90625 117.433594 184.542969 117.3125 C 184.449219 117.308594 184.359375 117.265625 184.296875 117.199219 C 183.414062 116.222656 182.742188 115.304688 182.238281 114.390625 C 182.199219 114.320312 182.183594 114.242188 182.199219 114.164062 C 182.6875 111.136719 184.363281 108.316406 186.796875 106.421875 C 187.09375 106.1875 187.414062 105.957031 187.722656 105.734375 C 188.953125 104.847656 190.226562 103.929688 190.53125 102.585938 C 190.761719 101.566406 190.402344 100.507812 190.023438 99.386719 C 189.8125 98.765625 189.597656 98.125 189.480469 97.476562 C 189.089844 95.265625 189.917969 92.84375 191.75 90.835938 C 192.375 90.148438 193.113281 89.496094 194.007812 88.839844 C 194.128906 88.753906 194.292969 88.75 194.414062 88.835938 C 194.539062 88.917969 194.597656 89.074219 194.558594 89.21875 C 193.839844 91.867188 194.015625 94.1875 195.078125 96.113281 C 195.570312 97 196.273438 97.84375 196.949219 98.660156 C 198.125 100.066406 199.335938 101.523438 199.546875 103.304688 C 199.824219 105.683594 198.265625 107.507812 196.753906 109.269531 C 195.832031 110.34375 194.878906 111.457031 194.355469 112.679688 C 194.136719 113.191406 193.980469 113.738281 193.898438 114.304688 C 193.890625 114.363281 193.867188 114.421875 193.828125 114.46875 C 193.21875 115.261719 192.71875 116.128906 192.335938 117.050781 C 192.160156 117.476562 192.015625 117.910156 191.90625 118.339844 C 191.882812 118.4375 191.820312 118.515625 191.734375 118.5625 C 191.683594 118.59375 191.621094 118.605469 191.5625 118.605469 " fill-opacity="1" fill-rule="nonzero"/></g><g clip-path="url(#id3)"><path fill="rgb(100%, 84.309387%, 0%)" d="M 183.15625 117.277344 C 182.921875 117.277344 182.683594 117.28125 182.445312 117.289062 C 179.238281 117.371094 176.117188 118.015625 173.167969 119.203125 C 173.015625 119.261719 172.867188 119.324219 172.71875 119.386719 C 169.835938 120.605469 167.207031 122.3125 164.902344 124.457031 C 164.566406 124.769531 164.21875 125.109375 163.839844 125.5 C 162.226562 127.179688 160.839844 129.0625 159.71875 131.085938 C 159.269531 131.894531 158.855469 132.738281 158.488281 133.601562 C 157.871094 135.0625 157.386719 136.574219 157.046875 138.09375 C 156.738281 139.441406 156.539062 140.816406 156.449219 142.179688 C 156.40625 142.777344 156.382812 143.390625 156.382812 144.015625 C 156.382812 144.425781 156.390625 144.785156 156.410156 145.121094 C 156.472656 146.757812 156.691406 148.386719 157.050781 149.964844 C 157.574219 152.277344 158.410156 154.507812 159.53125 156.609375 C 159.695312 156.914062 159.867188 157.214844 160.042969 157.511719 C 160.042969 157.515625 160.042969 157.515625 160.042969 157.515625 C 161.589844 160.152344 163.5625 162.488281 165.90625 164.464844 C 166.3125 164.808594 166.742188 165.148438 167.179688 165.472656 C 169.089844 166.894531 171.175781 168.050781 173.375 168.914062 C 174.226562 169.246094 175.089844 169.535156 175.941406 169.769531 C 178.277344 170.421875 180.707031 170.753906 183.15625 170.753906 L 183.210938 170.753906 C 183.710938 170.753906 184.199219 170.738281 184.660156 170.710938 C 186.988281 170.582031 189.285156 170.152344 191.488281 169.429688 C 192.496094 169.105469 193.507812 168.707031 194.484375 168.246094 C 195.886719 167.59375 197.234375 166.816406 198.5 165.929688 C 199.621094 165.148438 200.695312 164.269531 201.6875 163.320312 C 203.191406 161.875 204.527344 160.261719 205.652344 158.523438 C 206.101562 157.832031 206.523438 157.105469 206.90625 156.375 C 207.914062 154.449219 208.683594 152.402344 209.191406 150.285156 C 209.421875 149.332031 209.601562 148.347656 209.726562 147.359375 C 209.863281 146.261719 209.933594 145.136719 209.933594 144.015625 C 209.933594 143.359375 209.90625 142.707031 209.859375 142.085938 C 209.777344 140.890625 209.613281 139.699219 209.367188 138.542969 C 209.042969 136.96875 208.570312 135.414062 207.960938 133.925781 C 207.46875 132.722656 206.882812 131.542969 206.222656 130.425781 C 204.941406 128.261719 203.359375 126.289062 201.519531 124.554688 C 201.230469 124.285156 200.925781 124.007812 200.613281 123.738281 C 198.636719 122.039062 196.425781 120.640625 194.050781 119.582031 C 193.195312 119.203125 192.320312 118.867188 191.457031 118.589844 C 189.230469 117.863281 186.90625 117.433594 184.542969 117.3125 C 184.085938 117.289062 183.621094 117.277344 183.15625 117.277344 Z M 183.210938 171.460938 L 183.15625 171.460938 C 180.640625 171.460938 178.148438 171.121094 175.753906 170.449219 C 174.875 170.210938 173.992188 169.914062 173.117188 169.570312 C 170.855469 168.683594 168.71875 167.5 166.757812 166.039062 C 166.308594 165.707031 165.867188 165.359375 165.449219 165.003906 C 163.046875 162.976562 161.019531 160.578125 159.433594 157.875 C 159.253906 157.566406 159.074219 157.253906 158.910156 156.941406 C 157.753906 154.789062 156.898438 152.492188 156.363281 150.121094 C 155.992188 148.503906 155.769531 146.832031 155.703125 145.15625 C 155.683594 144.808594 155.675781 144.4375 155.675781 144.015625 C 155.675781 143.375 155.699219 142.742188 155.742188 142.132812 C 155.835938 140.730469 156.039062 139.320312 156.355469 137.9375 C 156.703125 136.378906 157.203125 134.828125 157.835938 133.324219 C 158.214844 132.441406 158.640625 131.574219 159.097656 130.746094 C 160.25 128.667969 161.671875 126.738281 163.332031 125.007812 C 163.71875 124.609375 164.074219 124.261719 164.417969 123.941406 C 166.785156 121.738281 169.484375 119.988281 172.441406 118.738281 C 172.59375 118.671875 172.746094 118.609375 172.90625 118.546875 C 175.933594 117.328125 179.136719 116.667969 182.425781 116.582031 C 183.144531 116.5625 183.871094 116.574219 184.578125 116.609375 C 187.003906 116.734375 189.390625 117.171875 191.671875 117.917969 C 192.5625 118.203125 193.457031 118.546875 194.339844 118.9375 C 196.777344 120.023438 199.042969 121.460938 201.074219 123.203125 C 201.398438 123.480469 201.710938 123.761719 202.003906 124.042969 C 203.894531 125.820312 205.515625 127.847656 206.832031 130.066406 C 207.511719 131.214844 208.109375 132.421875 208.613281 133.660156 C 209.238281 135.1875 209.726562 136.78125 210.0625 138.398438 C 210.3125 139.585938 210.480469 140.808594 210.566406 142.03125 C 210.613281 142.671875 210.640625 143.339844 210.640625 144.015625 C 210.640625 145.164062 210.566406 146.320312 210.425781 147.449219 C 210.300781 148.460938 210.117188 149.472656 209.878906 150.449219 C 209.355469 152.621094 208.566406 154.726562 207.53125 156.699219 C 207.140625 157.453125 206.707031 158.195312 206.246094 158.910156 C 205.089844 160.691406 203.71875 162.347656 202.175781 163.828125 C 201.160156 164.804688 200.058594 165.703125 198.90625 166.507812 C 197.609375 167.417969 196.222656 168.21875 194.785156 168.886719 C 193.78125 169.359375 192.746094 169.769531 191.707031 170.101562 C 189.445312 170.84375 187.089844 171.285156 184.703125 171.414062 C 184.226562 171.445312 183.726562 171.460938 183.210938 171.460938 " fill-opacity="1" fill-rule="nonzero"/></g><path fill="rgb(100%, 84.309387%, 0%)" d="M 148.609375 139.121094 C 148.890625 139.226562 149.152344 139.308594 149.40625 139.371094 C 151.449219 139.871094 153.667969 139.367188 156.386719 137.789062 C 156.710938 136.394531 157.148438 135.011719 157.699219 133.664062 C 157 133.378906 156.320312 133.011719 155.675781 132.5625 C 155.039062 132.121094 154.4375 131.609375 153.894531 131.042969 C 153.332031 130.847656 152.796875 130.589844 152.304688 130.269531 C 151.09375 129.484375 150.125 128.316406 149.1875 127.1875 C 147.738281 125.441406 146.371094 123.789062 144.285156 123.675781 C 142.699219 123.589844 141.214844 124.441406 139.644531 125.347656 C 138.699219 125.890625 137.71875 126.453125 136.699219 126.808594 C 134.699219 127.496094 132.519531 127.394531 130.203125 126.507812 C 130.539062 127.09375 130.882812 127.613281 131.25 128.082031 C 132.777344 130.046875 134.8125 131.171875 136.832031 131.171875 C 136.839844 131.171875 136.847656 131.171875 136.855469 131.171875 C 137.460938 131.167969 138.105469 131.070312 138.726562 130.972656 C 139.945312 130.785156 141.203125 130.589844 142.351562 131.066406 C 143.871094 131.699219 144.613281 133.226562 145.335938 134.703125 C 145.5 135.039062 145.671875 135.390625 145.847656 135.714844 C 146.546875 137.019531 147.476562 138.164062 148.609375 139.121094 Z M 150.964844 140.265625 C 150.375 140.265625 149.804688 140.195312 149.238281 140.054688 C 148.9375 139.984375 148.632812 139.886719 148.304688 139.761719 C 148.265625 139.746094 148.234375 139.726562 148.203125 139.699219 C 146.976562 138.679688 145.972656 137.449219 145.222656 136.050781 C 145.042969 135.710938 144.867188 135.355469 144.699219 135.011719 C 144.039062 133.652344 143.351562 132.246094 142.078125 131.71875 C 141.113281 131.320312 140.007812 131.492188 138.835938 131.671875 C 138.1875 131.773438 137.515625 131.875 136.855469 131.878906 C 136.847656 131.878906 136.839844 131.878906 136.832031 131.878906 C 134.59375 131.878906 132.355469 130.65625 130.691406 128.515625 C 130.121094 127.789062 129.605469 126.949219 129.105469 125.949219 C 129.039062 125.816406 129.066406 125.652344 129.167969 125.546875 C 129.273438 125.4375 129.4375 125.410156 129.574219 125.472656 C 132.0625 126.632812 134.382812 126.859375 136.464844 126.140625 C 137.425781 125.808594 138.375 125.261719 139.292969 124.734375 C 140.882812 123.820312 142.523438 122.871094 144.324219 122.972656 C 146.71875 123.101562 148.25 124.949219 149.734375 126.738281 C 150.636719 127.824219 151.570312 128.953125 152.691406 129.679688 C 153.15625 129.980469 153.664062 130.222656 154.199219 130.398438 C 154.257812 130.417969 154.304688 130.449219 154.347656 130.492188 C 154.875 131.050781 155.457031 131.550781 156.078125 131.980469 C 156.777344 132.46875 157.519531 132.855469 158.285156 133.132812 C 158.375 133.164062 158.449219 133.230469 158.488281 133.320312 C 158.527344 133.410156 158.527344 133.511719 158.488281 133.601562 C 157.871094 135.0625 157.386719 136.574219 157.046875 138.09375 C 157.023438 138.1875 156.964844 138.269531 156.878906 138.320312 C 154.664062 139.625 152.742188 140.265625 150.964844 140.265625 " fill-opacity="1" fill-rule="nonzero"/><g clip-path="url(#id4)"><path fill="rgb(100%, 84.309387%, 0%)" d="M 172.898438 89.429688 C 172.574219 90.011719 172.308594 90.578125 172.09375 91.136719 C 171.203125 93.46875 171.300781 95.796875 172.359375 97.523438 C 172.675781 98.039062 173.09375 98.539062 173.5 99.019531 C 174.292969 99.960938 175.113281 100.933594 175.300781 102.160156 C 175.550781 103.789062 174.625 105.222656 173.730469 106.609375 C 173.53125 106.921875 173.320312 107.246094 173.132812 107.558594 C 171.371094 110.542969 171.027344 114.242188 172.214844 117.449219 C 172.277344 117.613281 172.339844 117.777344 172.410156 117.9375 C 172.511719 118.171875 172.621094 118.398438 172.734375 118.613281 C 172.792969 118.59375 172.847656 118.570312 172.90625 118.546875 C 175.933594 117.328125 179.136719 116.667969 182.425781 116.582031 C 182.871094 116.570312 183.316406 116.570312 183.757812 116.578125 C 183.132812 115.828125 182.632812 115.109375 182.238281 114.390625 C 181.460938 112.984375 181.101562 111.628906 181.148438 110.246094 C 181.191406 108.808594 181.691406 107.375 182.171875 105.988281 C 182.914062 103.84375 183.617188 101.820312 182.632812 99.976562 C 181.882812 98.578125 180.382812 97.753906 178.796875 96.882812 C 177.839844 96.359375 176.847656 95.816406 176.015625 95.125 C 174.390625 93.777344 173.34375 91.863281 172.898438 89.429688 Z M 172.578125 119.414062 C 172.453125 119.414062 172.335938 119.351562 172.273438 119.238281 C 172.085938 118.917969 171.917969 118.574219 171.761719 118.21875 C 171.6875 118.046875 171.617188 117.871094 171.550781 117.695312 C 170.289062 114.289062 170.652344 110.367188 172.527344 107.199219 C 172.71875 106.875 172.933594 106.542969 173.136719 106.226562 C 173.960938 104.953125 174.808594 103.632812 174.601562 102.269531 C 174.441406 101.234375 173.722656 100.378906 172.957031 99.472656 C 172.535156 98.972656 172.097656 98.453125 171.757812 97.894531 C 170.582031 95.976562 170.464844 93.421875 171.433594 90.882812 C 171.765625 90.015625 172.214844 89.140625 172.808594 88.203125 C 172.886719 88.078125 173.039062 88.015625 173.1875 88.046875 C 173.332031 88.082031 173.441406 88.203125 173.457031 88.351562 C 173.757812 91.078125 174.769531 93.175781 176.46875 94.582031 C 177.246094 95.226562 178.207031 95.753906 179.136719 96.265625 C 180.746094 97.148438 182.40625 98.0625 183.253906 99.644531 C 184.386719 101.757812 183.601562 104.027344 182.839844 106.21875 C 182.375 107.554688 181.894531 108.9375 181.855469 110.265625 C 181.8125 111.523438 182.140625 112.757812 182.855469 114.050781 C 183.332031 114.914062 183.976562 115.789062 184.824219 116.722656 C 184.917969 116.828125 184.941406 116.984375 184.878906 117.113281 C 184.820312 117.242188 184.683594 117.320312 184.542969 117.3125 C 183.855469 117.277344 183.148438 117.265625 182.445312 117.289062 C 179.238281 117.371094 176.117188 118.015625 173.167969 119.203125 C 173.015625 119.261719 172.867188 119.324219 172.71875 119.386719 C 172.671875 119.40625 172.625 119.414062 172.578125 119.414062 " fill-opacity="1" fill-rule="nonzero"/></g><g clip-path="url(#id5)"><path fill="rgb(100%, 84.309387%, 0%)" d="M 156.09375 142.15625 L 156.097656 142.15625 Z M 139.902344 144.082031 C 139.96875 144.082031 140.039062 144.085938 140.105469 144.089844 C 141.75 144.183594 142.960938 145.378906 144.132812 146.539062 C 144.398438 146.804688 144.671875 147.074219 144.945312 147.324219 C 146.578125 148.824219 148.601562 149.824219 150.792969 150.214844 C 152.007812 150.433594 153.234375 150.453125 154.441406 150.277344 C 155.078125 150.183594 155.699219 150.03125 156.292969 149.820312 C 155.964844 148.292969 155.765625 146.726562 155.703125 145.15625 C 155.683594 144.808594 155.675781 144.4375 155.675781 144.015625 C 155.675781 143.375 155.699219 142.742188 155.742188 142.132812 C 155.816406 140.992188 155.96875 139.84375 156.191406 138.707031 C 153.546875 140.140625 151.324219 140.566406 149.238281 140.054688 C 148.9375 139.984375 148.632812 139.886719 148.304688 139.761719 C 147.253906 139.359375 146.25 138.753906 145.28125 138.171875 C 143.335938 137 141.496094 135.894531 139.492188 136.472656 C 137.964844 136.914062 136.847656 138.207031 135.664062 139.578125 C 134.949219 140.40625 134.210938 141.257812 133.363281 141.929688 C 131.703125 143.238281 129.613281 143.859375 127.136719 143.789062 C 127.644531 144.230469 128.140625 144.609375 128.640625 144.929688 C 130.738281 146.285156 133.042969 146.675781 134.953125 146 C 135.523438 145.796875 136.097656 145.492188 136.65625 145.195312 C 137.679688 144.648438 138.738281 144.082031 139.902344 144.082031 Z M 152.8125 151.101562 C 152.097656 151.101562 151.378906 151.039062 150.667969 150.910156 C 148.34375 150.496094 146.199219 149.433594 144.464844 147.84375 C 144.183594 147.585938 143.90625 147.308594 143.632812 147.039062 C 142.558594 145.972656 141.445312 144.871094 140.066406 144.792969 C 139.023438 144.734375 138.03125 145.261719 136.988281 145.816406 C 136.410156 146.125 135.808594 146.445312 135.1875 146.664062 C 133.066406 147.414062 130.539062 146.996094 128.257812 145.523438 C 127.484375 145.027344 126.71875 144.40625 125.914062 143.625 C 125.804688 143.519531 125.777344 143.359375 125.839844 143.222656 C 125.902344 143.085938 126.046875 143.007812 126.195312 143.019531 C 128.929688 143.292969 131.191406 142.738281 132.925781 141.375 C 133.71875 140.746094 134.4375 139.917969 135.128906 139.117188 C 136.328125 137.730469 137.566406 136.292969 139.292969 135.792969 C 141.597656 135.128906 143.65625 136.367188 145.644531 137.566406 C 146.589844 138.136719 147.566406 138.722656 148.554688 139.101562 C 148.855469 139.214844 149.136719 139.304688 149.40625 139.371094 C 151.480469 139.878906 153.742188 139.351562 156.519531 137.710938 C 156.640625 137.640625 156.792969 137.648438 156.90625 137.730469 C 157.023438 137.8125 157.074219 137.957031 157.042969 138.09375 C 156.738281 139.441406 156.539062 140.816406 156.449219 142.179688 C 156.449219 142.183594 156.449219 142.183594 156.449219 142.183594 C 156.40625 142.777344 156.382812 143.390625 156.382812 144.015625 C 156.382812 144.425781 156.390625 144.785156 156.410156 145.121094 C 156.472656 146.757812 156.691406 148.386719 157.050781 149.964844 C 157.089844 150.136719 157 150.308594 156.835938 150.375 C 156.105469 150.65625 155.335938 150.859375 154.542969 150.976562 C 153.96875 151.058594 153.390625 151.101562 152.8125 151.101562 " fill-opacity="1" fill-rule="nonzero"/></g><g clip-path="url(#id6)"><path fill="rgb(100%, 84.309387%, 0%)" d="M 216.234375 147.75 C 216.96875 147.75 217.683594 147.855469 218.367188 148.0625 C 219.746094 148.488281 221 149.347656 222.210938 150.175781 C 224.085938 151.457031 225.855469 152.671875 227.890625 152.210938 C 229.441406 151.859375 230.632812 150.632812 231.894531 149.332031 C 232.65625 148.550781 233.441406 147.738281 234.328125 147.117188 C 236.058594 145.910156 238.183594 145.410156 240.65625 145.625 C 240.171875 145.152344 239.695312 144.746094 239.21875 144.398438 C 237.199219 142.921875 234.925781 142.398438 232.980469 142.960938 C 232.398438 143.128906 231.804688 143.402344 231.230469 143.667969 C 230.113281 144.179688 228.960938 144.710938 227.726562 144.570312 C 226.085938 144.382812 224.949219 143.117188 223.847656 141.890625 C 223.597656 141.613281 223.335938 141.324219 223.082031 141.058594 C 221.09375 139.007812 218.328125 137.726562 215.492188 137.542969 C 213.457031 138.597656 211.800781 140.546875 210.574219 142.164062 C 210.617188 142.765625 210.640625 143.386719 210.640625 144.015625 C 210.640625 145.007812 210.585938 146.003906 210.480469 146.980469 C 211.609375 146.835938 212.820312 146.902344 214.011719 147.179688 C 214.625 147.320312 215.234375 147.515625 215.832031 147.757812 C 215.964844 147.753906 216.097656 147.75 216.234375 147.75 Z M 227.003906 153.015625 C 225.109375 153.015625 223.4375 151.871094 221.8125 150.757812 C 220.644531 149.957031 219.4375 149.132812 218.160156 148.738281 C 217.410156 148.507812 216.613281 148.417969 215.792969 148.46875 C 215.738281 148.472656 215.6875 148.464844 215.636719 148.441406 C 215.050781 148.199219 214.449219 148.007812 213.851562 147.867188 C 212.585938 147.574219 211.300781 147.53125 210.140625 147.75 C 210.03125 147.769531 209.914062 147.738281 209.835938 147.660156 C 209.75 147.582031 209.710938 147.472656 209.726562 147.359375 C 209.863281 146.261719 209.933594 145.136719 209.933594 144.015625 C 209.933594 143.359375 209.90625 142.707031 209.859375 142.085938 C 209.851562 142 209.878906 141.914062 209.929688 141.84375 C 211.230469 140.125 213.007812 138 215.253906 136.867188 C 215.3125 136.839844 215.375 136.828125 215.433594 136.832031 C 218.484375 137.003906 221.457031 138.367188 223.589844 140.570312 C 223.855469 140.84375 224.117188 141.136719 224.375 141.417969 C 225.386719 142.546875 226.433594 143.710938 227.804688 143.871094 C 228.839844 143.988281 229.859375 143.519531 230.933594 143.023438 C 231.53125 142.75 232.148438 142.46875 232.78125 142.285156 C 234.941406 141.660156 237.441406 142.222656 239.636719 143.828125 C 240.378906 144.371094 241.105469 145.035156 241.863281 145.859375 C 241.964844 145.96875 241.984375 146.132812 241.914062 146.265625 C 241.84375 146.394531 241.695312 146.46875 241.546875 146.445312 C 238.832031 146.015625 236.539062 146.4375 234.734375 147.699219 C 233.902344 148.277344 233.140625 149.0625 232.402344 149.824219 C 231.125 151.140625 229.804688 152.5 228.046875 152.898438 C 227.695312 152.976562 227.34375 153.015625 227.003906 153.015625 " fill-opacity="1" fill-rule="nonzero"/></g><g fill="rgb(0%, 0%, 0%)" fill-opacity="1"><g transform="translate(69.425084, 199.89263)"><g><path d="M 42.8125 -0.59375 L 43.515625 -0.59375 L 43.515625 0 L 30.703125 0 L 30.703125 -0.59375 L 31.46875 -0.59375 C 32.445312 -0.59375 33.296875 -0.929688 34.015625 -1.609375 C 34.742188 -2.296875 35.148438 -3.148438 35.234375 -4.171875 L 35.234375 -19.4375 L 12.5 -19.4375 L 12.5 -4.109375 C 12.5 1.367188 11.171875 5.046875 8.515625 6.921875 C 7.296875 7.785156 5.726562 8.429688 3.8125 8.859375 L 3.515625 8.34375 C 5.285156 7.394531 6.585938 5.941406 7.421875 3.984375 C 8.265625 2.035156 8.6875 -0.660156 8.6875 -4.109375 L 8.6875 -36.875 C 8.6875 -37.894531 8.3125 -38.753906 7.5625 -39.453125 C 6.820312 -40.160156 5.945312 -40.515625 4.9375 -40.515625 L 4.234375 -40.515625 L 4.234375 -41.109375 L 17.03125 -41.109375 L 17.03125 -40.515625 L 16.265625 -40.515625 C 15.242188 -40.515625 14.367188 -40.160156 13.640625 -39.453125 C 12.921875 -38.753906 12.539062 -37.894531 12.5 -36.875 L 12.5 -21.203125 L 35.234375 -21.203125 L 35.234375 -35.8125 C 35.273438 -40.820312 36.390625 -44.304688 38.578125 -46.265625 C 39.910156 -47.441406 41.710938 -48.285156 43.984375 -48.796875 L 44.28125 -48.265625 C 42.507812 -47.328125 41.191406 -45.878906 40.328125 -43.921875 C 39.472656 -41.960938 39.046875 -39.257812 39.046875 -35.8125 L 39.046875 -4.28125 C 39.046875 -3.269531 39.40625 -2.398438 40.125 -1.671875 C 40.851562 -0.953125 41.75 -0.59375 42.8125 -0.59375 Z M 42.8125 -0.59375 "/></g></g></g><g fill="rgb(0%, 0%, 0%)" fill-opacity="1"><g transform="translate(117.15793, 199.89263)"><g><path d="M 8.625 -36.015625 C 12.820312 -39.953125 18.253906 -41.921875 24.921875 -41.921875 C 31.597656 -41.921875 37.03125 -39.953125 41.21875 -36.015625 C 45.40625 -32.085938 47.5 -26.929688 47.5 -20.546875 C 47.5 -14.171875 45.40625 -9.015625 41.21875 -5.078125 C 37.03125 -1.140625 31.597656 0.828125 24.921875 0.828125 C 18.253906 0.828125 12.820312 -1.140625 8.625 -5.078125 C 4.4375 -9.015625 2.34375 -14.171875 2.34375 -20.546875 C 2.34375 -26.929688 4.4375 -32.085938 8.625 -36.015625 Z M 11.828125 -6.34375 C 15.140625 -2.738281 19.492188 -0.9375 24.890625 -0.9375 C 30.296875 -0.9375 34.648438 -2.738281 37.953125 -6.34375 C 41.265625 -9.945312 42.921875 -14.679688 42.921875 -20.546875 C 42.921875 -26.421875 41.265625 -31.15625 37.953125 -34.75 C 34.648438 -38.351562 30.296875 -40.15625 24.890625 -40.15625 C 19.492188 -40.15625 15.140625 -38.351562 11.828125 -34.75 C 8.523438 -31.15625 6.875 -26.421875 6.875 -20.546875 C 6.875 -14.679688 8.523438 -9.945312 11.828125 -6.34375 Z M 11.828125 -6.34375 "/></g></g></g><g fill="rgb(0%, 0%, 0%)" fill-opacity="1"><g transform="translate(166.945696, 199.89263)"><g><path d="M 3.578125 -2.40625 C 3.460938 -2.957031 3.40625 -4.015625 3.40625 -5.578125 C 3.40625 -7.140625 3.695312 -8.800781 4.28125 -10.5625 L 4.8125 -10.5625 C 4.769531 -10.132812 4.75 -9.707031 4.75 -9.28125 C 4.75 -6.894531 5.472656 -4.90625 6.921875 -3.3125 C 8.367188 -1.726562 10.289062 -0.9375 12.6875 -0.9375 C 15.144531 -0.9375 17.164062 -1.679688 18.75 -3.171875 C 20.34375 -4.660156 21.140625 -6.53125 21.140625 -8.78125 C 21.140625 -11.03125 20.375 -12.859375 18.84375 -14.265625 L 7.578125 -24.71875 C 5.460938 -26.675781 4.40625 -29.046875 4.40625 -31.828125 C 4.40625 -34.609375 5.332031 -36.984375 7.1875 -38.953125 C 9.050781 -40.929688 11.566406 -41.921875 14.734375 -41.921875 C 16.222656 -41.921875 17.90625 -41.726562 19.78125 -41.34375 L 22.078125 -41.34375 L 22.078125 -34.109375 L 21.546875 -34.109375 C 21.546875 -35.953125 20.910156 -37.421875 19.640625 -38.515625 C 18.367188 -39.609375 16.734375 -40.15625 14.734375 -40.15625 C 12.742188 -40.15625 11.070312 -39.488281 9.71875 -38.15625 C 8.363281 -36.832031 7.6875 -35.171875 7.6875 -33.171875 C 7.6875 -31.179688 8.472656 -29.460938 10.046875 -28.015625 L 21.609375 -17.328125 C 23.566406 -15.523438 24.546875 -13.054688 24.546875 -9.921875 C 24.546875 -6.785156 23.546875 -4.207031 21.546875 -2.1875 C 19.554688 -0.175781 16.894531 0.828125 13.5625 0.828125 C 11.84375 0.828125 10.015625 0.5625 8.078125 0.03125 C 6.140625 -0.5 4.640625 -1.3125 3.578125 -2.40625 Z M 3.578125 -2.40625 "/></g></g></g><g fill="rgb(0%, 0%, 0%)" fill-opacity="1"><g transform="translate(194.892598, 199.89263)"><g><path d="M 34.578125 -35.875 C 34.578125 -36.8125 34.242188 -37.625 33.578125 -38.3125 C 32.921875 -39 32.140625 -39.363281 31.234375 -39.40625 L 20.078125 -39.40625 L 20.078125 -4.234375 C 20.117188 -3.210938 20.5 -2.347656 21.21875 -1.640625 C 21.945312 -0.941406 22.820312 -0.59375 23.84375 -0.59375 L 24.609375 -0.59375 L 24.609375 0 L 11.75 0 L 11.75 -0.59375 L 12.5 -0.59375 C 13.519531 -0.59375 14.390625 -0.941406 15.109375 -1.640625 C 15.835938 -2.347656 16.222656 -3.191406 16.265625 -4.171875 L 16.265625 -39.40625 L 5.109375 -39.40625 C 4.171875 -39.363281 3.378906 -39 2.734375 -38.3125 C 2.085938 -37.625 1.765625 -36.8125 1.765625 -35.875 L 1.765625 -34.875 L 1.171875 -34.8125 L 1.171875 -42.21875 C 1.765625 -41.976562 2.785156 -41.738281 4.234375 -41.5 C 5.679688 -41.269531 7.007812 -41.15625 8.21875 -41.15625 L 28.0625 -41.15625 C 29.976562 -41.15625 31.570312 -41.300781 32.84375 -41.59375 C 34.125 -41.894531 34.898438 -42.101562 35.171875 -42.21875 L 35.171875 -34.8125 L 34.578125 -34.875 Z M 34.578125 -35.875 "/></g></g></g><g fill="rgb(0%, 0%, 0%)" fill-opacity="1"><g transform="translate(231.176612, 199.89263)"><g><path d="M 4.28125 -0.59375 C 5.300781 -0.59375 6.171875 -0.953125 6.890625 -1.671875 C 7.617188 -2.398438 8.003906 -3.269531 8.046875 -4.28125 L 8.046875 -37.171875 C 8.046875 -38.109375 7.671875 -38.898438 6.921875 -39.546875 C 6.179688 -40.191406 5.300781 -40.515625 4.28125 -40.515625 L 3.578125 -40.515625 L 3.515625 -41.109375 L 20.734375 -41.109375 C 21.941406 -41.109375 23.257812 -41.222656 24.6875 -41.453125 C 26.113281 -41.691406 27.125 -41.925781 27.71875 -42.15625 L 27.71875 -34.765625 L 27.125 -34.765625 L 27.125 -35.8125 C 27.125 -36.757812 26.800781 -37.5625 26.15625 -38.21875 C 25.507812 -38.882812 24.738281 -39.238281 23.84375 -39.28125 L 11.859375 -39.28125 L 11.859375 -21.140625 L 21.78125 -21.140625 C 22.5625 -21.179688 23.226562 -21.472656 23.78125 -22.015625 C 24.332031 -22.566406 24.609375 -23.253906 24.609375 -24.078125 L 24.609375 -24.890625 L 25.1875 -24.890625 L 25.1875 -15.625 L 24.609375 -15.625 L 24.609375 -16.5 C 24.609375 -17.28125 24.34375 -17.941406 23.8125 -18.484375 C 23.28125 -19.035156 22.625 -19.332031 21.84375 -19.375 L 11.859375 -19.375 L 11.859375 -1.8125 L 20.265625 -1.8125 C 23.160156 -1.8125 25.367188 -2.457031 26.890625 -3.75 C 28.421875 -5.050781 29.691406 -6.972656 30.703125 -9.515625 L 31.296875 -9.515625 L 27.890625 0 L 3.515625 0 L 3.515625 -0.59375 Z M 4.28125 -0.59375 "/></g></g></g><g fill="rgb(0%, 0%, 0%)" fill-opacity="1"><g transform="translate(265.053419, 199.89263)"><g><path d="M 4.28125 -0.59375 C 5.300781 -0.59375 6.171875 -0.953125 6.890625 -1.671875 C 7.617188 -2.398438 8.003906 -3.269531 8.046875 -4.28125 L 8.046875 -36.8125 C 8.003906 -37.832031 7.617188 -38.703125 6.890625 -39.421875 C 6.171875 -40.148438 5.300781 -40.515625 4.28125 -40.515625 L 3.515625 -40.515625 L 3.515625 -41.109375 L 16.375 -41.109375 L 16.375 -40.515625 L 15.625 -40.515625 C 14.207031 -40.515625 13.128906 -39.910156 12.390625 -38.703125 C 12.035156 -38.109375 11.859375 -37.476562 11.859375 -36.8125 L 11.859375 -1.8125 L 20.265625 -1.8125 C 23.160156 -1.8125 25.367188 -2.457031 26.890625 -3.75 C 28.421875 -5.050781 29.691406 -6.972656 30.703125 -9.515625 L 31.296875 -9.515625 L 27.890625 0 L 3.515625 0 L 3.515625 -0.59375 Z M 4.28125 -0.59375 "/></g></g></g><g fill="rgb(0%, 0%, 0%)" fill-opacity="1"><g transform="translate(67.055185, 229.838238)"><g><path d="M 8.1875 -0.859375 L 8.1875 0 L 1.53125 0 L 1.53125 -9.421875 L 7.984375 -9.421875 L 7.984375 -8.5625 L 2.53125 -8.5625 L 2.53125 -5.203125 L 7.40625 -5.203125 L 7.40625 -4.359375 L 2.53125 -4.359375 L 2.53125 -0.859375 Z M 8.1875 -0.859375 "/></g></g></g><g fill="rgb(0%, 0%, 0%)" fill-opacity="1"><g transform="translate(84.151828, 229.838238)"><g><path d="M 1.53125 -9.421875 L 2.53125 -9.421875 L 2.53125 -0.859375 L 7.796875 -0.859375 L 7.796875 0 L 1.53125 0 Z M 1.53125 -9.421875 "/></g></g></g><g fill="rgb(0%, 0%, 0%)" fill-opacity="1"><g transform="translate(100.172627, 229.838238)"><g/></g></g><g fill="rgb(0%, 0%, 0%)" fill-opacity="1"><g transform="translate(111.795875, 229.838238)"><g><path d="M 7.96875 0 L 5.8125 -3.03125 C 5.570312 -3 5.320312 -2.984375 5.0625 -2.984375 L 2.53125 -2.984375 L 2.53125 0 L 1.53125 0 L 1.53125 -9.421875 L 5.0625 -9.421875 C 6.257812 -9.421875 7.195312 -9.128906 7.875 -8.546875 C 8.5625 -7.972656 8.90625 -7.1875 8.90625 -6.1875 C 8.90625 -5.445312 8.71875 -4.820312 8.34375 -4.3125 C 7.976562 -3.8125 7.445312 -3.453125 6.75 -3.234375 L 9.046875 0 Z M 5.03125 -3.828125 C 5.96875 -3.828125 6.679688 -4.035156 7.171875 -4.453125 C 7.660156 -4.867188 7.90625 -5.445312 7.90625 -6.1875 C 7.90625 -6.945312 7.660156 -7.53125 7.171875 -7.9375 C 6.679688 -8.351562 5.96875 -8.5625 5.03125 -8.5625 L 2.53125 -8.5625 L 2.53125 -3.828125 Z M 5.03125 -3.828125 "/></g></g></g><g fill="rgb(0%, 0%, 0%)" fill-opacity="1"><g transform="translate(129.618722, 229.838238)"><g><path d="M 8.1875 -0.859375 L 8.1875 0 L 1.53125 0 L 1.53125 -9.421875 L 7.984375 -9.421875 L 7.984375 -8.5625 L 2.53125 -8.5625 L 2.53125 -5.203125 L 7.40625 -5.203125 L 7.40625 -4.359375 L 2.53125 -4.359375 L 2.53125 -0.859375 Z M 8.1875 -0.859375 "/></g></g></g><g fill="rgb(0%, 0%, 0%)" fill-opacity="1"><g transform="translate(146.715365, 229.838238)"><g><path d="M 8.1875 -0.859375 L 8.1875 0 L 1.53125 0 L 1.53125 -9.421875 L 7.984375 -9.421875 L 7.984375 -8.5625 L 2.53125 -8.5625 L 2.53125 -5.203125 L 7.40625 -5.203125 L 7.40625 -4.359375 L 2.53125 -4.359375 L 2.53125 -0.859375 Z M 8.1875 -0.859375 "/></g></g></g><g fill="rgb(0%, 0%, 0%)" fill-opacity="1"><g transform="translate(163.812008, 229.838238)"><g><path d="M 9.40625 -9.421875 L 9.40625 0 L 8.578125 0 L 2.53125 -7.640625 L 2.53125 0 L 1.53125 0 L 1.53125 -9.421875 L 2.359375 -9.421875 L 8.421875 -1.78125 L 8.421875 -9.421875 Z M 9.40625 -9.421875 "/></g></g></g><g fill="rgb(0%, 0%, 0%)" fill-opacity="1"><g transform="translate(182.845191, 229.838238)"><g><path d="M 5.625 0.078125 C 4.6875 0.078125 3.84375 -0.125 3.09375 -0.53125 C 2.351562 -0.945312 1.769531 -1.519531 1.34375 -2.25 C 0.914062 -2.976562 0.703125 -3.796875 0.703125 -4.703125 C 0.703125 -5.609375 0.914062 -6.425781 1.34375 -7.15625 C 1.769531 -7.894531 2.359375 -8.46875 3.109375 -8.875 C 3.859375 -9.289062 4.703125 -9.5 5.640625 -9.5 C 6.335938 -9.5 6.984375 -9.378906 7.578125 -9.140625 C 8.171875 -8.910156 8.671875 -8.570312 9.078125 -8.125 L 8.453125 -7.5 C 7.710938 -8.238281 6.78125 -8.609375 5.65625 -8.609375 C 4.914062 -8.609375 4.238281 -8.4375 3.625 -8.09375 C 3.019531 -7.757812 2.546875 -7.296875 2.203125 -6.703125 C 1.859375 -6.109375 1.6875 -5.441406 1.6875 -4.703125 C 1.6875 -3.972656 1.859375 -3.3125 2.203125 -2.71875 C 2.546875 -2.125 3.019531 -1.65625 3.625 -1.3125 C 4.238281 -0.976562 4.914062 -0.8125 5.65625 -0.8125 C 6.789062 -0.8125 7.722656 -1.1875 8.453125 -1.9375 L 9.078125 -1.3125 C 8.671875 -0.851562 8.164062 -0.503906 7.5625 -0.265625 C 6.96875 -0.0351562 6.320312 0.078125 5.625 0.078125 Z M 5.625 0.078125 "/></g></g></g><g fill="rgb(0%, 0%, 0%)" fill-opacity="1"><g transform="translate(200.614249, 229.838238)"><g><path d="M 5.328125 0.078125 C 4.109375 0.078125 3.15625 -0.269531 2.46875 -0.96875 C 1.789062 -1.664062 1.453125 -2.679688 1.453125 -4.015625 L 1.453125 -9.421875 L 2.453125 -9.421875 L 2.453125 -4.0625 C 2.453125 -2.96875 2.695312 -2.148438 3.1875 -1.609375 C 3.675781 -1.078125 4.390625 -0.8125 5.328125 -0.8125 C 6.265625 -0.8125 6.976562 -1.078125 7.46875 -1.609375 C 7.96875 -2.148438 8.21875 -2.96875 8.21875 -4.0625 L 8.21875 -9.421875 L 9.1875 -9.421875 L 9.1875 -4.015625 C 9.1875 -2.679688 8.847656 -1.664062 8.171875 -0.96875 C 7.492188 -0.269531 6.546875 0.078125 5.328125 0.078125 Z M 5.328125 0.078125 "/></g></g></g><g fill="rgb(0%, 0%, 0%)" fill-opacity="1"><g transform="translate(219.365016, 229.838238)"><g><path d="M 8.1875 -0.859375 L 8.1875 0 L 1.53125 0 L 1.53125 -9.421875 L 7.984375 -9.421875 L 7.984375 -8.5625 L 2.53125 -8.5625 L 2.53125 -5.203125 L 7.40625 -5.203125 L 7.40625 -4.359375 L 2.53125 -4.359375 L 2.53125 -0.859375 Z M 8.1875 -0.859375 "/></g></g></g><g fill="rgb(0%, 0%, 0%)" fill-opacity="1"><g transform="translate(236.461654, 229.838238)"><g><path d="M 9.40625 -9.421875 L 9.40625 0 L 8.578125 0 L 2.53125 -7.640625 L 2.53125 0 L 1.53125 0 L 1.53125 -9.421875 L 2.359375 -9.421875 L 8.421875 -1.78125 L 8.421875 -9.421875 Z M 9.40625 -9.421875 "/></g></g></g><g fill="rgb(0%, 0%, 0%)" fill-opacity="1"><g transform="translate(255.494827, 229.838238)"><g><path d="M 3.359375 -8.5625 L 0.046875 -8.5625 L 0.046875 -9.421875 L 7.671875 -9.421875 L 7.671875 -8.5625 L 4.359375 -8.5625 L 4.359375 0 L 3.359375 0 Z M 3.359375 -8.5625 "/></g></g></g><g fill="rgb(0%, 0%, 0%)" fill-opacity="1"><g transform="translate(271.313899, 229.838238)"><g><path d="M 7.96875 0 L 5.8125 -3.03125 C 5.570312 -3 5.320312 -2.984375 5.0625 -2.984375 L 2.53125 -2.984375 L 2.53125 0 L 1.53125 0 L 1.53125 -9.421875 L 5.0625 -9.421875 C 6.257812 -9.421875 7.195312 -9.128906 7.875 -8.546875 C 8.5625 -7.972656 8.90625 -7.1875 8.90625 -6.1875 C 8.90625 -5.445312 8.71875 -4.820312 8.34375 -4.3125 C 7.976562 -3.8125 7.445312 -3.453125 6.75 -3.234375 L 9.046875 0 Z M 5.03125 -3.828125 C 5.96875 -3.828125 6.679688 -4.035156 7.171875 -4.453125 C 7.660156 -4.867188 7.90625 -5.445312 7.90625 -6.1875 C 7.90625 -6.945312 7.660156 -7.53125 7.171875 -7.9375 C 6.679688 -8.351562 5.96875 -8.5625 5.03125 -8.5625 L 2.53125 -8.5625 L 2.53125 -3.828125 Z M 5.03125 -3.828125 "/></g></g></g><g fill="rgb(0%, 0%, 0%)" fill-opacity="1"><g transform="translate(289.136741, 229.838238)"><g><path d="M 5.65625 0.078125 C 4.71875 0.078125 3.867188 -0.128906 3.109375 -0.546875 C 2.359375 -0.960938 1.769531 -1.53125 1.34375 -2.25 C 0.914062 -2.976562 0.703125 -3.796875 0.703125 -4.703125 C 0.703125 -5.609375 0.914062 -6.425781 1.34375 -7.15625 C 1.769531 -7.882812 2.359375 -8.457031 3.109375 -8.875 C 3.867188 -9.289062 4.71875 -9.5 5.65625 -9.5 C 6.582031 -9.5 7.421875 -9.289062 8.171875 -8.875 C 8.921875 -8.46875 9.507812 -7.894531 9.9375 -7.15625 C 10.375 -6.425781 10.59375 -5.609375 10.59375 -4.703125 C 10.59375 -3.796875 10.375 -2.976562 9.9375 -2.25 C 9.507812 -1.519531 8.921875 -0.945312 8.171875 -0.53125 C 7.421875 -0.125 6.582031 0.078125 5.65625 0.078125 Z M 5.65625 -0.8125 C 6.394531 -0.8125 7.0625 -0.976562 7.65625 -1.3125 C 8.257812 -1.644531 8.734375 -2.109375 9.078125 -2.703125 C 9.421875 -3.304688 9.59375 -3.972656 9.59375 -4.703125 C 9.59375 -5.441406 9.421875 -6.109375 9.078125 -6.703125 C 8.734375 -7.296875 8.257812 -7.757812 7.65625 -8.09375 C 7.0625 -8.4375 6.394531 -8.609375 5.65625 -8.609375 C 4.90625 -8.609375 4.226562 -8.4375 3.625 -8.09375 C 3.019531 -7.757812 2.546875 -7.296875 2.203125 -6.703125 C 1.859375 -6.109375 1.6875 -5.441406 1.6875 -4.703125 C 1.6875 -3.972656 1.859375 -3.304688 2.203125 -2.703125 C 2.546875 -2.109375 3.019531 -1.644531 3.625 -1.3125 C 4.226562 -0.976562 4.90625 -0.8125 5.65625 -0.8125 Z M 5.65625 -0.8125 "/></g></g></g><g clip-path="url(#id7)"><path fill="rgb(100%, 84.309387%, 0%)" d="M 331.992188 109.53125 C 331.933594 93.144531 332.351562 76.636719 331.574219 60.25 C 332.054688 60.191406 332.53125 60.007812 332.894531 59.648438 C 333.792969 58.75 333.613281 57.128906 332.714844 56.289062 C 331.691406 55.328125 329.953125 55.566406 329.292969 56.828125 C 329.113281 57.1875 329.054688 57.546875 329.054688 57.910156 C 328.933594 58.507812 329.113281 59.167969 329.59375 59.589844 C 329.832031 59.828125 330.074219 60.007812 330.371094 60.128906 C 329.953125 74.65625 330.492188 89.300781 330.554688 103.886719 C 330.554688 110.429688 330.613281 117.035156 330.613281 123.578125 L 332.054688 123.578125 C 332.054688 118.894531 331.992188 114.214844 331.992188 109.53125 Z M 331.992188 109.53125 " fill-opacity="1" fill-rule="nonzero"/></g><g clip-path="url(#id8)"><path fill="rgb(100%, 84.309387%, 0%)" d="M 245.472656 40.5625 C 262.03125 40.621094 278.53125 40.742188 295.09375 40.863281 C 295.09375 40.863281 295.09375 40.863281 295.09375 40.921875 C 295.394531 42.183594 296.832031 43.082031 298.152344 42.78125 C 299.953125 42.363281 300.433594 40.203125 299.53125 38.761719 C 298.511719 37.019531 295.8125 37.261719 295.09375 39.0625 C 295.03125 39.179688 294.972656 39.300781 294.972656 39.480469 C 275.652344 39.359375 256.394531 39.242188 237.074219 39.179688 L 237.074219 40.5625 C 239.894531 40.5625 242.652344 40.5625 245.472656 40.5625 Z M 297.734375 38.878906 C 297.191406 38.941406 296.773438 39.121094 296.414062 39.359375 C 296.714844 38.941406 297.253906 38.761719 297.734375 38.878906 Z M 297.734375 38.878906 " fill-opacity="1" fill-rule="nonzero"/></g><path fill="rgb(100%, 84.309387%, 0%)" d="M 37.214844 109.53125 C 37.152344 93.082031 37.574219 76.578125 36.851562 60.191406 C 37.332031 60.128906 37.8125 59.949219 38.171875 59.589844 C 39.074219 58.6875 38.894531 57.070312 37.992188 56.226562 C 36.972656 55.269531 35.234375 55.507812 34.574219 56.769531 C 34.394531 57.128906 34.332031 57.488281 34.332031 57.847656 C 34.214844 58.449219 34.394531 59.109375 34.871094 59.53125 C 35.113281 59.769531 35.351562 59.949219 35.652344 60.070312 C 35.234375 74.597656 35.773438 89.183594 35.832031 103.769531 C 35.832031 110.371094 35.894531 116.972656 35.894531 123.578125 L 37.273438 123.578125 C 37.273438 118.894531 37.214844 114.214844 37.214844 109.53125 Z M 37.214844 109.53125 " fill-opacity="1" fill-rule="nonzero"/><g clip-path="url(#id9)"><path fill="rgb(100%, 84.309387%, 0%)" d="M 114.433594 39.242188 C 98.054688 39.300781 81.554688 38.878906 65.171875 39.660156 C 65.113281 39.179688 64.933594 38.699219 64.574219 38.339844 C 63.671875 37.441406 62.054688 37.621094 61.214844 38.519531 C 60.253906 39.539062 60.492188 41.28125 61.753906 41.941406 C 62.113281 42.121094 62.472656 42.183594 62.832031 42.183594 C 63.433594 42.300781 64.09375 42.121094 64.511719 41.640625 C 64.753906 41.402344 64.933594 41.160156 65.054688 40.863281 C 79.574219 41.28125 94.214844 40.742188 108.792969 40.679688 C 115.933594 40.679688 123.132812 40.621094 130.273438 40.621094 L 130.273438 39.179688 C 124.992188 39.179688 119.714844 39.242188 114.433594 39.242188 Z M 114.433594 39.242188 " fill-opacity="1" fill-rule="nonzero"/></g><g clip-path="url(#id10)"><path fill="rgb(100%, 84.309387%, 0%)" d="M 35.894531 240.566406 C 35.832031 257.132812 35.714844 273.640625 35.59375 290.207031 C 35.59375 290.207031 35.59375 290.207031 35.53125 290.207031 C 34.273438 290.507812 33.371094 291.949219 33.671875 293.269531 C 34.09375 295.070312 36.253906 295.550781 37.691406 294.652344 C 39.433594 293.628906 39.253906 290.988281 37.394531 290.207031 C 37.273438 290.148438 37.152344 290.089844 36.972656 290.089844 C 37.09375 270.21875 37.214844 250.292969 37.273438 230.421875 L 35.953125 230.421875 C 35.894531 233.785156 35.894531 237.207031 35.894531 240.566406 Z M 37.574219 292.851562 C 37.574219 292.371094 37.394531 291.949219 37.09375 291.527344 C 37.511719 291.828125 37.632812 292.371094 37.574219 292.851562 Z M 37.574219 292.851562 " fill-opacity="1" fill-rule="nonzero"/></g><path fill="rgb(100%, 84.309387%, 0%)" d="M 114.492188 312.957031 C 98.113281 313.019531 81.613281 312.597656 65.234375 313.378906 C 65.171875 312.898438 64.992188 312.417969 64.632812 312.058594 C 63.734375 311.15625 62.113281 311.335938 61.273438 312.238281 C 60.3125 313.257812 60.554688 315 61.8125 315.660156 C 62.171875 315.839844 62.53125 315.898438 62.894531 315.898438 C 63.492188 316.019531 64.152344 315.839844 64.574219 315.359375 C 64.8125 315.121094 64.992188 314.878906 65.113281 314.578125 C 79.632812 315 94.273438 314.460938 108.851562 314.398438 C 115.992188 314.398438 123.132812 314.339844 130.273438 314.339844 L 130.273438 312.898438 C 124.992188 312.898438 119.773438 312.957031 114.492188 312.957031 Z M 114.492188 312.957031 " fill-opacity="1" fill-rule="nonzero"/><g clip-path="url(#id11)"><path fill="rgb(100%, 84.309387%, 0%)" d="M 330.734375 230.421875 C 330.734375 233.84375 330.734375 237.265625 330.671875 240.6875 C 330.613281 257.253906 330.492188 273.761719 330.371094 290.328125 C 330.371094 290.328125 330.371094 290.328125 330.3125 290.328125 C 329.054688 290.628906 328.152344 292.070312 328.453125 293.390625 C 328.871094 295.191406 331.03125 295.671875 332.472656 294.769531 C 334.214844 293.628906 333.972656 290.988281 332.171875 290.207031 C 332.054688 290.148438 331.933594 290.089844 331.753906 290.089844 C 331.871094 270.21875 331.992188 250.292969 332.054688 230.421875 Z M 332.292969 292.851562 C 332.292969 292.371094 332.113281 291.949219 331.8125 291.527344 C 332.292969 291.828125 332.414062 292.371094 332.292969 292.851562 Z M 332.292969 292.851562 " fill-opacity="1" fill-rule="nonzero"/></g><g clip-path="url(#id12)"><path fill="rgb(100%, 84.309387%, 0%)" d="M 245.59375 314.277344 C 262.152344 314.339844 278.652344 314.460938 295.214844 314.578125 C 295.214844 314.578125 295.214844 314.578125 295.214844 314.640625 C 295.511719 315.898438 296.953125 316.800781 298.273438 316.5 C 300.074219 316.078125 300.554688 313.917969 299.652344 312.476562 C 298.511719 310.675781 295.8125 310.917969 295.09375 312.777344 C 295.03125 312.898438 294.972656 313.019531 294.972656 313.199219 C 275.652344 313.078125 256.394531 312.957031 237.074219 312.898438 L 237.074219 314.277344 C 239.894531 314.277344 242.773438 314.277344 245.59375 314.277344 Z M 297.734375 312.539062 C 297.191406 312.597656 296.773438 312.777344 296.414062 313.019531 C 296.714844 312.597656 297.253906 312.417969 297.734375 312.539062 Z M 297.734375 312.539062 " fill-opacity="1" fill-rule="nonzero"/></g><path fill="rgb(100%, 84.309387%, 0%)" d="M 237.074219 40.5625 L 237.074219 39.179688 C 201.492188 39.0625 165.851562 39.0625 130.273438 39.179688 L 130.273438 40.621094 C 138.433594 40.5625 146.59375 40.5625 154.753906 40.5 C 182.113281 40.382812 209.59375 40.441406 237.074219 40.5625 Z M 237.074219 40.5625 " fill-opacity="1" fill-rule="nonzero"/><path fill="rgb(100%, 84.309387%, 0%)" d="M 130.273438 312.898438 L 130.273438 314.339844 C 138.433594 314.277344 146.652344 314.277344 154.8125 314.21875 C 182.234375 314.160156 209.652344 314.160156 237.074219 314.277344 L 237.074219 312.898438 C 201.433594 312.777344 165.851562 312.777344 130.273438 312.898438 Z M 130.273438 312.898438 " fill-opacity="1" fill-rule="nonzero"/><path fill="rgb(100%, 84.309387%, 0%)" d="M 37.273438 123.578125 L 35.894531 123.578125 C 35.953125 132.28125 35.953125 141.042969 36.011719 149.75 C 36.074219 176.640625 36.011719 203.53125 35.953125 230.421875 L 37.273438 230.421875 C 37.394531 194.769531 37.394531 159.171875 37.273438 123.578125 Z M 37.273438 123.578125 " fill-opacity="1" fill-rule="nonzero"/><path fill="rgb(100%, 84.309387%, 0%)" d="M 332.054688 123.578125 L 330.613281 123.578125 C 330.671875 132.339844 330.671875 141.105469 330.734375 149.867188 C 330.792969 176.699219 330.792969 203.589844 330.734375 230.421875 L 332.113281 230.421875 C 332.171875 194.769531 332.171875 159.171875 332.054688 123.578125 Z M 332.054688 123.578125 " fill-opacity="1" fill-rule="nonzero"/></svg>