<svg xmlns="http://www.w3.org/2000/svg" xmlns:xlink="http://www.w3.org/1999/xlink" width="500" zoomAndPan="magnify" viewBox="0 0 375 374.999991" height="500" preserveAspectRatio="xMidYMid meet" version="1.0"><defs><clipPath id="id1"><path d="M 153.320312 236 L 190.429688 236 L 190.429688 298.488281 L 153.320312 298.488281 Z M 153.320312 236 " clip-rule="nonzero"/></clipPath><clipPath id="id2"><path d="M 161 76.488281 L 190 76.488281 L 190 139 L 161 139 Z M 161 76.488281 " clip-rule="nonzero"/></clipPath><clipPath id="id3"><path d="M 238 172.691406 L 301.628906 172.691406 L 301.628906 205 L 238 205 Z M 238 172.691406 " clip-rule="nonzero"/></clipPath></defs><path fill="rgb(100%, 84.309387%, 0%)" d="M 102.222656 117.074219 C 102.351562 118.390625 102.554688 119.605469 102.839844 120.75 C 104.023438 125.53125 106.800781 129.195312 110.457031 130.804688 C 111.546875 131.285156 112.785156 131.621094 113.984375 131.941406 C 116.320312 132.574219 118.738281 133.230469 120.421875 135.003906 C 122.65625 137.359375 122.773438 140.710938 122.886719 143.957031 C 122.914062 144.699219 122.941406 145.460938 122.996094 146.183594 C 123.386719 151.46875 125.597656 156.484375 129.230469 160.304688 C 130.269531 161.40625 131.417969 162.398438 132.640625 163.246094 C 133.828125 164.082031 135.078125 164.761719 136.367188 165.28125 C 137.042969 163.753906 137.785156 162.246094 138.582031 160.808594 C 140.84375 156.707031 143.648438 152.898438 146.914062 149.488281 C 147.363281 149.023438 147.789062 148.59375 148.203125 148.191406 C 146.519531 147.601562 145.050781 146.914062 143.746094 146.105469 C 141.742188 144.867188 140.136719 143.324219 138.964844 141.527344 C 137.417969 139.144531 136.605469 136.257812 135.824219 133.46875 C 134.613281 129.164062 133.472656 125.09375 129.816406 123.222656 C 127.03125 121.796875 123.6875 122.148438 120.144531 122.523438 C 118 122.75 115.785156 122.980469 113.660156 122.800781 C 109.515625 122.445312 105.671875 120.523438 102.222656 117.074219 Z M 136.742188 166.867188 C 136.664062 166.867188 136.582031 166.855469 136.507812 166.824219 C 134.886719 166.242188 133.320312 165.421875 131.84375 164.390625 C 130.542969 163.484375 129.324219 162.433594 128.222656 161.265625 C 124.367188 157.210938 122.019531 151.890625 121.605469 146.289062 C 121.554688 145.539062 121.523438 144.757812 121.5 144.007812 C 121.394531 141.019531 121.285156 137.9375 119.414062 135.964844 C 117.996094 134.472656 115.871094 133.898438 113.621094 133.289062 C 112.375 132.953125 111.082031 132.601562 109.898438 132.082031 C 105.84375 130.296875 102.777344 126.289062 101.492188 121.085938 C 101.046875 119.304688 100.789062 117.378906 100.695312 115.191406 C 100.683594 114.894531 100.859375 114.621094 101.132812 114.511719 C 101.410156 114.402344 101.722656 114.480469 101.914062 114.703125 C 105.460938 118.785156 109.453125 121.042969 113.78125 121.410156 C 115.773438 121.582031 117.921875 121.355469 120 121.136719 C 123.585938 120.757812 127.296875 120.367188 130.449219 121.984375 C 134.644531 124.132812 135.925781 128.6875 137.164062 133.09375 C 137.917969 135.78125 138.699219 138.5625 140.132812 140.765625 C 141.203125 142.414062 142.625 143.773438 144.476562 144.921875 C 145.964844 145.839844 147.683594 146.59375 149.730469 147.226562 C 149.96875 147.300781 150.148438 147.492188 150.203125 147.734375 C 150.261719 147.976562 150.183594 148.230469 150 148.402344 C 149.339844 149.015625 148.660156 149.6875 147.914062 150.457031 C 144.734375 153.777344 142.003906 157.484375 139.800781 161.480469 C 138.917969 163.074219 138.105469 164.746094 137.382812 166.441406 C 137.269531 166.707031 137.011719 166.867188 136.742188 166.867188 " fill-opacity="1" fill-rule="nonzero"/><path fill="rgb(100%, 84.309387%, 0%)" d="M 144.628906 145.011719 C 145.984375 145.835938 147.535156 146.519531 149.351562 147.105469 C 153.742188 143.0625 158.710938 139.808594 164.132812 137.417969 C 163.933594 137.03125 163.738281 136.632812 163.5625 136.222656 C 161.234375 134.007812 159.742188 131.640625 159 128.980469 C 158.238281 126.246094 158.328125 123.253906 158.417969 120.359375 C 158.554688 115.882812 158.683594 111.660156 155.75 108.773438 C 153.519531 106.578125 150.21875 105.910156 146.726562 105.203125 C 144.617188 104.773438 142.4375 104.332031 140.464844 103.523438 C 136.625 101.945312 133.535156 98.957031 131.269531 94.628906 C 131 95.925781 130.832031 97.144531 130.761719 98.316406 C 130.457031 103.230469 132.007812 107.5625 135.011719 110.195312 C 135.910156 110.980469 136.992188 111.671875 138.035156 112.339844 C 140.078125 113.644531 142.1875 114.996094 143.261719 117.195312 C 144.6875 120.109375 143.796875 123.34375 142.9375 126.472656 C 142.742188 127.1875 142.539062 127.925781 142.371094 128.632812 C 141.082031 134.140625 141.90625 140.097656 144.628906 145.011719 Z M 149.527344 148.585938 C 149.457031 148.585938 149.390625 148.578125 149.320312 148.558594 C 147.15625 147.890625 145.332031 147.089844 143.746094 146.105469 C 143.648438 146.042969 143.566406 145.957031 143.507812 145.855469 C 140.496094 140.53125 139.613281 134.304688 141.019531 128.316406 C 141.191406 127.582031 141.398438 126.832031 141.597656 126.101562 C 142.390625 123.226562 143.207031 120.246094 142.011719 117.808594 C 141.109375 115.957031 139.253906 114.769531 137.289062 113.515625 C 136.199219 112.820312 135.070312 112.097656 134.09375 111.242188 C 130.761719 108.324219 129.042969 103.582031 129.371094 98.230469 C 129.480469 96.414062 129.808594 94.5 130.375 92.378906 C 130.449219 92.089844 130.699219 91.882812 130.992188 91.859375 C 131.285156 91.835938 131.5625 92.003906 131.683594 92.277344 C 133.851562 97.234375 136.984375 100.585938 140.996094 102.234375 C 142.84375 102.992188 144.957031 103.421875 147.003906 103.835938 C 150.542969 104.550781 154.203125 105.292969 156.726562 107.78125 C 160.09375 111.089844 159.945312 115.824219 159.808594 120.398438 C 159.722656 123.191406 159.636719 126.074219 160.34375 128.609375 C 161.023438 131.050781 162.421875 133.242188 164.617188 135.304688 C 164.6875 135.371094 164.746094 135.449219 164.785156 135.539062 C 165.0625 136.191406 165.375 136.820312 165.710938 137.40625 C 165.8125 137.582031 165.832031 137.789062 165.765625 137.976562 C 165.703125 138.167969 165.5625 138.320312 165.378906 138.398438 C 159.710938 140.800781 154.535156 144.167969 150 148.402344 C 149.871094 148.523438 149.699219 148.585938 149.527344 148.585938 " fill-opacity="1" fill-rule="nonzero"/><path fill="rgb(100%, 84.309387%, 0%)" d="M 190.207031 246.203125 C 191.03125 248.324219 191.386719 250.457031 191.257812 252.550781 C 191.085938 255.386719 190.023438 258.183594 188.996094 260.890625 C 187.410156 265.078125 185.910156 269.03125 187.738281 272.71875 C 189.128906 275.519531 192.023438 277.226562 195.09375 279.039062 C 196.953125 280.132812 198.871094 281.265625 200.46875 282.679688 C 203.585938 285.429688 205.53125 289.261719 206.261719 294.09375 C 206.9375 292.960938 207.492188 291.863281 207.941406 290.773438 C 209.832031 286.226562 209.78125 281.628906 207.800781 278.15625 C 207.210938 277.121094 206.410156 276.109375 205.640625 275.136719 C 204.136719 273.238281 202.585938 271.273438 202.289062 268.84375 C 201.890625 265.621094 203.785156 262.855469 205.621094 260.179688 C 206.039062 259.566406 206.472656 258.933594 206.863281 258.320312 C 209.445312 254.222656 210.683594 249.320312 210.363281 244.488281 C 208.566406 242.394531 205.976562 240.453125 202.46875 238.566406 C 198.367188 239.886719 194.113281 240.707031 189.800781 241.011719 C 190.160156 242.660156 190.296875 244.402344 190.207031 246.203125 Z M 205.796875 296.824219 C 205.738281 296.824219 205.679688 296.820312 205.621094 296.800781 C 205.335938 296.726562 205.128906 296.480469 205.105469 296.183594 C 204.671875 290.785156 202.800781 286.59375 199.550781 283.722656 C 198.050781 282.398438 196.1875 281.300781 194.386719 280.238281 C 191.28125 278.40625 188.0625 276.507812 186.492188 273.335938 C 184.394531 269.101562 186.074219 264.675781 187.695312 260.394531 C 188.6875 257.785156 189.710938 255.089844 189.871094 252.464844 C 189.984375 250.53125 189.644531 248.550781 188.855469 246.574219 C 188.816406 246.480469 188.800781 246.378906 188.808594 246.277344 C 188.925781 244.269531 188.738281 242.339844 188.253906 240.546875 C 188.203125 240.34375 188.242188 240.128906 188.363281 239.957031 C 188.484375 239.785156 188.679688 239.679688 188.890625 239.671875 C 193.46875 239.421875 197.984375 238.574219 202.316406 237.148438 C 202.496094 237.089844 202.691406 237.105469 202.859375 237.195312 C 206.8125 239.292969 209.582031 241.378906 211.574219 243.765625 C 211.667969 243.875 211.722656 244.011719 211.734375 244.15625 C 212.132812 249.355469 210.820312 254.648438 208.039062 259.0625 C 207.636719 259.703125 207.195312 260.34375 206.769531 260.964844 C 205.082031 263.429688 203.335938 265.976562 203.667969 268.671875 C 203.917969 270.714844 205.285156 272.441406 206.730469 274.269531 C 207.535156 275.289062 208.367188 276.335938 209.007812 277.464844 C 211.203125 281.316406 211.285156 286.363281 209.226562 291.308594 C 208.527344 293.003906 207.59375 294.703125 206.375 296.519531 C 206.242188 296.714844 206.027344 296.824219 205.796875 296.824219 " fill-opacity="1" fill-rule="nonzero"/><path fill="rgb(100%, 84.309387%, 0%)" d="M 244.679688 152.632812 L 244.683594 152.632812 Z M 232.75 159.886719 C 233.988281 162.023438 235.085938 164.269531 236.019531 166.558594 C 237.25 169.574219 238.207031 172.722656 238.867188 175.910156 C 239.234375 177.671875 239.515625 179.476562 239.703125 181.289062 C 242.132812 178.210938 245.265625 174.824219 249.085938 172.890625 C 250.867188 171.988281 252.71875 171.457031 254.59375 171.308594 C 257.417969 171.089844 260.335938 171.757812 263.15625 172.402344 C 267.515625 173.398438 271.628906 174.34375 275.023438 172.019531 C 277.605469 170.253906 278.898438 167.140625 280.265625 163.84375 C 281.089844 161.855469 281.945312 159.796875 283.121094 158.019531 C 285.414062 154.546875 288.9375 152.089844 293.609375 150.699219 C 292.394531 150.1875 291.238281 149.789062 290.097656 149.488281 C 285.339844 148.238281 280.796875 148.925781 277.636719 151.371094 C 276.695312 152.097656 275.808594 153.027344 274.949219 153.925781 C 273.277344 155.679688 271.546875 157.492188 269.183594 158.125 C 266.050781 158.960938 263.050781 157.460938 260.148438 156.007812 C 259.488281 155.679688 258.804688 155.339844 258.144531 155.039062 C 253.957031 153.140625 249.339844 152.546875 244.796875 153.320312 C 242.621094 153.6875 240.527344 154.371094 238.570312 155.351562 C 236.257812 156.511719 234.253906 158.074219 232.75 159.886719 Z M 239.164062 183.828125 C 239.097656 183.828125 239.03125 183.816406 238.964844 183.796875 C 238.6875 183.714844 238.488281 183.46875 238.46875 183.179688 C 238.304688 180.828125 237.980469 178.480469 237.503906 176.191406 C 236.863281 173.089844 235.929688 170.023438 234.730469 167.082031 C 233.765625 164.707031 232.613281 162.382812 231.308594 160.179688 C 231.164062 159.933594 231.183594 159.621094 231.359375 159.398438 C 233.019531 157.261719 235.296875 155.433594 237.949219 154.105469 C 240.027344 153.0625 242.253906 152.339844 244.5625 151.945312 C 249.382812 151.121094 254.277344 151.753906 258.71875 153.769531 C 259.402344 154.078125 260.097656 154.425781 260.773438 154.761719 C 263.441406 156.097656 266.207031 157.480469 268.824219 156.777344 C 270.808594 156.246094 272.332031 154.652344 273.941406 152.960938 C 274.835938 152.027344 275.761719 151.0625 276.785156 150.265625 C 280.292969 147.558594 285.273438 146.78125 290.449219 148.140625 C 292.21875 148.605469 294.03125 149.296875 295.992188 150.257812 C 296.257812 150.386719 296.410156 150.671875 296.378906 150.964844 C 296.34375 151.257812 296.125 151.5 295.835938 151.5625 C 290.5625 152.730469 286.675781 155.164062 284.28125 158.789062 C 283.179688 160.457031 282.351562 162.453125 281.550781 164.378906 C 280.164062 167.722656 278.730469 171.175781 275.808594 173.167969 C 271.910156 175.835938 267.300781 174.78125 262.84375 173.761719 C 260.128906 173.140625 257.316406 172.496094 254.703125 172.699219 C 253.007812 172.832031 251.332031 173.3125 249.714844 174.136719 C 245.546875 176.242188 242.183594 180.273438 239.71875 183.550781 C 239.585938 183.726562 239.378906 183.828125 239.164062 183.828125 " fill-opacity="1" fill-rule="nonzero"/><path fill="rgb(100%, 84.309387%, 0%)" d="M 242.367188 214.644531 C 244.691406 215.046875 246.761719 215.878906 248.515625 217.117188 C 250.835938 218.753906 252.65625 221.125 254.417969 223.421875 C 257.140625 226.96875 259.714844 230.324219 263.808594 230.699219 C 266.921875 230.988281 269.898438 229.414062 273.046875 227.746094 C 274.953125 226.742188 276.921875 225.703125 278.957031 225.078125 C 282.933594 223.867188 287.214844 224.222656 291.707031 226.140625 C 291.09375 224.964844 290.453125 223.914062 289.765625 222.957031 C 286.890625 218.960938 282.953125 216.59375 278.964844 216.457031 C 277.769531 216.417969 276.496094 216.566406 275.265625 216.710938 C 272.859375 216.996094 270.371094 217.289062 268.148438 216.269531 C 265.203125 214.914062 263.847656 211.84375 262.535156 208.875 C 262.234375 208.195312 261.925781 207.496094 261.605469 206.84375 C 259.152344 201.816406 254.972656 197.867188 249.835938 195.730469 C 248.6875 195.25 247.503906 194.871094 246.324219 194.597656 C 244.011719 194.058594 241.671875 193.949219 239.519531 194.28125 C 239.273438 196.109375 238.933594 197.929688 238.503906 199.695312 C 237.476562 203.980469 235.925781 208.128906 233.890625 212.027344 C 233.367188 213.03125 232.808594 214.027344 232.21875 215.003906 C 236.246094 214.257812 239.503906 214.148438 242.367188 214.644531 Z M 264.539062 232.128906 C 264.257812 232.128906 263.96875 232.117188 263.679688 232.089844 C 258.980469 231.65625 256.097656 227.902344 253.3125 224.269531 C 251.617188 222.054688 249.863281 219.769531 247.714844 218.257812 C 246.128906 217.136719 244.25 216.382812 242.132812 216.019531 C 242.128906 216.019531 242.128906 216.015625 242.128906 216.015625 C 239.078125 215.488281 235.515625 215.699219 230.917969 216.6875 C 230.644531 216.746094 230.359375 216.632812 230.199219 216.402344 C 230.039062 216.167969 230.035156 215.863281 230.1875 215.625 C 231.078125 214.257812 231.90625 212.828125 232.65625 211.382812 C 234.640625 207.585938 236.152344 203.542969 237.152344 199.367188 C 237.609375 197.484375 237.960938 195.542969 238.203125 193.59375 C 238.242188 193.292969 238.46875 193.050781 238.765625 192.996094 C 241.238281 192.53125 243.960938 192.613281 246.636719 193.238281 C 247.894531 193.53125 249.148438 193.9375 250.371094 194.445312 C 255.816406 196.710938 260.253906 200.898438 262.855469 206.230469 C 263.1875 206.910156 263.503906 207.621094 263.804688 208.308594 C 265.011719 211.042969 266.261719 213.867188 268.730469 215 C 270.597656 215.859375 272.785156 215.601562 275.101562 215.328125 C 276.386719 215.175781 277.714844 215.019531 279.011719 215.0625 C 283.4375 215.214844 287.765625 217.792969 290.894531 222.144531 C 291.960938 223.628906 292.921875 225.320312 293.824219 227.316406 C 293.945312 227.585938 293.886719 227.90625 293.671875 228.109375 C 293.457031 228.3125 293.136719 228.359375 292.875 228.222656 C 288.054688 225.757812 283.507812 225.148438 279.363281 226.414062 C 277.453125 226.996094 275.542969 228.003906 273.699219 228.980469 C 270.765625 230.53125 267.742188 232.128906 264.539062 232.128906 " fill-opacity="1" fill-rule="nonzero"/><path fill="rgb(100%, 84.309387%, 0%)" d="M 80.890625 225.316406 C 82.136719 225.738281 83.324219 226.050781 84.488281 226.265625 C 89.328125 227.152344 93.804688 226.128906 96.773438 223.460938 C 97.660156 222.660156 98.476562 221.667969 99.265625 220.707031 C 100.800781 218.835938 102.394531 216.898438 104.699219 216.09375 C 107.765625 215.023438 110.867188 216.296875 113.867188 217.527344 C 114.550781 217.808594 115.257812 218.097656 115.9375 218.347656 C 122.351562 220.699219 129.640625 220.039062 135.433594 216.578125 C 135.824219 216.34375 136.207031 216.097656 136.574219 215.84375 C 137.09375 214.746094 137.582031 213.558594 138.066406 212.230469 C 135.992188 208.292969 134.414062 204.121094 133.375 199.816406 C 132.167969 200.234375 130.90625 200.542969 129.621094 200.730469 C 127.171875 201.089844 124.679688 201.058594 122.21875 200.640625 C 120.945312 201.242188 119.621094 201.652344 118.273438 201.855469 C 115.46875 202.285156 112.511719 201.839844 109.65625 201.40625 C 105.234375 200.734375 101.058594 200.101562 97.847656 202.667969 C 95.410156 204.625 94.351562 207.820312 93.230469 211.207031 C 92.554688 213.253906 91.855469 215.371094 90.816406 217.234375 C 88.785156 220.871094 85.449219 223.585938 80.890625 225.316406 Z M 87.835938 227.96875 C 86.664062 227.96875 85.460938 227.859375 84.238281 227.636719 C 82.429688 227.304688 80.566406 226.746094 78.550781 225.933594 C 78.277344 225.824219 78.101562 225.550781 78.113281 225.253906 C 78.128906 224.960938 78.328125 224.707031 78.609375 224.621094 C 83.785156 223.0625 87.484375 220.347656 89.597656 216.554688 C 90.574219 214.808594 91.253906 212.753906 91.910156 210.769531 C 93.046875 207.339844 94.21875 203.792969 96.980469 201.582031 C 100.667969 198.632812 105.339844 199.339844 109.863281 200.027344 C 112.621094 200.445312 115.46875 200.875 118.0625 200.480469 C 119.34375 200.285156 120.601562 199.882812 121.808594 199.289062 C 121.941406 199.222656 122.09375 199.203125 122.238281 199.230469 C 124.628906 199.65625 127.042969 199.699219 129.417969 199.351562 C 130.871094 199.136719 132.285156 198.765625 133.621094 198.242188 C 133.8125 198.167969 134.023438 198.179688 134.203125 198.277344 C 134.382812 198.371094 134.507812 198.542969 134.554688 198.738281 C 135.582031 203.296875 137.226562 207.703125 139.4375 211.84375 C 139.53125 212.019531 139.546875 212.222656 139.480469 212.40625 C 138.925781 213.972656 138.355469 215.347656 137.75 216.613281 C 137.699219 216.722656 137.621094 216.8125 137.523438 216.882812 C 137.082031 217.191406 136.621094 217.492188 136.148438 217.773438 C 129.996094 221.449219 122.261719 222.152344 115.457031 219.65625 C 114.753906 219.398438 114.035156 219.101562 113.339844 218.816406 C 110.578125 217.683594 107.726562 216.511719 105.15625 217.40625 C 103.21875 218.085938 101.820312 219.789062 100.339844 221.59375 C 99.519531 222.589844 98.667969 223.625 97.703125 224.496094 C 95.179688 226.765625 91.699219 227.96875 87.835938 227.96875 " fill-opacity="1" fill-rule="nonzero"/><path fill="rgb(100%, 84.309387%, 0%)" d="M 203.3125 135.703125 C 204.855469 136.222656 206.402344 136.828125 207.925781 137.507812 C 212.726562 139.652344 217.1875 142.484375 221.183594 145.925781 C 221.4375 146.148438 221.691406 146.371094 221.941406 146.59375 C 222.074219 145.132812 222.300781 143.777344 222.617188 142.535156 C 223.378906 139.554688 224.660156 137.175781 226.535156 135.269531 C 228.523438 133.242188 231.160156 131.828125 233.707031 130.457031 C 237.644531 128.34375 241.363281 126.347656 242.402344 122.367188 C 243.1875 119.335938 242.121094 116.140625 240.988281 112.757812 C 240.308594 110.710938 239.601562 108.597656 239.316406 106.480469 C 238.769531 102.355469 239.8125 98.1875 242.421875 94.0625 C 241.160156 94.480469 240.019531 94.941406 238.976562 95.460938 C 234.570312 97.65625 231.601562 101.160156 230.824219 105.074219 C 230.589844 106.25 230.53125 107.53125 230.476562 108.777344 C 230.363281 111.195312 230.25 113.699219 228.882812 115.730469 C 227.070312 118.421875 223.832031 119.261719 220.699219 120.078125 C 219.976562 120.265625 219.234375 120.457031 218.539062 120.667969 C 213.957031 122.042969 209.832031 124.890625 206.925781 128.6875 C 205.726562 130.25 204.738281 131.964844 203.988281 133.785156 C 203.726562 134.417969 203.5 135.0625 203.3125 135.703125 Z M 222.535156 148.785156 C 222.359375 148.785156 222.1875 148.714844 222.058594 148.59375 C 221.492188 148.058594 220.890625 147.515625 220.277344 146.984375 C 216.382812 143.628906 212.035156 140.871094 207.363281 138.78125 C 205.675781 138.03125 203.953125 137.371094 202.253906 136.820312 C 201.902344 136.707031 201.703125 136.339844 201.792969 135.984375 C 202.027344 135.074219 202.332031 134.15625 202.699219 133.253906 C 203.5 131.320312 204.550781 129.5 205.820312 127.839844 C 208.90625 123.8125 213.28125 120.792969 218.136719 119.332031 C 218.859375 119.117188 219.617188 118.917969 220.347656 118.726562 C 223.230469 117.980469 226.214844 117.203125 227.726562 114.953125 C 228.878906 113.246094 228.976562 111.042969 229.085938 108.710938 C 229.144531 107.417969 229.207031 106.078125 229.460938 104.804688 C 230.320312 100.460938 233.5625 96.601562 238.355469 94.214844 C 239.972656 93.410156 241.796875 92.738281 243.925781 92.15625 C 244.214844 92.078125 244.515625 92.191406 244.683594 92.4375 C 244.851562 92.683594 244.84375 93.003906 244.667969 93.242188 C 241.460938 97.601562 240.125 101.992188 240.699219 106.296875 C 240.960938 108.28125 241.648438 110.332031 242.308594 112.3125 C 243.453125 115.742188 244.636719 119.285156 243.746094 122.71875 C 242.558594 127.289062 238.394531 129.523438 234.363281 131.6875 C 231.90625 133.007812 229.367188 134.371094 227.523438 136.246094 C 225.828125 137.972656 224.664062 140.144531 223.964844 142.878906 C 223.566406 144.433594 223.320312 146.199219 223.230469 148.121094 C 223.214844 148.390625 223.046875 148.632812 222.792969 148.734375 C 222.710938 148.765625 222.621094 148.785156 222.535156 148.785156 " fill-opacity="1" fill-rule="nonzero"/><path fill="rgb(100%, 84.309387%, 0%)" d="M 149.308594 237.734375 C 148.617188 238.851562 147.785156 239.863281 146.835938 240.734375 C 144.746094 242.652344 142.039062 243.925781 139.421875 245.15625 C 135.375 247.0625 131.554688 248.863281 130.3125 252.785156 C 129.367188 255.765625 130.265625 259.011719 131.214844 262.445312 C 131.789062 264.527344 132.382812 266.675781 132.550781 268.804688 C 132.886719 272.957031 131.621094 277.066406 128.796875 281.046875 C 130.074219 280.703125 131.234375 280.300781 132.308594 279.835938 C 136.824219 277.878906 139.976562 274.53125 140.960938 270.65625 C 141.253906 269.5 141.382812 268.222656 141.503906 266.984375 C 141.742188 264.570312 141.988281 262.074219 143.460938 260.121094 C 145.414062 257.53125 148.699219 256.859375 151.875 256.210938 C 152.597656 256.0625 153.347656 255.910156 154.050781 255.738281 C 159.105469 254.507812 163.628906 251.5625 166.796875 247.445312 C 167.28125 244.601562 166.96875 241.277344 165.851562 237.296875 C 161.792969 235.671875 157.933594 233.550781 154.371094 230.980469 C 153.488281 232.929688 152.207031 234.808594 150.625 236.457031 C 150.179688 236.921875 149.75 237.34375 149.308594 237.734375 Z M 127.050781 282.878906 C 126.8125 282.878906 126.585938 282.757812 126.457031 282.542969 C 126.304688 282.292969 126.324219 281.96875 126.515625 281.738281 C 129.949219 277.5625 131.511719 273.246094 131.164062 268.917969 C 131.007812 266.921875 130.429688 264.835938 129.875 262.820312 C 128.910156 259.335938 127.917969 255.738281 128.984375 252.363281 C 130.410156 247.859375 134.691406 245.84375 138.832031 243.898438 C 141.351562 242.710938 143.960938 241.484375 145.898438 239.707031 C 146.777344 238.902344 147.542969 237.964844 148.175781 236.917969 C 148.210938 236.859375 148.257812 236.804688 148.3125 236.757812 C 148.746094 236.375 149.175781 235.957031 149.621094 235.492188 C 151.296875 233.746094 152.613281 231.722656 153.425781 229.648438 C 153.503906 229.445312 153.671875 229.289062 153.878906 229.230469 C 154.089844 229.171875 154.3125 229.210938 154.488281 229.339844 C 158.242188 232.140625 162.34375 234.425781 166.679688 236.125 C 166.878906 236.203125 167.035156 236.375 167.09375 236.582031 C 168.371094 240.996094 168.714844 244.6875 168.140625 247.859375 C 168.121094 247.964844 168.074219 248.066406 168.007812 248.152344 C 164.640625 252.597656 159.800781 255.769531 154.378906 257.09375 C 153.652344 257.269531 152.890625 257.425781 152.152344 257.578125 C 149.230469 258.171875 146.207031 258.789062 144.570312 260.960938 C 143.335938 262.601562 143.117188 264.796875 142.890625 267.121094 C 142.761719 268.410156 142.628906 269.742188 142.3125 271 C 141.21875 275.296875 137.777344 278.984375 132.863281 281.113281 C 131.191406 281.835938 129.335938 282.410156 127.195312 282.863281 C 127.148438 282.875 127.097656 282.878906 127.050781 282.878906 " fill-opacity="1" fill-rule="nonzero"/><path fill="rgb(100%, 84.309387%, 0%)" d="M 211.574219 243.765625 C 212.960938 245.425781 213.949219 247.242188 214.503906 249.15625 C 215.296875 251.882812 215.238281 254.875 215.1875 257.765625 C 215.101562 262.242188 215.019531 266.472656 217.984375 269.324219 C 220.238281 271.492188 223.546875 272.125 227.046875 272.792969 C 229.160156 273.195312 231.347656 273.613281 233.324219 274.398438 C 237.1875 275.9375 240.3125 278.886719 242.632812 283.1875 C 242.886719 281.886719 243.039062 280.667969 243.09375 279.496094 C 243.339844 274.574219 241.738281 270.261719 238.707031 267.664062 C 237.800781 266.890625 236.710938 266.210938 235.660156 265.554688 C 233.601562 264.273438 231.476562 262.949219 230.375 260.761719 C 228.914062 257.859375 229.769531 254.613281 230.59375 251.472656 C 230.78125 250.757812 230.976562 250.019531 231.132812 249.308594 C 232.328125 243.953125 231.570312 238.347656 229 233.519531 C 228.988281 233.5 228.976562 233.480469 228.960938 233.457031 C 228.34375 232.296875 227.621094 231.195312 226.820312 230.1875 C 225.691406 228.753906 224.355469 227.480469 222.941406 226.480469 C 221.054688 228.257812 219.027344 229.90625 216.914062 231.382812 C 214.363281 233.175781 211.632812 234.753906 208.804688 236.074219 C 207.3125 236.773438 205.785156 237.40625 204.25 237.960938 C 207.476562 239.804688 209.824219 241.671875 211.574219 243.765625 Z M 242.878906 285.957031 C 242.609375 285.957031 242.359375 285.796875 242.246094 285.546875 C 240.015625 280.609375 236.839844 277.296875 232.8125 275.695312 C 230.957031 274.957031 228.835938 274.550781 226.785156 274.160156 C 223.238281 273.484375 219.574219 272.785156 217.019531 270.328125 C 213.617188 267.054688 213.707031 262.320312 213.792969 257.742188 C 213.847656 254.953125 213.902344 252.066406 213.167969 249.542969 C 212.660156 247.789062 211.789062 246.195312 210.507812 244.660156 C 208.660156 242.449219 205.945312 240.410156 202.207031 238.425781 C 201.960938 238.296875 201.816406 238.027344 201.839844 237.75 C 201.863281 237.472656 202.050781 237.234375 202.320312 237.148438 C 204.304688 236.503906 206.289062 235.71875 208.214844 234.8125 C 210.972656 233.527344 213.628906 231.988281 216.113281 230.242188 C 218.324219 228.695312 220.4375 226.960938 222.386719 225.085938 C 222.621094 224.859375 222.980469 224.828125 223.25 225.007812 C 224.957031 226.128906 226.570312 227.621094 227.914062 229.324219 C 228.75 230.375 229.503906 231.523438 230.15625 232.734375 C 230.167969 232.753906 230.179688 232.777344 230.195312 232.796875 C 232.949219 237.9375 233.765625 243.910156 232.488281 249.613281 C 232.328125 250.347656 232.128906 251.097656 231.9375 251.828125 C 231.179688 254.71875 230.394531 257.703125 231.617188 260.132812 C 232.542969 261.972656 234.414062 263.136719 236.394531 264.371094 C 237.492188 265.054688 238.625 265.765625 239.609375 266.605469 C 242.972656 269.488281 244.75 274.210938 244.484375 279.5625 C 244.398438 281.382812 244.09375 283.300781 243.554688 285.429688 C 243.480469 285.714844 243.234375 285.925781 242.941406 285.953125 C 242.917969 285.953125 242.898438 285.957031 242.878906 285.957031 " fill-opacity="1" fill-rule="nonzero"/><g clip-path="url(#id1)"><path fill="rgb(100%, 84.309387%, 0%)" d="M 168.140625 247.859375 C 167.859375 249.398438 167.363281 250.835938 166.660156 252.136719 C 165.3125 254.632812 163.175781 256.726562 161.109375 258.75 C 157.914062 261.878906 154.894531 264.832031 155.003906 268.949219 C 155.089844 272.078125 157.007812 274.851562 159.035156 277.792969 C 160.257812 279.5625 161.523438 281.398438 162.378906 283.347656 C 164.058594 287.15625 164.210938 291.457031 162.847656 296.144531 C 163.9375 295.398438 164.902344 294.640625 165.769531 293.839844 C 169.394531 290.507812 171.273438 286.3125 170.929688 282.332031 C 170.828125 281.140625 170.527344 279.890625 170.238281 278.683594 C 169.671875 276.324219 169.085938 273.886719 169.835938 271.554688 C 170.828125 268.460938 173.714844 266.746094 176.503906 265.089844 C 177.140625 264.710938 177.792969 264.324219 178.402344 263.929688 C 184.136719 260.21875 187.996094 253.996094 188.726562 247.277344 C 188.761719 246.945312 188.789062 246.613281 188.808594 246.28125 C 188.914062 244.472656 188.773438 242.730469 188.394531 241.09375 C 187.628906 241.132812 186.835938 241.152344 186.03125 241.152344 L 185.925781 241.152344 C 180.972656 241.152344 176.070312 240.480469 171.355469 239.160156 C 170.058594 238.800781 168.753906 238.382812 167.457031 237.910156 C 168.433594 241.746094 168.65625 245.007812 168.140625 247.859375 Z M 161.574219 298.488281 C 161.414062 298.488281 161.257812 298.433594 161.128906 298.328125 C 160.902344 298.140625 160.816406 297.828125 160.921875 297.550781 C 162.792969 292.472656 162.855469 287.882812 161.105469 283.910156 C 160.300781 282.078125 159.074219 280.300781 157.890625 278.582031 C 155.835938 275.605469 153.710938 272.527344 153.613281 268.988281 C 153.484375 264.261719 156.867188 260.953125 160.136719 257.753906 C 162.128906 255.804688 164.191406 253.785156 165.4375 251.472656 C 166.070312 250.300781 166.515625 249.003906 166.769531 247.609375 C 167.304688 244.652344 166.976562 241.171875 165.757812 236.96875 C 165.683594 236.714844 165.761719 236.4375 165.957031 236.257812 C 166.152344 236.082031 166.433594 236.027344 166.679688 236.125 C 168.351562 236.785156 170.050781 237.351562 171.726562 237.816406 C 176.324219 239.105469 181.101562 239.757812 185.925781 239.757812 L 186.03125 239.757812 C 187.015625 239.757812 187.972656 239.730469 188.882812 239.671875 C 189.222656 239.648438 189.511719 239.863281 189.601562 240.183594 C 190.121094 242.125 190.324219 244.203125 190.195312 246.355469 C 190.179688 246.714844 190.148438 247.070312 190.113281 247.429688 C 189.335938 254.558594 185.242188 261.167969 179.15625 265.101562 C 178.527344 265.507812 177.859375 265.902344 177.214844 266.285156 C 174.644531 267.8125 171.992188 269.390625 171.160156 271.980469 C 170.53125 273.941406 171.046875 276.085938 171.589844 278.355469 C 171.894531 279.613281 172.207031 280.914062 172.316406 282.210938 C 172.699219 286.625 170.652344 291.238281 166.710938 294.867188 C 165.367188 296.105469 163.804688 297.257812 161.933594 298.386719 C 161.820312 298.457031 161.699219 298.488281 161.574219 298.488281 " fill-opacity="1" fill-rule="nonzero"/></g><path fill="rgb(100%, 84.309387%, 0%)" d="M 223.246094 147.800781 C 226.625 151.027344 229.5625 154.664062 232 158.625 C 233.585938 156.824219 235.621094 155.269531 237.949219 154.105469 C 239.992188 153.082031 242.175781 152.363281 244.441406 151.96875 C 244.542969 151.914062 244.648438 151.859375 244.753906 151.808594 C 247.292969 150.539062 250.246094 150.066406 253.097656 149.605469 C 257.511719 148.894531 261.683594 148.21875 263.957031 144.792969 C 265.6875 142.1875 265.71875 138.816406 265.753906 135.25 C 265.773438 133.09375 265.792969 130.859375 266.214844 128.765625 C 267.039062 124.683594 269.386719 121.082031 273.199219 118.039062 C 271.878906 118.019531 270.652344 118.089844 269.484375 118.238281 C 264.609375 118.871094 260.65625 121.214844 258.644531 124.667969 C 258.042969 125.699219 257.570312 126.890625 257.113281 128.046875 C 256.21875 130.296875 255.292969 132.628906 253.335938 134.105469 C 250.746094 136.054688 247.40625 135.792969 244.171875 135.539062 C 243.4375 135.480469 242.675781 135.417969 241.953125 135.390625 C 235.113281 135.113281 228.386719 137.96875 223.929688 143.035156 C 223.925781 143.039062 223.925781 143.042969 223.921875 143.042969 C 223.574219 144.46875 223.34375 146.070312 223.246094 147.800781 Z M 231.910156 160.523438 C 231.894531 160.523438 231.878906 160.523438 231.863281 160.519531 C 231.636719 160.507812 231.425781 160.378906 231.308594 160.179688 C 228.792969 155.910156 225.679688 152.011719 222.058594 148.59375 C 221.910156 148.453125 221.832031 148.253906 221.839844 148.054688 C 221.933594 146.035156 222.195312 144.179688 222.617188 142.535156 C 222.648438 142.414062 222.710938 142.300781 222.800781 142.214844 C 222.8125 142.199219 222.828125 142.179688 222.84375 142.164062 L 222.886719 142.113281 C 227.617188 136.738281 234.769531 133.703125 242.007812 133.996094 C 242.757812 134.027344 243.53125 134.089844 244.28125 134.148438 C 247.257812 134.382812 250.332031 134.625 252.5 132.988281 C 254.144531 131.75 254.957031 129.703125 255.820312 127.53125 C 256.296875 126.328125 256.789062 125.085938 257.441406 123.964844 C 259.675781 120.136719 264 117.546875 269.304688 116.855469 C 271.125 116.621094 273.066406 116.582031 275.246094 116.730469 C 275.542969 116.753906 275.792969 116.957031 275.867188 117.246094 C 275.945312 117.53125 275.835938 117.835938 275.589844 118 C 271.132812 121.066406 268.441406 124.78125 267.582031 129.042969 C 267.183594 131.007812 267.164062 133.171875 267.144531 135.261719 C 267.109375 138.875 267.074219 142.613281 265.117188 145.5625 C 262.503906 149.5 257.835938 150.25 253.320312 150.980469 C 250.570312 151.425781 247.722656 151.882812 245.375 153.054688 C 245.261719 153.113281 245.144531 153.167969 245.035156 153.234375 C 244.960938 153.277344 244.878906 153.308594 244.796875 153.320312 C 242.621094 153.6875 240.527344 154.371094 238.570312 155.351562 C 236.101562 156.589844 233.992188 158.28125 232.457031 160.253906 C 232.324219 160.421875 232.121094 160.523438 231.910156 160.523438 " fill-opacity="1" fill-rule="nonzero"/><path fill="rgb(100%, 84.309387%, 0%)" d="M 263.171875 252.769531 C 267.214844 252.769531 271.128906 254.277344 274.828125 257.261719 C 274.5625 255.972656 274.226562 254.785156 273.824219 253.675781 C 272.144531 249.046875 269 245.695312 265.195312 244.480469 C 264.058594 244.117188 262.785156 243.914062 261.558594 243.71875 C 259.171875 243.335938 256.699219 242.941406 254.835938 241.355469 C 252.367188 239.246094 251.894531 235.917969 251.441406 232.703125 C 251.335938 231.972656 251.230469 231.21875 251.101562 230.507812 C 250.050781 224.703125 246.726562 219.421875 241.972656 215.992188 C 239.019531 215.503906 235.582031 215.707031 231.199219 216.628906 C 229.113281 219.820312 226.679688 222.796875 223.960938 225.496094 C 225.402344 226.550781 226.757812 227.859375 227.914062 229.324219 C 228.714844 230.332031 229.441406 231.429688 230.074219 232.585938 C 232.386719 233.636719 234.28125 235.0625 235.714844 236.828125 C 237.503906 239.035156 238.609375 241.8125 239.679688 244.503906 C 241.339844 248.660156 242.902344 252.589844 246.742188 254.0625 C 249.664062 255.1875 252.953125 254.480469 256.441406 253.734375 C 258.542969 253.285156 260.71875 252.820312 262.84375 252.773438 C 262.953125 252.773438 263.0625 252.769531 263.171875 252.769531 Z M 275.859375 259.773438 C 275.691406 259.773438 275.519531 259.710938 275.386719 259.585938 C 271.421875 255.902344 267.207031 254.0625 262.875 254.167969 C 260.878906 254.210938 258.773438 254.660156 256.734375 255.097656 C 253.199219 255.855469 249.550781 256.640625 246.242188 255.363281 C 241.835938 253.671875 240.085938 249.273438 238.386719 245.019531 C 237.355469 242.425781 236.289062 239.746094 234.632812 237.707031 C 233.285156 236.042969 231.546875 234.757812 229.324219 233.777344 C 229.171875 233.71875 229.042969 233.605469 228.960938 233.457031 C 228.34375 232.296875 227.621094 231.195312 226.820312 230.1875 C 225.570312 228.601562 224.070312 227.214844 222.484375 226.171875 C 222.308594 226.054688 222.195312 225.863281 222.175781 225.652344 C 222.15625 225.441406 222.234375 225.230469 222.386719 225.085938 C 225.347656 222.238281 227.972656 219.058594 230.1875 215.628906 C 230.289062 215.472656 230.445312 215.363281 230.628906 215.324219 C 235.402344 214.296875 239.132812 214.082031 242.367188 214.644531 C 242.46875 214.664062 242.566406 214.703125 242.652344 214.765625 C 247.765625 218.398438 251.34375 224.046875 252.472656 230.257812 C 252.605469 230.996094 252.714844 231.765625 252.820312 232.507812 C 253.238281 235.46875 253.671875 238.527344 255.738281 240.292969 C 257.304688 241.625 259.476562 241.972656 261.777344 242.339844 C 263.054688 242.546875 264.378906 242.757812 265.617188 243.152344 C 269.835938 244.5 273.304688 248.160156 275.132812 253.199219 C 275.757812 254.925781 276.222656 256.816406 276.546875 258.972656 C 276.59375 259.265625 276.445312 259.554688 276.1875 259.691406 C 276.082031 259.746094 275.972656 259.773438 275.859375 259.773438 " fill-opacity="1" fill-rule="nonzero"/><path fill="rgb(100%, 84.309387%, 0%)" d="M 189.011719 132.925781 C 193.441406 133.179688 197.800781 133.96875 201.988281 135.273438 C 202.191406 134.597656 202.425781 133.921875 202.699219 133.253906 C 203.476562 131.375 204.488281 129.605469 205.710938 127.984375 C 205.898438 126.808594 206.222656 125.675781 206.679688 124.613281 C 207.796875 122.003906 209.742188 119.726562 211.621094 117.523438 C 214.527344 114.125 217.269531 110.910156 216.792969 106.824219 C 216.425781 103.71875 214.277344 101.125 212 98.382812 C 210.621094 96.726562 209.195312 95.007812 208.164062 93.136719 C 206.160156 89.496094 205.621094 85.230469 206.558594 80.4375 C 205.546875 81.277344 204.652344 82.121094 203.859375 82.992188 C 200.546875 86.628906 199.046875 90.980469 199.738281 94.917969 C 199.945312 96.089844 200.355469 97.304688 200.753906 98.480469 C 201.527344 100.777344 202.328125 103.15625 201.792969 105.550781 C 201.074219 108.71875 198.355469 110.683594 195.722656 112.585938 C 195.125 113.015625 194.507812 113.464844 193.9375 113.90625 C 189.492188 117.382812 186.410156 122.535156 185.449219 128.074219 C 186.339844 129.648438 187.507812 131.238281 189.011719 132.925781 Z M 202.46875 136.855469 C 202.394531 136.855469 202.324219 136.84375 202.25 136.820312 C 197.878906 135.386719 193.300781 134.542969 188.652344 134.304688 C 188.464844 134.292969 188.292969 134.210938 188.171875 134.074219 C 186.433594 132.152344 185.105469 130.339844 184.117188 128.535156 C 184.039062 128.398438 184.011719 128.242188 184.039062 128.089844 C 185.003906 122.113281 188.300781 116.546875 193.082031 112.808594 C 193.671875 112.347656 194.300781 111.894531 194.90625 111.457031 C 197.332031 109.703125 199.835938 107.894531 200.433594 105.242188 C 200.886719 103.230469 200.179688 101.140625 199.433594 98.925781 C 199.023438 97.703125 198.59375 96.433594 198.367188 95.160156 C 197.601562 90.792969 199.226562 86.015625 202.828125 82.050781 C 204.066406 80.695312 205.519531 79.410156 207.273438 78.117188 C 207.511719 77.945312 207.835938 77.9375 208.078125 78.105469 C 208.324219 78.273438 208.433594 78.574219 208.359375 78.863281 C 206.945312 84.089844 207.289062 88.667969 209.386719 92.464844 C 210.347656 94.222656 211.730469 95.882812 213.066406 97.492188 C 215.375 100.269531 217.761719 103.144531 218.171875 106.660156 C 218.722656 111.351562 215.652344 114.949219 212.679688 118.429688 C 210.867188 120.550781 208.992188 122.746094 207.960938 125.160156 C 207.527344 126.167969 207.226562 127.246094 207.0625 128.367188 C 207.042969 128.480469 206.996094 128.59375 206.925781 128.6875 C 205.726562 130.25 204.738281 131.964844 203.988281 133.785156 C 203.644531 134.625 203.359375 135.484375 203.140625 136.332031 C 203.09375 136.515625 202.972656 136.675781 202.800781 136.769531 C 202.699219 136.824219 202.582031 136.855469 202.46875 136.855469 " fill-opacity="1" fill-rule="nonzero"/><path fill="rgb(100%, 84.309387%, 0%)" d="M 185.925781 134.234375 C 185.460938 134.234375 184.996094 134.238281 184.527344 134.253906 C 178.214844 134.417969 172.074219 135.691406 166.265625 138.03125 C 165.96875 138.148438 165.679688 138.269531 165.382812 138.394531 C 159.710938 140.800781 154.535156 144.167969 150 148.402344 C 149.339844 149.015625 148.660156 149.6875 147.914062 150.457031 C 144.734375 153.777344 142.003906 157.484375 139.800781 161.480469 C 138.917969 163.074219 138.105469 164.746094 137.382812 166.441406 C 136.167969 169.328125 135.210938 172.3125 134.542969 175.308594 C 133.9375 177.964844 133.542969 180.679688 133.367188 183.375 C 133.285156 184.550781 133.242188 185.765625 133.242188 186.996094 C 133.242188 187.800781 133.257812 188.515625 133.289062 189.179688 C 133.417969 192.40625 133.84375 195.621094 134.554688 198.738281 C 135.582031 203.296875 137.226562 207.703125 139.4375 211.84375 C 139.757812 212.445312 140.09375 213.046875 140.4375 213.628906 C 140.4375 213.632812 140.441406 213.632812 140.441406 213.632812 C 143.484375 218.835938 147.363281 223.449219 151.976562 227.347656 C 152.78125 228.027344 153.625 228.699219 154.488281 229.339844 C 158.242188 232.140625 162.34375 234.425781 166.679688 236.125 C 168.351562 236.785156 170.050781 237.351562 171.726562 237.816406 C 176.324219 239.105469 181.101562 239.757812 185.925781 239.757812 L 186.03125 239.757812 C 187.015625 239.757812 187.972656 239.730469 188.882812 239.671875 C 193.46875 239.421875 197.984375 238.574219 202.316406 237.148438 C 204.304688 236.503906 206.289062 235.71875 208.214844 234.8125 C 210.972656 233.527344 213.628906 231.988281 216.113281 230.242188 C 218.324219 228.695312 220.4375 226.960938 222.386719 225.085938 C 225.347656 222.238281 227.972656 219.058594 230.1875 215.628906 C 231.078125 214.257812 231.90625 212.828125 232.65625 211.382812 C 234.640625 207.585938 236.152344 203.542969 237.152344 199.367188 C 237.609375 197.484375 237.960938 195.542969 238.203125 193.59375 C 238.476562 191.429688 238.613281 189.207031 238.613281 186.996094 C 238.613281 185.699219 238.5625 184.414062 238.46875 183.183594 C 238.304688 180.828125 237.980469 178.480469 237.503906 176.191406 C 236.863281 173.089844 235.929688 170.023438 234.730469 167.082031 C 233.765625 164.707031 232.613281 162.382812 231.308594 160.179688 C 228.792969 155.910156 225.679688 152.011719 222.058594 148.59375 C 221.492188 148.058594 220.890625 147.515625 220.277344 146.984375 C 216.382812 143.628906 212.035156 140.871094 207.363281 138.78125 C 205.675781 138.03125 203.953125 137.371094 202.253906 136.820312 C 197.878906 135.386719 193.300781 134.542969 188.652344 134.304688 C 187.753906 134.257812 186.835938 134.234375 185.925781 134.234375 Z M 186.03125 241.152344 L 185.925781 241.152344 C 180.972656 241.152344 176.070312 240.480469 171.355469 239.160156 C 169.628906 238.683594 167.886719 238.097656 166.171875 237.425781 C 161.722656 235.675781 157.511719 233.335938 153.65625 230.457031 C 152.769531 229.800781 151.902344 229.109375 151.082031 228.410156 C 146.347656 224.414062 142.363281 219.679688 139.242188 214.339844 C 138.882812 213.738281 138.535156 213.117188 138.210938 212.5 C 135.9375 208.25 134.25 203.722656 133.195312 199.046875 C 132.464844 195.847656 132.03125 192.550781 131.898438 189.242188 C 131.863281 188.5625 131.847656 187.824219 131.847656 186.996094 C 131.847656 185.730469 131.890625 184.480469 131.980469 183.277344 C 132.160156 180.515625 132.566406 177.726562 133.183594 175 C 133.871094 171.925781 134.851562 168.863281 136.101562 165.902344 C 136.84375 164.15625 137.679688 162.441406 138.582031 160.808594 C 140.84375 156.707031 143.648438 152.898438 146.914062 149.488281 C 147.675781 148.699219 148.375 148.011719 149.050781 147.382812 C 153.703125 143.035156 159.015625 139.582031 164.835938 137.113281 C 165.140625 136.984375 165.441406 136.859375 165.75 136.738281 C 171.707031 134.335938 178.011719 133.03125 184.488281 132.859375 C 185.898438 132.816406 187.328125 132.839844 188.722656 132.910156 C 193.496094 133.15625 198.191406 134.027344 202.683594 135.496094 C 204.429688 136.058594 206.195312 136.738281 207.925781 137.507812 C 212.726562 139.652344 217.1875 142.484375 221.183594 145.925781 C 221.816406 146.476562 222.433594 147.03125 223.011719 147.578125 C 226.726562 151.089844 229.925781 155.089844 232.507812 159.46875 C 233.84375 161.734375 235.027344 164.117188 236.019531 166.558594 C 237.25 169.574219 238.207031 172.722656 238.867188 175.910156 C 239.359375 178.257812 239.691406 180.667969 239.859375 183.082031 C 239.957031 184.347656 240.003906 185.664062 240.003906 186.996094 C 240.003906 189.265625 239.863281 191.542969 239.585938 193.765625 C 239.335938 195.769531 238.972656 197.761719 238.503906 199.695312 C 237.476562 203.980469 235.925781 208.128906 233.890625 212.027344 C 233.121094 213.511719 232.265625 214.976562 231.359375 216.382812 C 229.082031 219.90625 226.390625 223.171875 223.351562 226.09375 C 221.347656 228.015625 219.179688 229.796875 216.914062 231.382812 C 214.363281 233.175781 211.632812 234.753906 208.804688 236.074219 C 206.828125 237.003906 204.789062 237.8125 202.746094 238.472656 C 198.300781 239.9375 193.664062 240.808594 188.964844 241.0625 C 188.03125 241.121094 187.042969 241.152344 186.03125 241.152344 " fill-opacity="1" fill-rule="nonzero"/><path fill="rgb(100%, 84.309387%, 0%)" d="M 117.945312 177.335938 C 118.496094 177.542969 119.007812 177.703125 119.511719 177.824219 C 123.527344 178.816406 127.898438 177.824219 133.25 174.707031 C 133.882812 171.960938 134.746094 169.226562 135.824219 166.566406 C 134.449219 166.007812 133.113281 165.277344 131.84375 164.390625 C 130.59375 163.519531 129.414062 162.511719 128.34375 161.394531 C 127.238281 161.015625 126.183594 160.503906 125.210938 159.871094 C 122.832031 158.320312 120.925781 156.015625 119.082031 153.785156 C 116.230469 150.339844 113.535156 147.082031 109.433594 146.859375 C 106.3125 146.6875 103.390625 148.371094 100.300781 150.152344 C 98.4375 151.230469 96.511719 152.339844 94.5 153.039062 C 90.570312 154.394531 86.277344 154.195312 81.726562 152.449219 C 82.382812 153.601562 83.058594 154.628906 83.78125 155.554688 C 86.789062 159.433594 90.792969 161.652344 94.769531 161.652344 C 94.78125 161.652344 94.796875 161.652344 94.808594 161.652344 C 96.003906 161.644531 97.269531 161.449219 98.496094 161.257812 C 100.890625 160.890625 103.363281 160.503906 105.625 161.445312 C 108.617188 162.6875 110.082031 165.699219 111.5 168.617188 C 111.828125 169.28125 112.160156 169.972656 112.503906 170.617188 C 113.882812 173.191406 115.710938 175.449219 117.945312 177.335938 Z M 122.578125 179.589844 C 121.417969 179.589844 120.289062 179.453125 119.179688 179.179688 C 118.589844 179.035156 117.988281 178.847656 117.339844 178.597656 C 117.269531 178.570312 117.203125 178.53125 117.144531 178.480469 C 114.730469 176.464844 112.753906 174.039062 111.277344 171.277344 C 110.921875 170.609375 110.578125 169.90625 110.25 169.226562 C 108.945312 166.542969 107.59375 163.773438 105.089844 162.730469 C 103.191406 161.941406 101.011719 162.277344 98.710938 162.636719 C 97.433594 162.835938 96.113281 163.039062 94.816406 163.042969 C 94.800781 163.042969 94.78125 163.042969 94.769531 163.042969 C 90.363281 163.042969 85.957031 160.628906 82.679688 156.410156 C 81.5625 154.972656 80.546875 153.316406 79.5625 151.347656 C 79.433594 151.082031 79.480469 150.761719 79.6875 150.550781 C 79.894531 150.335938 80.210938 150.277344 80.480469 150.402344 C 85.382812 152.695312 89.945312 153.136719 94.046875 151.71875 C 95.929688 151.066406 97.800781 149.992188 99.605469 148.945312 C 102.734375 147.140625 105.964844 145.269531 109.507812 145.46875 C 114.21875 145.726562 117.234375 149.371094 120.152344 152.898438 C 121.929688 155.046875 123.769531 157.269531 125.96875 158.703125 C 126.890625 159.300781 127.890625 159.777344 128.941406 160.125 C 129.054688 160.160156 129.152344 160.222656 129.230469 160.308594 C 130.269531 161.40625 131.417969 162.398438 132.640625 163.246094 C 134.015625 164.210938 135.472656 164.972656 136.976562 165.515625 C 137.15625 165.578125 137.304688 165.714844 137.378906 165.890625 C 137.457031 166.066406 137.457031 166.265625 137.382812 166.441406 C 136.167969 169.328125 135.210938 172.3125 134.542969 175.308594 C 134.496094 175.496094 134.382812 175.65625 134.214844 175.753906 C 129.855469 178.335938 126.078125 179.589844 122.578125 179.589844 " fill-opacity="1" fill-rule="nonzero"/><g clip-path="url(#id2)"><path fill="rgb(100%, 84.309387%, 0%)" d="M 165.738281 79.277344 C 165.101562 80.429688 164.578125 81.542969 164.15625 82.644531 C 162.402344 87.246094 162.589844 91.839844 164.675781 95.253906 C 165.296875 96.269531 166.121094 97.25 166.917969 98.199219 C 168.480469 100.058594 170.09375 101.976562 170.460938 104.402344 C 170.953125 107.613281 169.136719 110.445312 167.375 113.179688 C 166.980469 113.796875 166.570312 114.4375 166.203125 115.054688 C 162.730469 120.945312 162.050781 128.242188 164.390625 134.574219 C 164.511719 134.894531 164.640625 135.214844 164.78125 135.535156 C 164.980469 135.996094 165.191406 136.441406 165.414062 136.871094 C 165.527344 136.824219 165.636719 136.78125 165.75 136.738281 C 171.707031 134.335938 178.011719 133.03125 184.488281 132.859375 C 185.359375 132.832031 186.234375 132.832031 187.109375 132.855469 C 185.878906 131.375 184.894531 129.953125 184.117188 128.535156 C 182.585938 125.761719 181.882812 123.085938 181.96875 120.355469 C 182.058594 117.519531 183.039062 114.691406 183.984375 111.957031 C 185.449219 107.722656 186.828125 103.726562 184.890625 100.09375 C 183.417969 97.335938 180.464844 95.710938 177.34375 93.988281 C 175.457031 92.953125 173.511719 91.878906 171.871094 90.519531 C 168.671875 87.859375 166.613281 84.082031 165.738281 79.277344 Z M 165.109375 138.453125 C 164.863281 138.453125 164.632812 138.324219 164.503906 138.101562 C 164.140625 137.46875 163.804688 136.792969 163.503906 136.089844 C 163.355469 135.75 163.21875 135.40625 163.085938 135.058594 C 160.601562 128.335938 161.320312 120.59375 165.003906 114.347656 C 165.386719 113.703125 165.804688 113.054688 166.207031 112.425781 C 167.824219 109.910156 169.5 107.304688 169.085938 104.613281 C 168.773438 102.574219 167.355469 100.886719 165.855469 99.097656 C 165.023438 98.109375 164.164062 97.085938 163.488281 95.980469 C 161.175781 92.195312 160.949219 87.15625 162.855469 82.148438 C 163.507812 80.4375 164.394531 78.707031 165.558594 76.859375 C 165.714844 76.609375 166.015625 76.484375 166.304688 76.550781 C 166.589844 76.621094 166.804688 76.859375 166.839844 77.15625 C 167.429688 82.535156 169.421875 86.671875 172.757812 89.445312 C 174.296875 90.722656 176.1875 91.761719 178.011719 92.769531 C 181.179688 94.511719 184.449219 96.3125 186.117188 99.4375 C 188.34375 103.605469 186.796875 108.082031 185.296875 112.414062 C 184.386719 115.050781 183.441406 117.773438 183.359375 120.398438 C 183.28125 122.875 183.925781 125.3125 185.332031 127.863281 C 186.273438 129.570312 187.539062 131.296875 189.203125 133.140625 C 189.390625 133.347656 189.433594 133.648438 189.3125 133.90625 C 189.195312 134.160156 188.929688 134.320312 188.652344 134.304688 C 187.296875 134.234375 185.90625 134.210938 184.527344 134.253906 C 178.214844 134.417969 172.074219 135.691406 166.265625 138.03125 C 165.96875 138.148438 165.679688 138.269531 165.382812 138.394531 C 165.292969 138.433594 165.199219 138.453125 165.109375 138.453125 " fill-opacity="1" fill-rule="nonzero"/></g><path fill="rgb(100%, 84.309387%, 0%)" d="M 132.671875 183.328125 L 132.679688 183.328125 Z M 100.808594 187.128906 C 100.941406 187.128906 101.074219 187.132812 101.207031 187.140625 C 104.445312 187.324219 106.828125 189.6875 109.128906 191.972656 C 109.652344 192.496094 110.199219 193.035156 110.730469 193.523438 C 113.945312 196.484375 117.925781 198.457031 122.238281 199.230469 C 124.628906 199.65625 127.042969 199.699219 129.417969 199.351562 C 130.671875 199.167969 131.894531 198.867188 133.066406 198.449219 C 132.414062 195.4375 132.023438 192.34375 131.898438 189.242188 C 131.863281 188.5625 131.847656 187.824219 131.847656 186.996094 C 131.847656 185.730469 131.890625 184.484375 131.980469 183.28125 C 132.125 181.027344 132.421875 178.761719 132.859375 176.523438 C 127.660156 179.347656 123.285156 180.191406 119.179688 179.179688 C 118.589844 179.035156 117.988281 178.847656 117.339844 178.597656 C 115.277344 177.808594 113.300781 176.617188 111.390625 175.464844 C 107.5625 173.152344 103.945312 170.96875 99.996094 172.113281 C 96.996094 172.980469 94.796875 175.535156 92.46875 178.238281 C 91.0625 179.871094 89.609375 181.554688 87.9375 182.878906 C 84.671875 185.460938 80.558594 186.6875 75.683594 186.546875 C 76.6875 187.421875 77.664062 188.164062 78.648438 188.796875 C 82.777344 191.472656 87.304688 192.242188 91.070312 190.910156 C 92.191406 190.511719 93.324219 189.90625 94.417969 189.324219 C 96.4375 188.242188 98.519531 187.128906 100.808594 187.128906 Z M 126.210938 200.976562 C 124.804688 200.976562 123.394531 200.851562 121.992188 200.601562 C 117.417969 199.78125 113.199219 197.691406 109.789062 194.550781 C 109.234375 194.042969 108.683594 193.492188 108.148438 192.964844 C 106.03125 190.859375 103.839844 188.6875 101.128906 188.53125 C 99.078125 188.414062 97.128906 189.453125 95.074219 190.550781 C 93.933594 191.160156 92.753906 191.792969 91.535156 192.222656 C 87.359375 193.703125 82.386719 192.878906 77.894531 189.96875 C 76.371094 188.988281 74.863281 187.761719 73.28125 186.222656 C 73.070312 186.015625 73.011719 185.699219 73.136719 185.425781 C 73.261719 185.160156 73.542969 185.003906 73.835938 185.03125 C 79.214844 185.570312 83.667969 184.476562 87.078125 181.785156 C 88.640625 180.542969 90.050781 178.910156 91.414062 177.328125 C 93.773438 174.589844 96.210938 171.757812 99.613281 170.773438 C 104.140625 169.460938 108.191406 171.90625 112.109375 174.269531 C 113.964844 175.390625 115.890625 176.550781 117.835938 177.296875 C 118.429688 177.523438 118.976562 177.699219 119.511719 177.824219 C 123.59375 178.832031 128.039062 177.792969 133.507812 174.554688 C 133.746094 174.414062 134.046875 174.425781 134.269531 174.59375 C 134.496094 174.753906 134.601562 175.039062 134.539062 175.308594 C 133.9375 177.964844 133.542969 180.679688 133.367188 183.375 C 133.367188 183.375 133.367188 183.378906 133.367188 183.378906 C 133.285156 184.550781 133.242188 185.765625 133.242188 186.996094 C 133.242188 187.800781 133.257812 188.515625 133.289062 189.179688 C 133.417969 192.40625 133.84375 195.621094 134.554688 198.738281 C 134.628906 199.074219 134.449219 199.414062 134.128906 199.542969 C 132.691406 200.101562 131.175781 200.503906 129.621094 200.730469 C 128.488281 200.894531 127.351562 200.976562 126.210938 200.976562 " fill-opacity="1" fill-rule="nonzero"/><g clip-path="url(#id3)"><path fill="rgb(100%, 84.309387%, 0%)" d="M 251.011719 194.363281 C 252.457031 194.363281 253.867188 194.570312 255.214844 194.984375 C 257.925781 195.820312 260.390625 197.515625 262.777344 199.152344 C 266.464844 201.683594 269.949219 204.074219 273.953125 203.164062 C 277 202.46875 279.347656 200.050781 281.828125 197.488281 C 283.324219 195.941406 284.875 194.339844 286.617188 193.121094 C 290.027344 190.734375 294.207031 189.746094 299.066406 190.167969 C 298.117188 189.238281 297.183594 188.441406 296.242188 187.75 C 292.269531 184.835938 287.796875 183.804688 283.964844 184.914062 C 282.816406 185.246094 281.652344 185.785156 280.523438 186.308594 C 278.324219 187.320312 276.054688 188.371094 273.625 188.089844 C 270.402344 187.71875 268.160156 185.21875 265.996094 182.804688 C 265.503906 182.25 264.992188 181.683594 264.488281 181.164062 C 260.570312 177.109375 255.136719 174.585938 249.550781 174.222656 C 245.546875 176.304688 242.292969 180.148438 239.878906 183.339844 C 239.960938 184.527344 240.003906 185.753906 240.003906 186.996094 C 240.003906 188.953125 239.898438 190.917969 239.691406 192.847656 C 241.910156 192.558594 244.292969 192.691406 246.636719 193.238281 C 247.84375 193.515625 249.046875 193.902344 250.21875 194.382812 C 250.484375 194.371094 250.746094 194.363281 251.011719 194.363281 Z M 272.207031 204.753906 C 268.476562 204.757812 265.183594 202.496094 261.988281 200.300781 C 259.691406 198.722656 257.3125 197.089844 254.804688 196.316406 C 253.328125 195.863281 251.757812 195.679688 250.144531 195.78125 C 250.039062 195.789062 249.933594 195.773438 249.835938 195.730469 C 248.6875 195.25 247.503906 194.871094 246.324219 194.597656 C 243.832031 194.015625 241.308594 193.9375 239.023438 194.367188 C 238.804688 194.402344 238.582031 194.339844 238.417969 194.1875 C 238.253906 194.035156 238.179688 193.8125 238.203125 193.59375 C 238.476562 191.429688 238.613281 189.207031 238.613281 186.996094 C 238.613281 185.699219 238.5625 184.414062 238.46875 183.183594 C 238.457031 183.015625 238.503906 182.847656 238.609375 182.710938 C 241.164062 179.3125 244.664062 175.125 249.085938 172.890625 C 249.195312 172.835938 249.320312 172.8125 249.441406 172.820312 C 255.4375 173.160156 261.289062 175.847656 265.488281 180.195312 C 266.011719 180.734375 266.527344 181.3125 267.03125 181.871094 C 269.023438 184.09375 271.085938 186.394531 273.785156 186.707031 C 275.820312 186.941406 277.824219 186.019531 279.941406 185.039062 C 281.113281 184.5 282.332031 183.9375 283.574219 183.578125 C 287.828125 182.34375 292.742188 183.457031 297.0625 186.625 C 298.523438 187.695312 299.957031 189.003906 301.445312 190.632812 C 301.644531 190.847656 301.6875 191.171875 301.546875 191.433594 C 301.40625 191.691406 301.117188 191.839844 300.824219 191.792969 C 295.480469 190.941406 290.96875 191.773438 287.414062 194.261719 C 285.78125 195.40625 284.277344 196.957031 282.824219 198.457031 C 280.3125 201.050781 277.714844 203.738281 274.261719 204.523438 C 273.5625 204.683594 272.878906 204.753906 272.207031 204.753906 " fill-opacity="1" fill-rule="nonzero"/></g><path fill="rgb(100%, 84.309387%, 0%)" d="M 99.378906 258.480469 C 100.707031 258.550781 101.9375 258.53125 103.097656 258.429688 C 107.992188 257.996094 112.039062 255.816406 114.191406 252.445312 C 114.835938 251.4375 115.355469 250.265625 115.859375 249.128906 C 116.84375 246.914062 117.859375 244.625 119.871094 243.230469 C 122.535156 241.382812 125.859375 241.78125 129.074219 242.164062 C 129.8125 242.253906 130.574219 242.34375 131.300781 242.402344 C 137.492188 242.910156 143.691406 240.851562 148.308594 236.761719 C 148.746094 236.375 149.175781 235.957031 149.621094 235.492188 C 151.167969 233.878906 152.40625 232.035156 153.226562 230.132812 C 152.488281 229.574219 151.769531 228.996094 151.082031 228.410156 C 146.347656 224.414062 142.363281 219.675781 139.238281 214.335938 C 139.140625 214.171875 139.042969 214.003906 138.949219 213.835938 C 138.5625 214.832031 138.164062 215.746094 137.75 216.613281 C 135.507812 221.265625 132.699219 224.300781 129.164062 225.890625 C 126.578125 227.050781 123.613281 227.40625 120.742188 227.75 C 116.300781 228.285156 112.105469 228.789062 109.691406 232.125 C 107.859375 234.660156 107.691406 238.019531 107.515625 241.582031 C 107.40625 243.738281 107.296875 245.964844 106.789062 248.039062 C 105.800781 252.085938 103.308594 255.589844 99.378906 258.480469 Z M 100.953125 259.914062 C 99.804688 259.914062 98.589844 259.84375 97.28125 259.707031 C 96.984375 259.671875 96.742188 259.457031 96.679688 259.171875 C 96.609375 258.878906 96.734375 258.582031 96.984375 258.421875 C 101.558594 255.535156 104.40625 251.929688 105.4375 247.707031 C 105.914062 245.761719 106.019531 243.601562 106.125 241.511719 C 106.304688 237.90625 106.488281 234.175781 108.566406 231.308594 C 111.335938 227.476562 116.035156 226.914062 120.578125 226.367188 C 123.339844 226.035156 126.199219 225.691406 128.59375 224.617188 C 131.820312 223.171875 134.402344 220.355469 136.496094 216.011719 C 137.082031 214.789062 137.628906 213.457031 138.167969 211.941406 C 138.261719 211.679688 138.5 211.496094 138.773438 211.476562 C 139.050781 211.457031 139.308594 211.601562 139.4375 211.847656 C 139.757812 212.445312 140.09375 213.046875 140.4375 213.628906 C 143.484375 218.835938 147.363281 223.449219 151.976562 227.347656 C 152.78125 228.027344 153.625 228.699219 154.488281 229.339844 C 154.738281 229.527344 154.832031 229.859375 154.71875 230.152344 C 153.84375 232.398438 152.429688 234.578125 150.625 236.457031 C 150.152344 236.953125 149.695312 237.390625 149.230469 237.804688 C 144.332031 242.144531 137.757812 244.328125 131.1875 243.792969 C 130.4375 243.730469 129.660156 243.640625 128.910156 243.546875 C 125.953125 243.195312 122.894531 242.828125 120.660156 244.375 C 118.972656 245.546875 118.078125 247.5625 117.132812 249.695312 C 116.605469 250.878906 116.0625 252.101562 115.363281 253.195312 C 112.976562 256.933594 108.550781 259.347656 103.21875 259.816406 C 102.492188 259.882812 101.738281 259.914062 100.953125 259.914062 " fill-opacity="1" fill-rule="nonzero"/></svg>