<svg xmlns="http://www.w3.org/2000/svg" xmlns:xlink="http://www.w3.org/1999/xlink" width="500" zoomAndPan="magnify" viewBox="0 0 375 374.999991" height="500" preserveAspectRatio="xMidYMid meet" version="1.0"><defs><g/></defs><g fill="rgb(0%, 0%, 0%)" fill-opacity="1"><g transform="translate(73.18755, 186.734732)"><g><path d="M 42.8125 -0.59375 L 43.515625 -0.59375 L 43.515625 0 L 30.703125 0 L 30.703125 -0.59375 L 31.46875 -0.59375 C 32.445312 -0.59375 33.296875 -0.929688 34.015625 -1.609375 C 34.742188 -2.296875 35.148438 -3.148438 35.234375 -4.171875 L 35.234375 -19.4375 L 12.5 -19.4375 L 12.5 -4.109375 C 12.5 1.367188 11.171875 5.046875 8.515625 6.921875 C 7.296875 7.785156 5.726562 8.429688 3.8125 8.859375 L 3.515625 8.34375 C 5.285156 7.394531 6.585938 5.941406 7.421875 3.984375 C 8.265625 2.035156 8.6875 -0.660156 8.6875 -4.109375 L 8.6875 -36.875 C 8.6875 -37.894531 8.3125 -38.753906 7.5625 -39.453125 C 6.820312 -40.160156 5.945312 -40.515625 4.9375 -40.515625 L 4.234375 -40.515625 L 4.234375 -41.109375 L 17.03125 -41.109375 L 17.03125 -40.515625 L 16.265625 -40.515625 C 15.242188 -40.515625 14.367188 -40.160156 13.640625 -39.453125 C 12.921875 -38.753906 12.539062 -37.894531 12.5 -36.875 L 12.5 -21.203125 L 35.234375 -21.203125 L 35.234375 -35.8125 C 35.273438 -40.820312 36.390625 -44.304688 38.578125 -46.265625 C 39.910156 -47.441406 41.710938 -48.285156 43.984375 -48.796875 L 44.28125 -48.265625 C 42.507812 -47.328125 41.191406 -45.878906 40.328125 -43.921875 C 39.472656 -41.960938 39.046875 -39.257812 39.046875 -35.8125 L 39.046875 -4.28125 C 39.046875 -3.269531 39.40625 -2.398438 40.125 -1.671875 C 40.851562 -0.953125 41.75 -0.59375 42.8125 -0.59375 Z M 42.8125 -0.59375 "/></g></g></g><g fill="rgb(0%, 0%, 0%)" fill-opacity="1"><g transform="translate(120.920395, 186.734732)"><g><path d="M 8.625 -36.015625 C 12.820312 -39.953125 18.253906 -41.921875 24.921875 -41.921875 C 31.597656 -41.921875 37.03125 -39.953125 41.21875 -36.015625 C 45.40625 -32.085938 47.5 -26.929688 47.5 -20.546875 C 47.5 -14.171875 45.40625 -9.015625 41.21875 -5.078125 C 37.03125 -1.140625 31.597656 0.828125 24.921875 0.828125 C 18.253906 0.828125 12.820312 -1.140625 8.625 -5.078125 C 4.4375 -9.015625 2.34375 -14.171875 2.34375 -20.546875 C 2.34375 -26.929688 4.4375 -32.085938 8.625 -36.015625 Z M 11.828125 -6.34375 C 15.140625 -2.738281 19.492188 -0.9375 24.890625 -0.9375 C 30.296875 -0.9375 34.648438 -2.738281 37.953125 -6.34375 C 41.265625 -9.945312 42.921875 -14.679688 42.921875 -20.546875 C 42.921875 -26.421875 41.265625 -31.15625 37.953125 -34.75 C 34.648438 -38.351562 30.296875 -40.15625 24.890625 -40.15625 C 19.492188 -40.15625 15.140625 -38.351562 11.828125 -34.75 C 8.523438 -31.15625 6.875 -26.421875 6.875 -20.546875 C 6.875 -14.679688 8.523438 -9.945312 11.828125 -6.34375 Z M 11.828125 -6.34375 "/></g></g></g><g fill="rgb(0%, 0%, 0%)" fill-opacity="1"><g transform="translate(170.708162, 186.734732)"><g><path d="M 3.578125 -2.40625 C 3.460938 -2.957031 3.40625 -4.015625 3.40625 -5.578125 C 3.40625 -7.140625 3.695312 -8.800781 4.28125 -10.5625 L 4.8125 -10.5625 C 4.769531 -10.132812 4.75 -9.707031 4.75 -9.28125 C 4.75 -6.894531 5.472656 -4.90625 6.921875 -3.3125 C 8.367188 -1.726562 10.289062 -0.9375 12.6875 -0.9375 C 15.144531 -0.9375 17.164062 -1.679688 18.75 -3.171875 C 20.34375 -4.660156 21.140625 -6.53125 21.140625 -8.78125 C 21.140625 -11.03125 20.375 -12.859375 18.84375 -14.265625 L 7.578125 -24.71875 C 5.460938 -26.675781 4.40625 -29.046875 4.40625 -31.828125 C 4.40625 -34.609375 5.332031 -36.984375 7.1875 -38.953125 C 9.050781 -40.929688 11.566406 -41.921875 14.734375 -41.921875 C 16.222656 -41.921875 17.90625 -41.726562 19.78125 -41.34375 L 22.078125 -41.34375 L 22.078125 -34.109375 L 21.546875 -34.109375 C 21.546875 -35.953125 20.910156 -37.421875 19.640625 -38.515625 C 18.367188 -39.609375 16.734375 -40.15625 14.734375 -40.15625 C 12.742188 -40.15625 11.070312 -39.488281 9.71875 -38.15625 C 8.363281 -36.832031 7.6875 -35.171875 7.6875 -33.171875 C 7.6875 -31.179688 8.472656 -29.460938 10.046875 -28.015625 L 21.609375 -17.328125 C 23.566406 -15.523438 24.546875 -13.054688 24.546875 -9.921875 C 24.546875 -6.785156 23.546875 -4.207031 21.546875 -2.1875 C 19.554688 -0.175781 16.894531 0.828125 13.5625 0.828125 C 11.84375 0.828125 10.015625 0.5625 8.078125 0.03125 C 6.140625 -0.5 4.640625 -1.3125 3.578125 -2.40625 Z M 3.578125 -2.40625 "/></g></g></g><g fill="rgb(0%, 0%, 0%)" fill-opacity="1"><g transform="translate(198.655063, 186.734732)"><g><path d="M 34.578125 -35.875 C 34.578125 -36.8125 34.242188 -37.625 33.578125 -38.3125 C 32.921875 -39 32.140625 -39.363281 31.234375 -39.40625 L 20.078125 -39.40625 L 20.078125 -4.234375 C 20.117188 -3.210938 20.5 -2.347656 21.21875 -1.640625 C 21.945312 -0.941406 22.820312 -0.59375 23.84375 -0.59375 L 24.609375 -0.59375 L 24.609375 0 L 11.75 0 L 11.75 -0.59375 L 12.5 -0.59375 C 13.519531 -0.59375 14.390625 -0.941406 15.109375 -1.640625 C 15.835938 -2.347656 16.222656 -3.191406 16.265625 -4.171875 L 16.265625 -39.40625 L 5.109375 -39.40625 C 4.171875 -39.363281 3.378906 -39 2.734375 -38.3125 C 2.085938 -37.625 1.765625 -36.8125 1.765625 -35.875 L 1.765625 -34.875 L 1.171875 -34.8125 L 1.171875 -42.21875 C 1.765625 -41.976562 2.785156 -41.738281 4.234375 -41.5 C 5.679688 -41.269531 7.007812 -41.15625 8.21875 -41.15625 L 28.0625 -41.15625 C 29.976562 -41.15625 31.570312 -41.300781 32.84375 -41.59375 C 34.125 -41.894531 34.898438 -42.101562 35.171875 -42.21875 L 35.171875 -34.8125 L 34.578125 -34.875 Z M 34.578125 -35.875 "/></g></g></g><g fill="rgb(0%, 0%, 0%)" fill-opacity="1"><g transform="translate(234.939078, 186.734732)"><g><path d="M 4.28125 -0.59375 C 5.300781 -0.59375 6.171875 -0.953125 6.890625 -1.671875 C 7.617188 -2.398438 8.003906 -3.269531 8.046875 -4.28125 L 8.046875 -37.171875 C 8.046875 -38.109375 7.671875 -38.898438 6.921875 -39.546875 C 6.179688 -40.191406 5.300781 -40.515625 4.28125 -40.515625 L 3.578125 -40.515625 L 3.515625 -41.109375 L 20.734375 -41.109375 C 21.941406 -41.109375 23.257812 -41.222656 24.6875 -41.453125 C 26.113281 -41.691406 27.125 -41.925781 27.71875 -42.15625 L 27.71875 -34.765625 L 27.125 -34.765625 L 27.125 -35.8125 C 27.125 -36.757812 26.800781 -37.5625 26.15625 -38.21875 C 25.507812 -38.882812 24.738281 -39.238281 23.84375 -39.28125 L 11.859375 -39.28125 L 11.859375 -21.140625 L 21.78125 -21.140625 C 22.5625 -21.179688 23.226562 -21.472656 23.78125 -22.015625 C 24.332031 -22.566406 24.609375 -23.253906 24.609375 -24.078125 L 24.609375 -24.890625 L 25.1875 -24.890625 L 25.1875 -15.625 L 24.609375 -15.625 L 24.609375 -16.5 C 24.609375 -17.28125 24.34375 -17.941406 23.8125 -18.484375 C 23.28125 -19.035156 22.625 -19.332031 21.84375 -19.375 L 11.859375 -19.375 L 11.859375 -1.8125 L 20.265625 -1.8125 C 23.160156 -1.8125 25.367188 -2.457031 26.890625 -3.75 C 28.421875 -5.050781 29.691406 -6.972656 30.703125 -9.515625 L 31.296875 -9.515625 L 27.890625 0 L 3.515625 0 L 3.515625 -0.59375 Z M 4.28125 -0.59375 "/></g></g></g><g fill="rgb(0%, 0%, 0%)" fill-opacity="1"><g transform="translate(268.815885, 186.734732)"><g><path d="M 4.28125 -0.59375 C 5.300781 -0.59375 6.171875 -0.953125 6.890625 -1.671875 C 7.617188 -2.398438 8.003906 -3.269531 8.046875 -4.28125 L 8.046875 -36.8125 C 8.003906 -37.832031 7.617188 -38.703125 6.890625 -39.421875 C 6.171875 -40.148438 5.300781 -40.515625 4.28125 -40.515625 L 3.515625 -40.515625 L 3.515625 -41.109375 L 16.375 -41.109375 L 16.375 -40.515625 L 15.625 -40.515625 C 14.207031 -40.515625 13.128906 -39.910156 12.390625 -38.703125 C 12.035156 -38.109375 11.859375 -37.476562 11.859375 -36.8125 L 11.859375 -1.8125 L 20.265625 -1.8125 C 23.160156 -1.8125 25.367188 -2.457031 26.890625 -3.75 C 28.421875 -5.050781 29.691406 -6.972656 30.703125 -9.515625 L 31.296875 -9.515625 L 27.890625 0 L 3.515625 0 L 3.515625 -0.59375 Z M 4.28125 -0.59375 "/></g></g></g><g fill="rgb(0%, 0%, 0%)" fill-opacity="1"><g transform="translate(70.81765, 216.680337)"><g><path d="M 8.1875 -0.859375 L 8.1875 0 L 1.53125 0 L 1.53125 -9.421875 L 7.984375 -9.421875 L 7.984375 -8.5625 L 2.53125 -8.5625 L 2.53125 -5.203125 L 7.40625 -5.203125 L 7.40625 -4.359375 L 2.53125 -4.359375 L 2.53125 -0.859375 Z M 8.1875 -0.859375 "/></g></g></g><g fill="rgb(0%, 0%, 0%)" fill-opacity="1"><g transform="translate(87.914294, 216.680337)"><g><path d="M 1.53125 -9.421875 L 2.53125 -9.421875 L 2.53125 -0.859375 L 7.796875 -0.859375 L 7.796875 0 L 1.53125 0 Z M 1.53125 -9.421875 "/></g></g></g><g fill="rgb(0%, 0%, 0%)" fill-opacity="1"><g transform="translate(103.935093, 216.680337)"><g/></g></g><g fill="rgb(0%, 0%, 0%)" fill-opacity="1"><g transform="translate(115.558341, 216.680337)"><g><path d="M 7.96875 0 L 5.8125 -3.03125 C 5.570312 -3 5.320312 -2.984375 5.0625 -2.984375 L 2.53125 -2.984375 L 2.53125 0 L 1.53125 0 L 1.53125 -9.421875 L 5.0625 -9.421875 C 6.257812 -9.421875 7.195312 -9.128906 7.875 -8.546875 C 8.5625 -7.972656 8.90625 -7.1875 8.90625 -6.1875 C 8.90625 -5.445312 8.71875 -4.820312 8.34375 -4.3125 C 7.976562 -3.8125 7.445312 -3.453125 6.75 -3.234375 L 9.046875 0 Z M 5.03125 -3.828125 C 5.96875 -3.828125 6.679688 -4.035156 7.171875 -4.453125 C 7.660156 -4.867188 7.90625 -5.445312 7.90625 -6.1875 C 7.90625 -6.945312 7.660156 -7.53125 7.171875 -7.9375 C 6.679688 -8.351562 5.96875 -8.5625 5.03125 -8.5625 L 2.53125 -8.5625 L 2.53125 -3.828125 Z M 5.03125 -3.828125 "/></g></g></g><g fill="rgb(0%, 0%, 0%)" fill-opacity="1"><g transform="translate(133.381187, 216.680337)"><g><path d="M 8.1875 -0.859375 L 8.1875 0 L 1.53125 0 L 1.53125 -9.421875 L 7.984375 -9.421875 L 7.984375 -8.5625 L 2.53125 -8.5625 L 2.53125 -5.203125 L 7.40625 -5.203125 L 7.40625 -4.359375 L 2.53125 -4.359375 L 2.53125 -0.859375 Z M 8.1875 -0.859375 "/></g></g></g><g fill="rgb(0%, 0%, 0%)" fill-opacity="1"><g transform="translate(150.477831, 216.680337)"><g><path d="M 8.1875 -0.859375 L 8.1875 0 L 1.53125 0 L 1.53125 -9.421875 L 7.984375 -9.421875 L 7.984375 -8.5625 L 2.53125 -8.5625 L 2.53125 -5.203125 L 7.40625 -5.203125 L 7.40625 -4.359375 L 2.53125 -4.359375 L 2.53125 -0.859375 Z M 8.1875 -0.859375 "/></g></g></g><g fill="rgb(0%, 0%, 0%)" fill-opacity="1"><g transform="translate(167.574474, 216.680337)"><g><path d="M 9.40625 -9.421875 L 9.40625 0 L 8.578125 0 L 2.53125 -7.640625 L 2.53125 0 L 1.53125 0 L 1.53125 -9.421875 L 2.359375 -9.421875 L 8.421875 -1.78125 L 8.421875 -9.421875 Z M 9.40625 -9.421875 "/></g></g></g><g fill="rgb(0%, 0%, 0%)" fill-opacity="1"><g transform="translate(186.607657, 216.680337)"><g><path d="M 5.625 0.078125 C 4.6875 0.078125 3.84375 -0.125 3.09375 -0.53125 C 2.351562 -0.945312 1.769531 -1.519531 1.34375 -2.25 C 0.914062 -2.976562 0.703125 -3.796875 0.703125 -4.703125 C 0.703125 -5.609375 0.914062 -6.425781 1.34375 -7.15625 C 1.769531 -7.894531 2.359375 -8.46875 3.109375 -8.875 C 3.859375 -9.289062 4.703125 -9.5 5.640625 -9.5 C 6.335938 -9.5 6.984375 -9.378906 7.578125 -9.140625 C 8.171875 -8.910156 8.671875 -8.570312 9.078125 -8.125 L 8.453125 -7.5 C 7.710938 -8.238281 6.78125 -8.609375 5.65625 -8.609375 C 4.914062 -8.609375 4.238281 -8.4375 3.625 -8.09375 C 3.019531 -7.757812 2.546875 -7.296875 2.203125 -6.703125 C 1.859375 -6.109375 1.6875 -5.441406 1.6875 -4.703125 C 1.6875 -3.972656 1.859375 -3.3125 2.203125 -2.71875 C 2.546875 -2.125 3.019531 -1.65625 3.625 -1.3125 C 4.238281 -0.976562 4.914062 -0.8125 5.65625 -0.8125 C 6.789062 -0.8125 7.722656 -1.1875 8.453125 -1.9375 L 9.078125 -1.3125 C 8.671875 -0.851562 8.164062 -0.503906 7.5625 -0.265625 C 6.96875 -0.0351562 6.320312 0.078125 5.625 0.078125 Z M 5.625 0.078125 "/></g></g></g><g fill="rgb(0%, 0%, 0%)" fill-opacity="1"><g transform="translate(204.376715, 216.680337)"><g><path d="M 5.328125 0.078125 C 4.109375 0.078125 3.15625 -0.269531 2.46875 -0.96875 C 1.789062 -1.664062 1.453125 -2.679688 1.453125 -4.015625 L 1.453125 -9.421875 L 2.453125 -9.421875 L 2.453125 -4.0625 C 2.453125 -2.96875 2.695312 -2.148438 3.1875 -1.609375 C 3.675781 -1.078125 4.390625 -0.8125 5.328125 -0.8125 C 6.265625 -0.8125 6.976562 -1.078125 7.46875 -1.609375 C 7.96875 -2.148438 8.21875 -2.96875 8.21875 -4.0625 L 8.21875 -9.421875 L 9.1875 -9.421875 L 9.1875 -4.015625 C 9.1875 -2.679688 8.847656 -1.664062 8.171875 -0.96875 C 7.492188 -0.269531 6.546875 0.078125 5.328125 0.078125 Z M 5.328125 0.078125 "/></g></g></g><g fill="rgb(0%, 0%, 0%)" fill-opacity="1"><g transform="translate(223.127481, 216.680337)"><g><path d="M 8.1875 -0.859375 L 8.1875 0 L 1.53125 0 L 1.53125 -9.421875 L 7.984375 -9.421875 L 7.984375 -8.5625 L 2.53125 -8.5625 L 2.53125 -5.203125 L 7.40625 -5.203125 L 7.40625 -4.359375 L 2.53125 -4.359375 L 2.53125 -0.859375 Z M 8.1875 -0.859375 "/></g></g></g><g fill="rgb(0%, 0%, 0%)" fill-opacity="1"><g transform="translate(240.224119, 216.680337)"><g><path d="M 9.40625 -9.421875 L 9.40625 0 L 8.578125 0 L 2.53125 -7.640625 L 2.53125 0 L 1.53125 0 L 1.53125 -9.421875 L 2.359375 -9.421875 L 8.421875 -1.78125 L 8.421875 -9.421875 Z M 9.40625 -9.421875 "/></g></g></g><g fill="rgb(0%, 0%, 0%)" fill-opacity="1"><g transform="translate(259.257293, 216.680337)"><g><path d="M 3.359375 -8.5625 L 0.046875 -8.5625 L 0.046875 -9.421875 L 7.671875 -9.421875 L 7.671875 -8.5625 L 4.359375 -8.5625 L 4.359375 0 L 3.359375 0 Z M 3.359375 -8.5625 "/></g></g></g><g fill="rgb(0%, 0%, 0%)" fill-opacity="1"><g transform="translate(275.076365, 216.680337)"><g><path d="M 7.96875 0 L 5.8125 -3.03125 C 5.570312 -3 5.320312 -2.984375 5.0625 -2.984375 L 2.53125 -2.984375 L 2.53125 0 L 1.53125 0 L 1.53125 -9.421875 L 5.0625 -9.421875 C 6.257812 -9.421875 7.195312 -9.128906 7.875 -8.546875 C 8.5625 -7.972656 8.90625 -7.1875 8.90625 -6.1875 C 8.90625 -5.445312 8.71875 -4.820312 8.34375 -4.3125 C 7.976562 -3.8125 7.445312 -3.453125 6.75 -3.234375 L 9.046875 0 Z M 5.03125 -3.828125 C 5.96875 -3.828125 6.679688 -4.035156 7.171875 -4.453125 C 7.660156 -4.867188 7.90625 -5.445312 7.90625 -6.1875 C 7.90625 -6.945312 7.660156 -7.53125 7.171875 -7.9375 C 6.679688 -8.351562 5.96875 -8.5625 5.03125 -8.5625 L 2.53125 -8.5625 L 2.53125 -3.828125 Z M 5.03125 -3.828125 "/></g></g></g><g fill="rgb(0%, 0%, 0%)" fill-opacity="1"><g transform="translate(292.899206, 216.680337)"><g><path d="M 5.65625 0.078125 C 4.71875 0.078125 3.867188 -0.128906 3.109375 -0.546875 C 2.359375 -0.960938 1.769531 -1.53125 1.34375 -2.25 C 0.914062 -2.976562 0.703125 -3.796875 0.703125 -4.703125 C 0.703125 -5.609375 0.914062 -6.425781 1.34375 -7.15625 C 1.769531 -7.882812 2.359375 -8.457031 3.109375 -8.875 C 3.867188 -9.289062 4.71875 -9.5 5.65625 -9.5 C 6.582031 -9.5 7.421875 -9.289062 8.171875 -8.875 C 8.921875 -8.46875 9.507812 -7.894531 9.9375 -7.15625 C 10.375 -6.425781 10.59375 -5.609375 10.59375 -4.703125 C 10.59375 -3.796875 10.375 -2.976562 9.9375 -2.25 C 9.507812 -1.519531 8.921875 -0.945312 8.171875 -0.53125 C 7.421875 -0.125 6.582031 0.078125 5.65625 0.078125 Z M 5.65625 -0.8125 C 6.394531 -0.8125 7.0625 -0.976562 7.65625 -1.3125 C 8.257812 -1.644531 8.734375 -2.109375 9.078125 -2.703125 C 9.421875 -3.304688 9.59375 -3.972656 9.59375 -4.703125 C 9.59375 -5.441406 9.421875 -6.109375 9.078125 -6.703125 C 8.734375 -7.296875 8.257812 -7.757812 7.65625 -8.09375 C 7.0625 -8.4375 6.394531 -8.609375 5.65625 -8.609375 C 4.90625 -8.609375 4.226562 -8.4375 3.625 -8.09375 C 3.019531 -7.757812 2.546875 -7.296875 2.203125 -6.703125 C 1.859375 -6.109375 1.6875 -5.441406 1.6875 -4.703125 C 1.6875 -3.972656 1.859375 -3.304688 2.203125 -2.703125 C 2.546875 -2.109375 3.019531 -1.644531 3.625 -1.3125 C 4.226562 -0.976562 4.90625 -0.8125 5.65625 -0.8125 Z M 5.65625 -0.8125 "/></g></g></g></svg>