<svg xmlns="http://www.w3.org/2000/svg" xmlns:xlink="http://www.w3.org/1999/xlink" width="500" zoomAndPan="magnify" viewBox="0 0 375 374.999991" height="500" preserveAspectRatio="xMidYMid meet" version="1.0"><defs><g/><clipPath id="id1"><path d="M 222 165 L 275 165 L 275 166.757812 L 222 166.757812 Z M 222 165 " clip-rule="nonzero"/></clipPath><clipPath id="id2"><path d="M 142 116 L 231 116 L 231 166.757812 L 142 166.757812 Z M 142 116 " clip-rule="nonzero"/></clipPath><clipPath id="id3"><path d="M 166 70.757812 L 190 70.757812 L 190 122 L 166 122 Z M 166 70.757812 " clip-rule="nonzero"/></clipPath><clipPath id="id4"><path d="M 94.136719 147 L 145 147 L 145 166.757812 L 94.136719 166.757812 Z M 94.136719 147 " clip-rule="nonzero"/></clipPath><clipPath id="id5"><path d="M 229 149.085938 L 280.824219 149.085938 L 280.824219 166.757812 L 229 166.757812 Z M 229 149.085938 " clip-rule="nonzero"/></clipPath></defs><path fill="rgb(100%, 84.309387%, 0%)" d="M 118.039062 103.800781 C 118.144531 104.875 118.3125 105.863281 118.542969 106.792969 C 119.511719 110.6875 121.777344 113.671875 124.761719 114.980469 C 125.652344 115.371094 126.664062 115.644531 127.640625 115.90625 C 129.550781 116.421875 131.519531 116.957031 132.898438 118.402344 C 134.722656 120.316406 134.816406 123.046875 134.910156 125.691406 C 134.933594 126.292969 134.953125 126.914062 134.996094 127.503906 C 135.316406 131.804688 137.125 135.886719 140.085938 139 C 140.9375 139.898438 141.875 140.703125 142.871094 141.394531 C 143.84375 142.074219 144.863281 142.628906 145.914062 143.050781 C 146.464844 141.808594 147.070312 140.582031 147.722656 139.410156 C 149.570312 136.070312 151.859375 132.96875 154.523438 130.195312 C 154.890625 129.816406 155.238281 129.464844 155.578125 129.136719 C 154.199219 128.65625 153.003906 128.097656 151.9375 127.4375 C 150.304688 126.429688 148.988281 125.175781 148.035156 123.710938 C 146.769531 121.769531 146.109375 119.421875 145.46875 117.152344 C 144.480469 113.644531 143.550781 110.332031 140.566406 108.808594 C 138.292969 107.648438 135.5625 107.933594 132.667969 108.238281 C 130.921875 108.421875 129.113281 108.613281 127.375 108.464844 C 123.992188 108.175781 120.855469 106.609375 118.039062 103.800781 Z M 146.21875 144.34375 C 146.15625 144.34375 146.089844 144.332031 146.027344 144.308594 C 144.707031 143.835938 143.425781 143.167969 142.21875 142.328125 C 141.160156 141.589844 140.164062 140.734375 139.265625 139.78125 C 136.117188 136.480469 134.203125 132.148438 133.863281 127.589844 C 133.820312 126.976562 133.796875 126.34375 133.777344 125.730469 C 133.691406 123.300781 133.601562 120.789062 132.074219 119.183594 C 130.917969 117.96875 129.183594 117.5 127.34375 117.003906 C 126.328125 116.730469 125.273438 116.445312 124.304688 116.019531 C 120.996094 114.566406 118.492188 111.304688 117.441406 107.066406 C 117.082031 105.617188 116.871094 104.050781 116.792969 102.269531 C 116.78125 102.027344 116.925781 101.804688 117.148438 101.71875 C 117.375 101.628906 117.628906 101.6875 117.789062 101.871094 C 120.683594 105.195312 123.941406 107.035156 127.472656 107.332031 C 129.101562 107.472656 130.855469 107.289062 132.550781 107.109375 C 135.480469 106.804688 138.507812 106.484375 141.082031 107.796875 C 144.507812 109.546875 145.554688 113.257812 146.5625 116.84375 C 147.179688 119.035156 147.816406 121.296875 148.988281 123.09375 C 149.863281 124.433594 151.023438 125.539062 152.535156 126.472656 C 153.75 127.222656 155.152344 127.839844 156.824219 128.351562 C 157.015625 128.410156 157.164062 128.570312 157.210938 128.765625 C 157.253906 128.964844 157.191406 129.171875 157.042969 129.308594 C 156.503906 129.808594 155.949219 130.355469 155.339844 130.980469 C 152.746094 133.683594 150.515625 136.703125 148.714844 139.957031 C 147.996094 141.257812 147.332031 142.613281 146.742188 143.996094 C 146.652344 144.214844 146.441406 144.34375 146.21875 144.34375 " fill-opacity="1" fill-rule="nonzero"/><path fill="rgb(100%, 84.309387%, 0%)" d="M 152.660156 126.550781 C 153.765625 127.21875 155.03125 127.777344 156.511719 128.253906 C 160.097656 124.964844 164.152344 122.3125 168.578125 120.367188 C 168.417969 120.050781 168.257812 119.726562 168.113281 119.390625 C 166.214844 117.589844 164.996094 115.660156 164.390625 113.496094 C 163.769531 111.269531 163.84375 108.832031 163.914062 106.476562 C 164.027344 102.832031 164.132812 99.394531 161.738281 97.042969 C 159.917969 95.257812 157.222656 94.710938 154.371094 94.136719 C 152.648438 93.785156 150.867188 93.429688 149.261719 92.769531 C 146.121094 91.484375 143.601562 89.050781 141.75 85.527344 C 141.53125 86.585938 141.394531 87.578125 141.335938 88.53125 C 141.089844 92.53125 142.355469 96.058594 144.804688 98.203125 C 145.539062 98.839844 146.421875 99.402344 147.277344 99.949219 C 148.941406 101.011719 150.664062 102.109375 151.542969 103.902344 C 152.707031 106.273438 151.980469 108.90625 151.277344 111.457031 C 151.117188 112.035156 150.953125 112.636719 150.816406 113.214844 C 149.761719 117.695312 150.433594 122.550781 152.660156 126.550781 Z M 156.65625 129.460938 C 156.601562 129.460938 156.542969 129.453125 156.488281 129.433594 C 154.722656 128.894531 153.234375 128.238281 151.9375 127.4375 C 151.855469 127.390625 151.789062 127.320312 151.742188 127.238281 C 149.285156 122.902344 148.566406 117.832031 149.710938 112.953125 C 149.851562 112.359375 150.019531 111.746094 150.183594 111.152344 C 150.828125 108.8125 151.496094 106.386719 150.523438 104.402344 C 149.785156 102.894531 148.269531 101.925781 146.664062 100.90625 C 145.777344 100.335938 144.855469 99.75 144.058594 99.054688 C 141.339844 96.679688 139.933594 92.816406 140.203125 88.460938 C 140.292969 86.980469 140.5625 85.421875 141.019531 83.695312 C 141.082031 83.460938 141.285156 83.292969 141.527344 83.273438 C 141.765625 83.253906 141.992188 83.390625 142.089844 83.613281 C 143.859375 87.648438 146.417969 90.378906 149.691406 91.71875 C 151.199219 92.335938 152.925781 92.6875 154.597656 93.023438 C 157.484375 93.605469 160.472656 94.210938 162.535156 96.234375 C 165.28125 98.929688 165.164062 102.785156 165.050781 106.511719 C 164.980469 108.78125 164.910156 111.132812 165.484375 113.191406 C 166.042969 115.183594 167.183594 116.964844 168.976562 118.644531 C 169.035156 118.699219 169.082031 118.765625 169.113281 118.835938 C 169.339844 119.367188 169.59375 119.878906 169.867188 120.359375 C 169.949219 120.5 169.964844 120.667969 169.914062 120.820312 C 169.863281 120.976562 169.746094 121.101562 169.597656 121.164062 C 164.96875 123.121094 160.746094 125.863281 157.042969 129.308594 C 156.9375 129.40625 156.796875 129.460938 156.65625 129.460938 " fill-opacity="1" fill-rule="nonzero"/><path fill="rgb(100%, 84.309387%, 0%)" d="M 234.335938 132.753906 L 234.339844 132.753906 Z M 224.597656 138.660156 C 225.609375 140.402344 226.503906 142.226562 227.265625 144.089844 C 228.269531 146.546875 229.050781 149.109375 229.589844 151.707031 C 229.890625 153.140625 230.121094 154.609375 230.273438 156.085938 C 232.257812 153.578125 234.8125 150.820312 237.933594 149.25 C 239.386719 148.511719 240.898438 148.078125 242.429688 147.960938 C 244.734375 147.78125 247.117188 148.324219 249.417969 148.851562 C 252.976562 149.664062 256.335938 150.429688 259.105469 148.539062 C 261.214844 147.101562 262.269531 144.566406 263.386719 141.882812 C 264.058594 140.261719 264.757812 138.585938 265.714844 137.140625 C 267.589844 134.3125 270.464844 132.308594 274.28125 131.179688 C 273.289062 130.761719 272.34375 130.4375 271.410156 130.195312 C 267.527344 129.175781 263.820312 129.734375 261.238281 131.726562 C 260.46875 132.320312 259.746094 133.074219 259.046875 133.808594 C 257.679688 135.234375 256.265625 136.710938 254.339844 137.226562 C 251.78125 137.90625 249.332031 136.683594 246.964844 135.503906 C 246.425781 135.234375 245.867188 134.957031 245.328125 134.710938 C 241.910156 133.164062 238.140625 132.683594 234.429688 133.3125 C 234.429688 133.3125 234.429688 133.316406 234.429688 133.316406 C 232.65625 133.613281 230.945312 134.171875 229.347656 134.96875 C 227.460938 135.910156 225.824219 137.183594 224.597656 138.660156 Z M 229.832031 158.152344 C 229.777344 158.152344 229.722656 158.144531 229.671875 158.128906 C 229.445312 158.0625 229.28125 157.859375 229.265625 157.625 C 229.132812 155.710938 228.867188 153.796875 228.476562 151.9375 C 227.953125 149.410156 227.191406 146.914062 226.214844 144.519531 C 225.425781 142.585938 224.484375 140.691406 223.421875 138.898438 C 223.304688 138.695312 223.316406 138.445312 223.460938 138.261719 C 224.816406 136.523438 226.675781 135.035156 228.839844 133.953125 C 230.539062 133.105469 232.355469 132.515625 234.242188 132.195312 C 238.171875 131.523438 242.167969 132.039062 245.796875 133.679688 C 246.355469 133.929688 246.921875 134.214844 247.472656 134.488281 C 249.652344 135.574219 251.90625 136.699219 254.046875 136.128906 C 255.667969 135.695312 256.910156 134.398438 258.222656 133.023438 C 258.953125 132.261719 259.707031 131.472656 260.542969 130.828125 C 263.40625 128.621094 267.472656 127.992188 271.699219 129.097656 C 273.144531 129.472656 274.625 130.039062 276.226562 130.820312 C 276.441406 130.925781 276.566406 131.15625 276.539062 131.394531 C 276.511719 131.636719 276.332031 131.832031 276.097656 131.882812 C 271.789062 132.835938 268.617188 134.816406 266.664062 137.765625 C 265.765625 139.121094 265.089844 140.746094 264.433594 142.316406 C 263.300781 145.039062 262.132812 147.851562 259.746094 149.476562 C 256.566406 151.648438 252.804688 150.785156 249.164062 149.957031 C 246.945312 149.449219 244.652344 148.925781 242.515625 149.09375 C 241.136719 149.199219 239.765625 149.589844 238.445312 150.261719 C 235.042969 151.976562 232.296875 155.257812 230.285156 157.925781 C 230.175781 158.070312 230.007812 158.152344 229.832031 158.152344 " fill-opacity="1" fill-rule="nonzero"/><g clip-path="url(#id1)"><path fill="rgb(100%, 84.309387%, 0%)" d="M 232.449219 183.242188 C 234.34375 183.570312 236.035156 184.246094 237.46875 185.257812 C 239.359375 186.585938 240.847656 188.519531 242.285156 190.390625 C 244.507812 193.277344 246.609375 196.011719 249.949219 196.316406 C 252.492188 196.550781 254.921875 195.269531 257.492188 193.910156 C 259.046875 193.09375 260.65625 192.246094 262.316406 191.738281 C 265.5625 190.75 269.058594 191.042969 272.726562 192.601562 C 272.226562 191.644531 271.703125 190.789062 271.140625 190.011719 C 268.796875 186.757812 265.582031 184.828125 262.324219 184.71875 C 261.347656 184.6875 260.308594 184.808594 259.304688 184.925781 C 257.339844 185.15625 255.308594 185.398438 253.492188 184.566406 C 251.089844 183.460938 249.980469 180.960938 248.910156 178.542969 C 248.667969 177.992188 248.414062 177.421875 248.152344 176.894531 C 246.148438 172.796875 242.738281 169.582031 238.542969 167.84375 C 237.605469 167.453125 236.640625 167.144531 235.675781 166.921875 C 233.789062 166.480469 231.878906 166.394531 230.121094 166.664062 C 229.921875 168.152344 229.644531 169.632812 229.292969 171.070312 C 228.457031 174.558594 227.1875 177.9375 225.527344 181.113281 C 225.101562 181.929688 224.644531 182.742188 224.164062 183.535156 C 227.449219 182.929688 230.109375 182.835938 232.449219 183.242188 Z M 250.546875 197.480469 C 250.316406 197.480469 250.082031 197.46875 249.847656 197.445312 C 246.007812 197.09375 243.65625 194.035156 241.382812 191.082031 C 239.996094 189.277344 238.566406 187.417969 236.8125 186.183594 C 235.519531 185.273438 233.984375 184.660156 232.253906 184.363281 C 232.253906 184.363281 232.253906 184.359375 232.253906 184.359375 C 229.761719 183.929688 226.851562 184.101562 223.101562 184.90625 C 222.878906 184.953125 222.644531 184.863281 222.515625 184.671875 C 222.382812 184.484375 222.382812 184.234375 222.503906 184.042969 C 223.230469 182.929688 223.90625 181.765625 224.519531 180.585938 C 226.136719 177.496094 227.375 174.203125 228.191406 170.804688 C 228.5625 169.273438 228.851562 167.691406 229.050781 166.105469 C 229.078125 165.859375 229.265625 165.664062 229.507812 165.617188 C 231.527344 165.238281 233.75 165.308594 235.933594 165.816406 C 236.960938 166.050781 237.984375 166.382812 238.980469 166.796875 C 243.429688 168.640625 247.050781 172.050781 249.175781 176.394531 C 249.445312 176.945312 249.699219 177.523438 249.949219 178.085938 C 250.933594 180.308594 251.953125 182.609375 253.96875 183.535156 C 255.492188 184.230469 257.277344 184.023438 259.167969 183.800781 C 260.21875 183.675781 261.304688 183.546875 262.363281 183.582031 C 265.972656 183.707031 269.507812 185.808594 272.0625 189.347656 C 272.933594 190.558594 273.71875 191.9375 274.453125 193.5625 C 274.554688 193.78125 274.503906 194.039062 274.332031 194.207031 C 274.152344 194.371094 273.894531 194.410156 273.679688 194.300781 C 269.746094 192.289062 266.035156 191.796875 262.648438 192.824219 C 261.089844 193.300781 259.53125 194.121094 258.023438 194.914062 C 255.632812 196.175781 253.164062 197.480469 250.546875 197.480469 " fill-opacity="1" fill-rule="nonzero"/></g><path fill="rgb(100%, 84.309387%, 0%)" d="M 200.566406 118.96875 C 201.824219 119.394531 203.085938 119.886719 204.332031 120.4375 C 208.25 122.1875 211.890625 124.492188 215.152344 127.292969 C 215.363281 127.476562 215.570312 127.65625 215.773438 127.835938 C 215.878906 126.648438 216.066406 125.542969 216.324219 124.53125 C 216.945312 122.105469 217.992188 120.171875 219.523438 118.617188 C 221.144531 116.964844 223.296875 115.8125 225.375 114.699219 C 228.59375 112.976562 231.628906 111.351562 232.476562 108.109375 C 233.117188 105.644531 232.246094 103.042969 231.324219 100.289062 C 230.765625 98.621094 230.1875 96.902344 229.957031 95.179688 C 229.511719 91.820312 230.363281 88.421875 232.492188 85.066406 C 231.460938 85.40625 230.53125 85.78125 229.679688 86.203125 C 226.082031 87.992188 223.65625 90.84375 223.023438 94.035156 C 222.835938 94.988281 222.785156 96.035156 222.738281 97.046875 C 222.648438 99.015625 222.554688 101.054688 221.4375 102.707031 C 219.960938 104.898438 217.316406 105.582031 214.757812 106.246094 C 214.171875 106.398438 213.5625 106.558594 212.996094 106.730469 C 209.253906 107.847656 205.886719 110.167969 203.515625 113.257812 C 202.535156 114.53125 201.730469 115.925781 201.117188 117.40625 C 200.90625 117.925781 200.71875 118.449219 200.566406 118.96875 Z M 216.257812 129.621094 C 216.117188 129.621094 215.976562 129.566406 215.867188 129.464844 C 215.40625 129.027344 214.914062 128.585938 214.414062 128.152344 C 211.234375 125.425781 207.6875 123.175781 203.871094 121.476562 C 202.492188 120.863281 201.089844 120.328125 199.699219 119.878906 C 199.414062 119.789062 199.25 119.488281 199.324219 119.199219 C 199.515625 118.457031 199.765625 117.710938 200.066406 116.976562 C 200.71875 115.402344 201.574219 113.917969 202.613281 112.566406 C 205.128906 109.289062 208.703125 106.828125 212.667969 105.640625 C 213.257812 105.464844 213.875 105.304688 214.472656 105.148438 C 216.824219 104.539062 219.261719 103.910156 220.496094 102.074219 C 221.433594 100.6875 221.515625 98.894531 221.605469 96.996094 C 221.652344 95.9375 221.703125 94.851562 221.910156 93.8125 C 222.613281 90.277344 225.261719 87.132812 229.175781 85.191406 C 230.492188 84.535156 231.980469 83.988281 233.722656 83.515625 C 233.953125 83.453125 234.203125 83.542969 234.339844 83.742188 C 234.476562 83.941406 234.46875 84.207031 234.324219 84.398438 C 231.707031 87.949219 230.617188 91.523438 231.085938 95.027344 C 231.300781 96.644531 231.859375 98.3125 232.398438 99.925781 C 233.335938 102.71875 234.300781 105.601562 233.574219 108.398438 C 232.605469 112.117188 229.203125 113.9375 225.914062 115.699219 C 223.90625 116.773438 221.835938 117.886719 220.332031 119.410156 C 218.945312 120.820312 217.996094 122.585938 217.425781 124.8125 C 217.101562 126.078125 216.898438 127.515625 216.824219 129.078125 C 216.8125 129.300781 216.675781 129.496094 216.46875 129.578125 C 216.402344 129.605469 216.328125 129.621094 216.257812 129.621094 " fill-opacity="1" fill-rule="nonzero"/><path fill="rgb(100%, 84.309387%, 0%)" d="M 216.835938 128.820312 C 219.597656 131.449219 221.996094 134.40625 223.984375 137.632812 C 225.277344 136.164062 226.941406 134.902344 228.839844 133.953125 C 230.507812 133.121094 232.289062 132.535156 234.140625 132.210938 C 234.222656 132.167969 234.308594 132.125 234.394531 132.082031 C 236.46875 131.050781 238.878906 130.664062 241.207031 130.289062 C 244.8125 129.707031 248.214844 129.160156 250.074219 126.371094 C 251.484375 124.246094 251.511719 121.503906 251.539062 118.601562 C 251.554688 116.84375 251.574219 115.027344 251.917969 113.324219 C 252.589844 109.996094 254.503906 107.0625 257.617188 104.589844 C 256.542969 104.570312 255.539062 104.628906 254.585938 104.75 C 250.601562 105.265625 247.378906 107.171875 245.734375 109.984375 C 245.246094 110.824219 244.859375 111.792969 244.484375 112.734375 C 243.753906 114.570312 243 116.464844 241.402344 117.667969 C 239.289062 119.257812 236.558594 119.042969 233.921875 118.835938 C 233.320312 118.789062 232.699219 118.738281 232.109375 118.714844 C 226.527344 118.488281 221.035156 120.816406 217.394531 124.941406 C 217.394531 124.941406 217.394531 124.945312 217.390625 124.945312 C 217.105469 126.109375 216.917969 127.410156 216.835938 128.820312 Z M 223.910156 139.175781 C 223.898438 139.175781 223.886719 139.175781 223.875 139.175781 C 223.6875 139.164062 223.515625 139.058594 223.421875 138.898438 C 221.363281 135.421875 218.824219 132.25 215.867188 129.464844 C 215.746094 129.351562 215.683594 129.191406 215.6875 129.027344 C 215.769531 127.382812 215.980469 125.871094 216.324219 124.53125 C 216.347656 124.433594 216.402344 124.34375 216.472656 124.273438 C 216.484375 124.257812 216.496094 124.242188 216.507812 124.230469 L 216.542969 124.1875 C 220.40625 119.8125 226.242188 117.34375 232.15625 117.582031 C 232.765625 117.605469 233.398438 117.65625 234.007812 117.703125 C 236.4375 117.894531 238.949219 118.09375 240.71875 116.761719 C 242.0625 115.75 242.726562 114.082031 243.429688 112.316406 C 243.816406 111.335938 244.21875 110.328125 244.753906 109.414062 C 246.578125 106.296875 250.105469 104.1875 254.4375 103.625 C 255.921875 103.433594 257.507812 103.402344 259.289062 103.523438 C 259.527344 103.539062 259.734375 103.707031 259.796875 103.941406 C 259.859375 104.171875 259.769531 104.421875 259.570312 104.558594 C 255.933594 107.050781 253.730469 110.078125 253.03125 113.546875 C 252.707031 115.148438 252.6875 116.910156 252.675781 118.613281 C 252.644531 121.554688 252.617188 124.59375 251.019531 126.996094 C 248.886719 130.203125 245.074219 130.816406 241.390625 131.410156 C 239.144531 131.769531 236.820312 132.144531 234.902344 133.097656 C 234.808594 133.144531 234.714844 133.1875 234.625 133.242188 C 234.5625 133.277344 234.5 133.304688 234.429688 133.316406 C 232.65625 133.613281 230.945312 134.171875 229.347656 134.96875 C 227.332031 135.972656 225.609375 137.355469 224.359375 138.957031 C 224.25 139.097656 224.082031 139.175781 223.910156 139.175781 " fill-opacity="1" fill-rule="nonzero"/><path fill="rgb(100%, 84.309387%, 0%)" d="M 188.890625 116.707031 C 192.503906 116.914062 196.066406 117.558594 199.484375 118.617188 C 199.648438 118.070312 199.84375 117.519531 200.066406 116.976562 C 200.699219 115.445312 201.527344 114.003906 202.523438 112.683594 C 202.675781 111.726562 202.941406 110.804688 203.3125 109.9375 C 204.226562 107.816406 205.8125 105.960938 207.347656 104.167969 C 209.71875 101.398438 211.960938 98.785156 211.566406 95.457031 C 211.269531 92.925781 209.515625 90.816406 207.65625 88.585938 C 206.53125 87.234375 205.367188 85.835938 204.527344 84.3125 C 202.886719 81.347656 202.449219 77.875 203.214844 73.972656 C 202.386719 74.65625 201.660156 75.34375 201.011719 76.054688 C 198.308594 79.015625 197.082031 82.554688 197.648438 85.761719 C 197.816406 86.714844 198.152344 87.707031 198.476562 88.664062 C 199.105469 90.535156 199.761719 92.46875 199.324219 94.417969 C 198.738281 97 196.515625 98.601562 194.367188 100.148438 C 193.882812 100.5 193.375 100.863281 192.914062 101.222656 C 189.285156 104.054688 186.765625 108.246094 185.984375 112.757812 C 186.707031 114.039062 187.664062 115.335938 188.890625 116.707031 Z M 199.875 119.90625 C 199.816406 119.90625 199.757812 119.898438 199.699219 119.878906 C 196.128906 118.714844 192.394531 118.023438 188.597656 117.832031 C 188.445312 117.820312 188.304688 117.753906 188.203125 117.644531 C 186.785156 116.078125 185.703125 114.601562 184.894531 113.132812 C 184.832031 113.023438 184.808594 112.894531 184.828125 112.769531 C 185.617188 107.90625 188.308594 103.371094 192.214844 100.328125 C 192.695312 99.953125 193.207031 99.585938 193.703125 99.226562 C 195.679688 97.800781 197.726562 96.328125 198.214844 94.167969 C 198.582031 92.53125 198.007812 90.828125 197.398438 89.023438 C 197.0625 88.027344 196.714844 87 196.527344 85.960938 C 195.902344 82.402344 197.230469 78.511719 200.171875 75.289062 C 201.179688 74.183594 202.367188 73.136719 203.800781 72.085938 C 203.992188 71.941406 204.257812 71.9375 204.457031 72.074219 C 204.65625 72.210938 204.746094 72.457031 204.683594 72.691406 C 203.53125 76.945312 203.8125 80.671875 205.523438 83.765625 C 206.308594 85.195312 207.4375 86.550781 208.527344 87.859375 C 210.414062 90.121094 212.359375 92.460938 212.695312 95.324219 C 213.148438 99.144531 210.636719 102.074219 208.210938 104.90625 C 206.734375 106.632812 205.203125 108.421875 204.359375 110.386719 C 204.003906 111.207031 203.757812 112.085938 203.625 112.996094 C 203.613281 113.089844 203.574219 113.183594 203.515625 113.257812 C 202.535156 114.53125 201.730469 115.925781 201.117188 117.40625 C 200.835938 118.09375 200.601562 118.789062 200.425781 119.480469 C 200.386719 119.632812 200.285156 119.761719 200.148438 119.835938 C 200.0625 119.882812 199.96875 119.90625 199.875 119.90625 " fill-opacity="1" fill-rule="nonzero"/><g clip-path="url(#id2)"><path fill="rgb(100%, 84.309387%, 0%)" d="M 186.371094 117.773438 C 185.992188 117.773438 185.609375 117.777344 185.230469 117.789062 C 180.078125 117.921875 175.0625 118.957031 170.324219 120.863281 C 170.082031 120.960938 169.84375 121.058594 169.601562 121.160156 C 164.96875 123.121094 160.746094 125.863281 157.042969 129.308594 C 156.503906 129.808594 155.949219 130.355469 155.339844 130.980469 C 152.746094 133.683594 150.515625 136.703125 148.714844 139.957031 C 147.996094 141.257812 147.332031 142.613281 146.742188 143.996094 C 145.75 146.347656 144.96875 148.777344 144.421875 151.214844 C 143.929688 153.378906 143.609375 155.589844 143.464844 157.785156 C 143.398438 158.738281 143.359375 159.730469 143.359375 160.730469 C 143.359375 161.386719 143.375 161.96875 143.402344 162.511719 C 143.503906 165.136719 143.851562 167.753906 144.433594 170.292969 C 145.273438 174.003906 146.613281 177.589844 148.421875 180.960938 C 148.679688 181.453125 148.957031 181.941406 149.238281 182.417969 C 151.722656 186.65625 154.890625 190.414062 158.65625 193.585938 C 159.3125 194.140625 160.003906 194.683594 160.707031 195.207031 C 163.773438 197.488281 167.121094 199.347656 170.660156 200.734375 C 172.023438 201.269531 173.410156 201.730469 174.78125 202.109375 C 178.53125 203.15625 182.433594 203.691406 186.371094 203.691406 L 186.457031 203.691406 C 187.261719 203.691406 188.042969 203.667969 188.785156 203.617188 C 192.527344 203.417969 196.214844 202.726562 199.75 201.566406 C 201.375 201.039062 202.996094 200.402344 204.570312 199.664062 C 206.820312 198.617188 208.988281 197.363281 211.015625 195.941406 C 212.820312 194.683594 214.542969 193.269531 216.136719 191.746094 C 218.554688 189.425781 220.695312 186.835938 222.503906 184.042969 C 223.230469 182.929688 223.90625 181.765625 224.519531 180.585938 C 226.136719 177.496094 227.375 174.203125 228.191406 170.804688 C 228.5625 169.273438 228.851562 167.691406 229.050781 166.105469 C 229.269531 164.339844 229.382812 162.53125 229.382812 160.730469 C 229.382812 159.675781 229.34375 158.628906 229.265625 157.628906 C 229.132812 155.710938 228.867188 153.796875 228.476562 151.9375 C 227.953125 149.410156 227.191406 146.914062 226.214844 144.519531 C 225.425781 142.585938 224.484375 140.691406 223.421875 138.898438 C 221.363281 135.421875 218.824219 132.25 215.867188 129.464844 C 215.40625 129.027344 214.914062 128.585938 214.414062 128.152344 C 211.234375 125.425781 207.6875 123.175781 203.871094 121.476562 C 202.492188 120.863281 201.089844 120.328125 199.699219 119.878906 C 196.128906 118.714844 192.394531 118.023438 188.597656 117.832031 C 187.863281 117.792969 187.113281 117.773438 186.371094 117.773438 Z M 186.457031 204.824219 L 186.371094 204.824219 C 182.328125 204.824219 178.328125 204.28125 174.476562 203.203125 C 173.070312 202.816406 171.644531 202.339844 170.246094 201.789062 C 166.613281 200.367188 163.175781 198.460938 160.027344 196.117188 C 159.304688 195.582031 158.597656 195.019531 157.925781 194.453125 C 154.0625 191.195312 150.808594 187.34375 148.261719 182.996094 C 147.96875 182.503906 147.683594 182 147.417969 181.496094 C 145.5625 178.039062 144.1875 174.351562 143.324219 170.542969 C 142.730469 167.941406 142.371094 165.253906 142.265625 162.5625 C 142.238281 162.007812 142.226562 161.40625 142.226562 160.730469 C 142.226562 159.703125 142.261719 158.683594 142.332031 157.707031 C 142.476562 155.457031 142.808594 153.1875 143.3125 150.964844 C 143.875 148.460938 144.675781 145.96875 145.695312 143.554688 C 146.300781 142.136719 146.984375 140.742188 147.722656 139.410156 C 149.570312 136.070312 151.859375 132.96875 154.523438 130.195312 C 155.144531 129.550781 155.714844 128.992188 156.269531 128.476562 C 160.066406 124.9375 164.402344 122.128906 169.15625 120.117188 C 169.402344 120.011719 169.648438 119.910156 169.898438 119.8125 C 174.761719 117.855469 179.910156 116.792969 185.199219 116.652344 C 186.347656 116.621094 187.515625 116.640625 188.652344 116.695312 C 192.550781 116.894531 196.386719 117.605469 200.050781 118.800781 C 201.476562 119.261719 202.917969 119.8125 204.332031 120.4375 C 208.25 122.1875 211.890625 124.492188 215.152344 127.292969 C 215.671875 127.742188 216.171875 128.191406 216.644531 128.640625 C 219.679688 131.496094 222.289062 134.753906 224.398438 138.320312 C 225.492188 140.164062 226.457031 142.105469 227.265625 144.089844 C 228.269531 146.546875 229.050781 149.109375 229.589844 151.707031 C 229.992188 153.617188 230.261719 155.582031 230.398438 157.546875 C 230.480469 158.574219 230.519531 159.648438 230.519531 160.730469 C 230.519531 162.578125 230.402344 164.433594 230.175781 166.246094 C 229.972656 167.875 229.675781 169.5 229.292969 171.070312 C 228.457031 174.558594 227.1875 177.9375 225.527344 181.113281 C 224.898438 182.320312 224.203125 183.515625 223.460938 184.660156 C 221.601562 187.527344 219.402344 190.183594 216.921875 192.5625 C 215.289062 194.132812 213.519531 195.578125 211.667969 196.871094 C 209.585938 198.332031 207.359375 199.617188 205.050781 200.691406 C 203.433594 201.445312 201.769531 202.105469 200.101562 202.644531 C 196.472656 203.835938 192.6875 204.546875 188.851562 204.753906 C 188.089844 204.800781 187.285156 204.824219 186.457031 204.824219 " fill-opacity="1" fill-rule="nonzero"/></g><path fill="rgb(100%, 84.309387%, 0%)" d="M 130.875 152.867188 C 131.324219 153.035156 131.742188 153.167969 132.152344 153.265625 C 135.433594 154.074219 139 153.265625 143.367188 150.726562 C 143.886719 148.488281 144.59375 146.261719 145.472656 144.097656 C 144.347656 143.644531 143.257812 143.050781 142.21875 142.328125 C 141.199219 141.617188 140.238281 140.796875 139.363281 139.886719 C 138.460938 139.578125 137.601562 139.164062 136.808594 138.648438 C 134.863281 137.386719 133.308594 135.507812 131.800781 133.691406 C 129.472656 130.886719 127.273438 128.234375 123.925781 128.050781 C 121.375 127.910156 118.992188 129.285156 116.46875 130.734375 C 114.949219 131.613281 113.378906 132.515625 111.738281 133.082031 C 108.527344 134.1875 105.023438 134.027344 101.308594 132.601562 C 101.84375 133.542969 102.394531 134.378906 102.984375 135.132812 C 105.441406 138.289062 108.710938 140.097656 111.953125 140.097656 C 111.964844 140.097656 111.976562 140.097656 111.988281 140.097656 C 112.960938 140.089844 113.996094 139.933594 114.996094 139.777344 C 116.949219 139.476562 118.972656 139.164062 120.816406 139.929688 C 123.257812 140.941406 124.457031 143.394531 125.613281 145.765625 C 125.878906 146.308594 126.152344 146.875 126.433594 147.394531 C 127.558594 149.492188 129.050781 151.332031 130.875 152.867188 Z M 134.65625 154.703125 C 133.710938 154.703125 132.789062 154.589844 131.882812 154.367188 C 131.402344 154.25 130.910156 154.097656 130.382812 153.894531 C 130.320312 153.871094 130.269531 153.839844 130.21875 153.800781 C 128.25 152.15625 126.636719 150.183594 125.433594 147.933594 C 125.140625 147.390625 124.863281 146.816406 124.59375 146.261719 C 123.527344 144.082031 122.425781 141.824219 120.378906 140.976562 C 118.828125 140.332031 117.050781 140.605469 115.171875 140.898438 C 114.128906 141.058594 113.050781 141.226562 111.992188 141.230469 C 111.980469 141.230469 111.964844 141.230469 111.953125 141.230469 C 108.355469 141.230469 104.761719 139.265625 102.085938 135.828125 C 101.175781 134.660156 100.34375 133.308594 99.542969 131.707031 C 99.4375 131.492188 99.476562 131.230469 99.644531 131.058594 C 99.8125 130.882812 100.070312 130.835938 100.289062 130.9375 C 104.292969 132.804688 108.019531 133.164062 111.367188 132.011719 C 112.902344 131.480469 114.429688 130.601562 115.902344 129.753906 C 118.457031 128.28125 121.097656 126.757812 123.988281 126.921875 C 127.832031 127.128906 130.296875 130.097656 132.675781 132.96875 C 134.128906 134.71875 135.628906 136.527344 137.425781 137.695312 C 138.179688 138.183594 138.996094 138.570312 139.851562 138.855469 C 139.941406 138.882812 140.023438 138.933594 140.089844 139.003906 C 140.9375 139.898438 141.875 140.703125 142.871094 141.394531 C 143.996094 142.179688 145.183594 142.800781 146.414062 143.242188 C 146.558594 143.292969 146.675781 143.40625 146.738281 143.550781 C 146.804688 143.691406 146.804688 143.851562 146.742188 143.996094 C 145.75 146.347656 144.96875 148.777344 144.421875 151.214844 C 144.386719 151.367188 144.292969 151.5 144.15625 151.578125 C 140.597656 153.679688 137.515625 154.703125 134.65625 154.703125 " fill-opacity="1" fill-rule="nonzero"/><g clip-path="url(#id3)"><path fill="rgb(100%, 84.309387%, 0%)" d="M 169.890625 73.027344 C 169.371094 73.96875 168.941406 74.871094 168.601562 75.769531 C 167.167969 79.515625 167.320312 83.257812 169.023438 86.035156 C 169.53125 86.863281 170.203125 87.664062 170.855469 88.4375 C 172.128906 89.945312 173.445312 91.511719 173.746094 93.484375 C 174.148438 96.101562 172.664062 98.402344 171.226562 100.632812 C 170.90625 101.132812 170.570312 101.652344 170.269531 102.160156 C 167.433594 106.953125 166.882812 112.894531 168.792969 118.050781 C 168.890625 118.308594 168.996094 118.574219 169.109375 118.832031 C 169.269531 119.207031 169.445312 119.570312 169.628906 119.921875 C 169.71875 119.882812 169.808594 119.847656 169.898438 119.8125 C 174.761719 117.855469 179.910156 116.792969 185.199219 116.652344 C 185.90625 116.632812 186.625 116.632812 187.335938 116.648438 C 186.335938 115.445312 185.527344 114.289062 184.894531 113.132812 C 183.644531 110.875 183.070312 108.695312 183.140625 106.472656 C 183.214844 104.164062 184.011719 101.863281 184.785156 99.636719 C 185.980469 96.1875 187.109375 92.933594 185.527344 89.976562 C 184.324219 87.730469 181.914062 86.40625 179.363281 85.007812 C 177.824219 84.164062 176.234375 83.289062 174.898438 82.183594 C 172.285156 80.015625 170.605469 76.941406 169.890625 73.027344 Z M 169.375 121.207031 C 169.179688 121.207031 168.988281 121.105469 168.882812 120.921875 C 168.585938 120.410156 168.3125 119.855469 168.066406 119.285156 C 167.949219 119.007812 167.832031 118.726562 167.726562 118.445312 C 165.699219 112.972656 166.285156 106.667969 169.292969 101.582031 C 169.601562 101.058594 169.945312 100.527344 170.273438 100.015625 C 171.59375 97.96875 172.960938 95.847656 172.625 93.65625 C 172.371094 91.996094 171.210938 90.621094 169.984375 89.164062 C 169.308594 88.359375 168.605469 87.527344 168.054688 86.628906 C 166.167969 83.546875 165.980469 79.441406 167.539062 75.367188 C 168.070312 73.972656 168.792969 72.5625 169.746094 71.058594 C 169.875 70.855469 170.117188 70.753906 170.351562 70.808594 C 170.585938 70.863281 170.761719 71.0625 170.789062 71.300781 C 171.273438 75.679688 172.898438 79.046875 175.625 81.308594 C 176.878906 82.34375 178.421875 83.195312 179.910156 84.011719 C 182.496094 85.433594 185.164062 86.898438 186.527344 89.441406 C 188.347656 92.835938 187.082031 96.480469 185.859375 100.007812 C 185.113281 102.152344 184.34375 104.371094 184.277344 106.507812 C 184.214844 108.523438 184.738281 110.511719 185.886719 112.585938 C 186.652344 113.976562 187.6875 115.382812 189.046875 116.882812 C 189.199219 117.054688 189.238281 117.296875 189.136719 117.507812 C 189.039062 117.714844 188.824219 117.84375 188.597656 117.832031 C 187.488281 117.773438 186.355469 117.753906 185.230469 117.789062 C 180.078125 117.921875 175.0625 118.957031 170.324219 120.863281 C 170.082031 120.960938 169.84375 121.058594 169.601562 121.160156 C 169.527344 121.191406 169.453125 121.207031 169.375 121.207031 " fill-opacity="1" fill-rule="nonzero"/></g><g clip-path="url(#id4)"><path fill="rgb(100%, 84.309387%, 0%)" d="M 142.898438 157.746094 L 142.902344 157.746094 Z M 116.882812 160.839844 C 116.992188 160.839844 117.101562 160.84375 117.210938 160.847656 C 119.855469 161 121.796875 162.921875 123.679688 164.785156 C 124.105469 165.210938 124.550781 165.648438 124.984375 166.046875 C 127.609375 168.457031 130.859375 170.0625 134.378906 170.691406 C 136.332031 171.039062 138.300781 171.074219 140.242188 170.789062 C 141.261719 170.640625 142.261719 170.394531 143.21875 170.058594 C 142.6875 167.605469 142.367188 165.085938 142.265625 162.5625 C 142.238281 162.007812 142.226562 161.40625 142.226562 160.730469 C 142.226562 159.703125 142.261719 158.6875 142.332031 157.707031 C 142.453125 155.871094 142.691406 154.027344 143.050781 152.203125 C 138.804688 154.503906 135.234375 155.191406 131.882812 154.367188 C 131.402344 154.25 130.910156 154.097656 130.382812 153.894531 C 128.695312 153.253906 127.082031 152.28125 125.523438 151.34375 C 122.398438 149.460938 119.445312 147.679688 116.222656 148.613281 C 113.773438 149.320312 111.976562 151.398438 110.074219 153.601562 C 108.929688 154.929688 107.742188 156.300781 106.378906 157.378906 C 103.714844 159.480469 100.355469 160.480469 96.375 160.367188 C 97.191406 161.078125 97.992188 161.683594 98.792969 162.199219 C 102.167969 164.378906 105.863281 165.003906 108.933594 163.917969 C 109.851562 163.59375 110.773438 163.101562 111.667969 162.625 C 113.316406 161.746094 115.019531 160.839844 116.882812 160.839844 Z M 137.621094 172.117188 C 136.472656 172.117188 135.324219 172.011719 134.179688 171.808594 C 130.445312 171.140625 127 169.4375 124.21875 166.882812 C 123.765625 166.46875 123.316406 166.023438 122.878906 165.589844 C 121.148438 163.878906 119.359375 162.109375 117.144531 161.984375 C 115.472656 161.886719 113.882812 162.730469 112.203125 163.625 C 111.273438 164.125 110.3125 164.636719 109.3125 164.988281 C 105.90625 166.191406 101.847656 165.523438 98.179688 163.152344 C 96.9375 162.355469 95.703125 161.355469 94.414062 160.101562 C 94.242188 159.933594 94.191406 159.675781 94.296875 159.453125 C 94.398438 159.238281 94.628906 159.109375 94.867188 159.132812 C 99.257812 159.570312 102.894531 158.683594 105.675781 156.488281 C 106.953125 155.480469 108.105469 154.148438 109.214844 152.859375 C 111.140625 150.628906 113.132812 148.324219 115.910156 147.523438 C 119.605469 146.453125 122.914062 148.445312 126.109375 150.371094 C 127.625 151.28125 129.195312 152.226562 130.785156 152.835938 C 131.269531 153.019531 131.714844 153.160156 132.152344 153.265625 C 135.484375 154.085938 139.117188 153.238281 143.578125 150.601562 C 143.773438 150.488281 144.019531 150.5 144.203125 150.632812 C 144.386719 150.765625 144.472656 150.996094 144.421875 151.214844 C 143.929688 153.378906 143.609375 155.589844 143.464844 157.785156 C 143.464844 157.785156 143.464844 157.785156 143.464844 157.789062 C 143.398438 158.738281 143.359375 159.730469 143.359375 160.730469 C 143.359375 161.386719 143.375 161.96875 143.402344 162.511719 C 143.503906 165.136719 143.851562 167.753906 144.433594 170.292969 C 144.496094 170.566406 144.347656 170.84375 144.085938 170.945312 C 142.914062 171.402344 141.675781 171.730469 140.40625 171.914062 C 139.484375 172.046875 138.554688 172.117188 137.621094 172.117188 " fill-opacity="1" fill-rule="nonzero"/></g><g clip-path="url(#id5)"><path fill="rgb(100%, 84.309387%, 0%)" d="M 239.503906 166.730469 C 240.683594 166.730469 241.835938 166.898438 242.933594 167.234375 C 245.148438 167.917969 247.160156 169.296875 249.109375 170.628906 C 252.117188 172.6875 254.960938 174.636719 258.234375 173.894531 C 260.722656 173.332031 262.636719 171.359375 264.660156 169.273438 C 265.882812 168.015625 267.148438 166.710938 268.570312 165.71875 C 271.355469 163.773438 274.769531 162.96875 278.734375 163.316406 C 277.960938 162.558594 277.195312 161.90625 276.429688 161.34375 C 273.1875 158.972656 269.53125 158.132812 266.40625 159.039062 C 265.46875 159.308594 264.515625 159.746094 263.597656 160.171875 C 261.800781 160.996094 259.949219 161.851562 257.964844 161.625 C 255.335938 161.320312 253.503906 159.285156 251.738281 157.320312 C 251.335938 156.871094 250.917969 156.40625 250.507812 155.984375 C 247.308594 152.683594 242.871094 150.628906 238.3125 150.332031 C 235.042969 152.027344 232.386719 155.15625 230.414062 157.753906 C 230.484375 158.722656 230.519531 159.722656 230.519531 160.730469 C 230.519531 162.324219 230.433594 163.925781 230.265625 165.496094 C 232.074219 165.261719 234.019531 165.367188 235.933594 165.816406 C 236.917969 166.039062 237.902344 166.355469 238.859375 166.746094 C 239.074219 166.734375 239.289062 166.730469 239.503906 166.730469 Z M 256.808594 175.191406 C 253.761719 175.191406 251.074219 173.351562 248.464844 171.566406 C 246.589844 170.28125 244.648438 168.953125 242.601562 168.320312 C 241.394531 167.953125 240.113281 167.804688 238.796875 167.886719 C 238.710938 167.890625 238.625 167.878906 238.542969 167.84375 C 237.605469 167.453125 236.640625 167.144531 235.675781 166.921875 C 233.644531 166.449219 231.582031 166.382812 229.71875 166.734375 C 229.539062 166.761719 229.355469 166.710938 229.222656 166.585938 C 229.089844 166.464844 229.027344 166.285156 229.050781 166.105469 C 229.269531 164.339844 229.382812 162.53125 229.382812 160.730469 C 229.382812 159.675781 229.34375 158.628906 229.265625 157.628906 C 229.253906 157.488281 229.296875 157.355469 229.378906 157.242188 C 231.464844 154.476562 234.320312 151.066406 237.933594 149.25 C 238.023438 149.203125 238.125 149.183594 238.222656 149.191406 C 243.117188 149.464844 247.894531 151.652344 251.324219 155.195312 C 251.75 155.632812 252.171875 156.105469 252.582031 156.558594 C 254.207031 158.371094 255.890625 160.242188 258.09375 160.496094 C 259.757812 160.6875 261.390625 159.9375 263.121094 159.140625 C 264.078125 158.699219 265.070312 158.242188 266.089844 157.949219 C 269.558594 156.945312 273.570312 157.851562 277.097656 160.429688 C 278.292969 161.300781 279.460938 162.367188 280.675781 163.691406 C 280.839844 163.871094 280.871094 164.128906 280.757812 164.34375 C 280.644531 164.554688 280.410156 164.675781 280.167969 164.636719 C 275.808594 163.941406 272.125 164.621094 269.222656 166.648438 C 267.886719 167.578125 266.660156 168.84375 265.476562 170.0625 C 263.425781 172.175781 261.300781 174.363281 258.484375 175.003906 C 257.914062 175.132812 257.355469 175.191406 256.808594 175.191406 " fill-opacity="1" fill-rule="nonzero"/></g><g fill="rgb(0%, 0%, 0%)" fill-opacity="1"><g transform="translate(3.473285, 250.863836)"><g><path d="M 68.90625 -0.953125 L 70.046875 -0.953125 L 70.046875 0 L 49.4375 0 L 49.4375 -0.953125 L 50.671875 -0.953125 C 52.242188 -0.953125 53.613281 -1.5 54.78125 -2.59375 C 55.945312 -3.695312 56.59375 -5.070312 56.71875 -6.71875 L 56.71875 -31.296875 L 20.140625 -31.296875 L 20.140625 -6.625 C 20.140625 2.207031 17.992188 8.132812 13.703125 11.15625 C 11.753906 12.539062 9.234375 13.582031 6.140625 14.28125 L 5.671875 13.421875 C 8.503906 11.910156 10.597656 9.578125 11.953125 6.421875 C 13.304688 3.273438 13.984375 -1.070312 13.984375 -6.625 L 13.984375 -59.359375 C 13.984375 -61.003906 13.382812 -62.394531 12.1875 -63.53125 C 11 -64.664062 9.582031 -65.234375 7.9375 -65.234375 L 6.8125 -65.234375 L 6.8125 -66.171875 L 27.421875 -66.171875 L 27.421875 -65.234375 L 26.1875 -65.234375 C 24.550781 -65.234375 23.148438 -64.664062 21.984375 -63.53125 C 20.816406 -62.394531 20.203125 -61.003906 20.140625 -59.359375 L 20.140625 -34.125 L 56.71875 -34.125 L 56.71875 -57.671875 C 56.78125 -65.734375 58.578125 -71.335938 62.109375 -74.484375 C 64.253906 -76.378906 67.148438 -77.738281 70.796875 -78.5625 L 71.28125 -77.703125 C 68.4375 -76.191406 66.320312 -73.859375 64.9375 -70.703125 C 63.550781 -67.554688 62.859375 -63.210938 62.859375 -57.671875 L 62.859375 -6.90625 C 62.859375 -5.257812 63.441406 -3.851562 64.609375 -2.6875 C 65.773438 -1.53125 67.207031 -0.953125 68.90625 -0.953125 Z M 68.90625 -0.953125 "/></g></g></g><g fill="rgb(0%, 0%, 0%)" fill-opacity="1"><g transform="translate(80.316352, 250.863836)"><g><path d="M 13.890625 -58 C 20.640625 -64.332031 29.382812 -67.5 40.125 -67.5 C 50.875 -67.5 59.617188 -64.332031 66.359375 -58 C 73.097656 -51.664062 76.46875 -43.359375 76.46875 -33.078125 C 76.46875 -22.804688 73.097656 -14.503906 66.359375 -8.171875 C 59.617188 -1.835938 50.875 1.328125 40.125 1.328125 C 29.382812 1.328125 20.640625 -1.835938 13.890625 -8.171875 C 7.148438 -14.503906 3.78125 -22.804688 3.78125 -33.078125 C 3.78125 -43.359375 7.148438 -51.664062 13.890625 -58 Z M 19.046875 -10.203125 C 24.367188 -4.410156 31.378906 -1.515625 40.078125 -1.515625 C 48.773438 -1.515625 55.785156 -4.410156 61.109375 -10.203125 C 66.441406 -16.003906 69.109375 -23.628906 69.109375 -33.078125 C 69.109375 -42.535156 66.441406 -50.160156 61.109375 -55.953125 C 55.785156 -61.753906 48.773438 -64.65625 40.078125 -64.65625 C 31.378906 -64.65625 24.367188 -61.753906 19.046875 -55.953125 C 13.722656 -50.160156 11.0625 -42.535156 11.0625 -33.078125 C 11.0625 -23.628906 13.722656 -16.003906 19.046875 -10.203125 Z M 19.046875 -10.203125 "/></g></g></g><g fill="rgb(0%, 0%, 0%)" fill-opacity="1"><g transform="translate(160.46755, 250.863836)"><g><path d="M 5.765625 -3.875 C 5.578125 -4.757812 5.484375 -6.460938 5.484375 -8.984375 C 5.484375 -11.503906 5.957031 -14.179688 6.90625 -17.015625 L 7.75 -17.015625 C 7.6875 -16.316406 7.65625 -15.625 7.65625 -14.9375 C 7.65625 -11.09375 8.820312 -7.894531 11.15625 -5.34375 C 13.488281 -2.789062 16.578125 -1.515625 20.421875 -1.515625 C 24.390625 -1.515625 27.648438 -2.710938 30.203125 -5.109375 C 32.753906 -7.503906 34.03125 -10.507812 34.03125 -14.125 C 34.03125 -17.75 32.800781 -20.695312 30.34375 -22.96875 L 12.1875 -39.796875 C 8.789062 -42.953125 7.09375 -46.765625 7.09375 -51.234375 C 7.09375 -55.710938 8.585938 -59.539062 11.578125 -62.71875 C 14.578125 -65.90625 18.628906 -67.5 23.734375 -67.5 C 26.117188 -67.5 28.828125 -67.179688 31.859375 -66.546875 L 35.546875 -66.546875 L 35.546875 -54.921875 L 34.6875 -54.921875 C 34.6875 -57.878906 33.660156 -60.238281 31.609375 -62 C 29.566406 -63.769531 26.9375 -64.65625 23.71875 -64.65625 C 20.507812 -64.65625 17.816406 -63.582031 15.640625 -61.4375 C 13.472656 -59.300781 12.390625 -56.625 12.390625 -53.40625 C 12.390625 -50.195312 13.648438 -47.425781 16.171875 -45.09375 L 34.78125 -27.890625 C 37.9375 -24.984375 39.515625 -21.007812 39.515625 -15.96875 C 39.515625 -10.925781 37.90625 -6.78125 34.6875 -3.53125 C 31.476562 -0.289062 27.195312 1.328125 21.84375 1.328125 C 19.0625 1.328125 16.109375 0.898438 12.984375 0.046875 C 9.867188 -0.804688 7.460938 -2.113281 5.765625 -3.875 Z M 5.765625 -3.875 "/></g></g></g><g fill="rgb(0%, 0%, 0%)" fill-opacity="1"><g transform="translate(205.458072, 250.863836)"><g><path d="M 55.671875 -57.765625 C 55.671875 -59.273438 55.132812 -60.582031 54.0625 -61.6875 C 53 -62.789062 51.742188 -63.375 50.296875 -63.4375 L 32.328125 -63.4375 L 32.328125 -6.8125 C 32.390625 -5.164062 33.003906 -3.773438 34.171875 -2.640625 C 35.335938 -1.515625 36.738281 -0.953125 38.375 -0.953125 L 39.609375 -0.953125 L 39.609375 0 L 18.90625 0 L 18.90625 -0.953125 L 20.140625 -0.953125 C 21.773438 -0.953125 23.175781 -1.515625 24.34375 -2.640625 C 25.507812 -3.773438 26.125 -5.132812 26.1875 -6.71875 L 26.1875 -63.4375 L 8.21875 -63.4375 C 6.707031 -63.375 5.429688 -62.789062 4.390625 -61.6875 C 3.359375 -60.582031 2.84375 -59.273438 2.84375 -57.765625 L 2.84375 -56.15625 L 1.890625 -56.0625 L 1.890625 -67.96875 C 2.835938 -67.59375 4.472656 -67.210938 6.796875 -66.828125 C 9.128906 -66.453125 11.273438 -66.265625 13.234375 -66.265625 L 45.1875 -66.265625 C 48.269531 -66.265625 50.835938 -66.5 52.890625 -66.96875 C 54.941406 -67.445312 56.1875 -67.78125 56.625 -67.96875 L 56.625 -56.0625 L 55.671875 -56.15625 Z M 55.671875 -57.765625 "/></g></g></g><g fill="rgb(0%, 0%, 0%)" fill-opacity="1"><g transform="translate(263.870156, 250.863836)"><g><path d="M 6.90625 -0.953125 C 8.539062 -0.953125 9.941406 -1.53125 11.109375 -2.6875 C 12.273438 -3.851562 12.890625 -5.257812 12.953125 -6.90625 L 12.953125 -59.84375 C 12.953125 -61.351562 12.351562 -62.628906 11.15625 -63.671875 C 9.957031 -64.710938 8.539062 -65.234375 6.90625 -65.234375 L 5.765625 -65.234375 L 5.671875 -66.171875 L 33.375 -66.171875 C 35.320312 -66.171875 37.445312 -66.359375 39.75 -66.734375 C 42.050781 -67.117188 43.675781 -67.5 44.625 -67.875 L 44.625 -55.96875 L 43.671875 -55.96875 L 43.671875 -57.671875 C 43.671875 -59.179688 43.148438 -60.46875 42.109375 -61.53125 C 41.066406 -62.601562 39.820312 -63.171875 38.375 -63.234375 L 19.09375 -63.234375 L 19.09375 -34.03125 L 35.078125 -34.03125 C 36.335938 -34.09375 37.40625 -34.5625 38.28125 -35.4375 C 39.164062 -36.320312 39.609375 -37.429688 39.609375 -38.765625 L 39.609375 -40.078125 L 40.546875 -40.078125 L 40.546875 -25.140625 L 39.609375 -25.140625 L 39.609375 -26.5625 C 39.609375 -27.820312 39.179688 -28.890625 38.328125 -29.765625 C 37.484375 -30.648438 36.429688 -31.128906 35.171875 -31.203125 L 19.09375 -31.203125 L 19.09375 -2.9375 L 32.609375 -2.9375 C 37.273438 -2.9375 40.835938 -3.972656 43.296875 -6.046875 C 45.753906 -8.128906 47.800781 -11.21875 49.4375 -15.3125 L 50.390625 -15.3125 L 44.90625 0 L 5.671875 0 L 5.671875 -0.953125 Z M 6.90625 -0.953125 "/></g></g></g><g fill="rgb(0%, 0%, 0%)" fill-opacity="1"><g transform="translate(318.40698, 250.863836)"><g><path d="M 6.90625 -0.953125 C 8.539062 -0.953125 9.941406 -1.53125 11.109375 -2.6875 C 12.273438 -3.851562 12.890625 -5.257812 12.953125 -6.90625 L 12.953125 -59.265625 C 12.890625 -60.910156 12.273438 -62.316406 11.109375 -63.484375 C 9.941406 -64.648438 8.539062 -65.234375 6.90625 -65.234375 L 5.671875 -65.234375 L 5.671875 -66.171875 L 26.375 -66.171875 L 26.375 -65.234375 L 25.140625 -65.234375 C 22.878906 -65.234375 21.148438 -64.253906 19.953125 -62.296875 C 19.378906 -61.347656 19.09375 -60.335938 19.09375 -59.265625 L 19.09375 -2.9375 L 32.609375 -2.9375 C 37.273438 -2.9375 40.835938 -3.972656 43.296875 -6.046875 C 45.753906 -8.128906 47.800781 -11.21875 49.4375 -15.3125 L 50.390625 -15.3125 L 44.90625 0 L 5.671875 0 L 5.671875 -0.953125 Z M 6.90625 -0.953125 "/></g></g></g><g fill="rgb(0%, 0%, 0%)" fill-opacity="1"><g transform="translate(-0.341931, 299.071961)"><g><path d="M 13.1875 -1.390625 L 13.1875 0 L 2.46875 0 L 2.46875 -15.15625 L 12.859375 -15.15625 L 12.859375 -13.765625 L 4.078125 -13.765625 L 4.078125 -8.375 L 11.90625 -8.375 L 11.90625 -7.015625 L 4.078125 -7.015625 L 4.078125 -1.390625 Z M 13.1875 -1.390625 "/></g></g></g><g fill="rgb(0%, 0%, 0%)" fill-opacity="1"><g transform="translate(27.18122, 299.071961)"><g><path d="M 2.46875 -15.15625 L 4.078125 -15.15625 L 4.078125 -1.390625 L 12.5625 -1.390625 L 12.5625 0 L 2.46875 0 Z M 2.46875 -15.15625 "/></g></g></g><g fill="rgb(0%, 0%, 0%)" fill-opacity="1"><g transform="translate(52.972416, 299.071961)"><g/></g></g><g fill="rgb(0%, 0%, 0%)" fill-opacity="1"><g transform="translate(71.684184, 299.071961)"><g><path d="M 12.828125 0 L 9.359375 -4.875 C 8.960938 -4.832031 8.554688 -4.8125 8.140625 -4.8125 L 4.078125 -4.8125 L 4.078125 0 L 2.46875 0 L 2.46875 -15.15625 L 8.140625 -15.15625 C 10.078125 -15.15625 11.59375 -14.691406 12.6875 -13.765625 C 13.789062 -12.847656 14.34375 -11.582031 14.34375 -9.96875 C 14.34375 -8.78125 14.039062 -7.773438 13.4375 -6.953125 C 12.832031 -6.140625 11.976562 -5.554688 10.875 -5.203125 L 14.578125 0 Z M 8.09375 -6.171875 C 9.601562 -6.171875 10.753906 -6.503906 11.546875 -7.171875 C 12.335938 -7.835938 12.734375 -8.769531 12.734375 -9.96875 C 12.734375 -11.1875 12.335938 -12.125 11.546875 -12.78125 C 10.753906 -13.4375 9.601562 -13.765625 8.09375 -13.765625 L 4.078125 -13.765625 L 4.078125 -6.171875 Z M 8.09375 -6.171875 "/></g></g></g><g fill="rgb(0%, 0%, 0%)" fill-opacity="1"><g transform="translate(100.376418, 299.071961)"><g><path d="M 13.1875 -1.390625 L 13.1875 0 L 2.46875 0 L 2.46875 -15.15625 L 12.859375 -15.15625 L 12.859375 -13.765625 L 4.078125 -13.765625 L 4.078125 -8.375 L 11.90625 -8.375 L 11.90625 -7.015625 L 4.078125 -7.015625 L 4.078125 -1.390625 Z M 13.1875 -1.390625 "/></g></g></g><g fill="rgb(0%, 0%, 0%)" fill-opacity="1"><g transform="translate(127.899569, 299.071961)"><g><path d="M 13.1875 -1.390625 L 13.1875 0 L 2.46875 0 L 2.46875 -15.15625 L 12.859375 -15.15625 L 12.859375 -13.765625 L 4.078125 -13.765625 L 4.078125 -8.375 L 11.90625 -8.375 L 11.90625 -7.015625 L 4.078125 -7.015625 L 4.078125 -1.390625 Z M 13.1875 -1.390625 "/></g></g></g><g fill="rgb(0%, 0%, 0%)" fill-opacity="1"><g transform="translate(155.422721, 299.071961)"><g><path d="M 15.140625 -15.15625 L 15.140625 0 L 13.8125 0 L 4.078125 -12.296875 L 4.078125 0 L 2.46875 0 L 2.46875 -15.15625 L 3.796875 -15.15625 L 13.5625 -2.859375 L 13.5625 -15.15625 Z M 15.140625 -15.15625 "/></g></g></g><g fill="rgb(0%, 0%, 0%)" fill-opacity="1"><g transform="translate(186.063424, 299.071961)"><g><path d="M 9.046875 0.125 C 7.546875 0.125 6.191406 -0.203125 4.984375 -0.859375 C 3.785156 -1.523438 2.84375 -2.445312 2.15625 -3.625 C 1.46875 -4.800781 1.125 -6.117188 1.125 -7.578125 C 1.125 -9.035156 1.46875 -10.351562 2.15625 -11.53125 C 2.84375 -12.707031 3.789062 -13.628906 5 -14.296875 C 6.21875 -14.960938 7.578125 -15.296875 9.078125 -15.296875 C 10.203125 -15.296875 11.238281 -15.101562 12.1875 -14.71875 C 13.144531 -14.34375 13.957031 -13.796875 14.625 -13.078125 L 13.59375 -12.0625 C 12.414062 -13.257812 10.925781 -13.859375 9.125 -13.859375 C 7.914062 -13.859375 6.820312 -13.582031 5.84375 -13.03125 C 4.863281 -12.488281 4.09375 -11.738281 3.53125 -10.78125 C 2.976562 -9.832031 2.703125 -8.765625 2.703125 -7.578125 C 2.703125 -6.390625 2.976562 -5.316406 3.53125 -4.359375 C 4.09375 -3.410156 4.863281 -2.660156 5.84375 -2.109375 C 6.820312 -1.566406 7.914062 -1.296875 9.125 -1.296875 C 10.9375 -1.296875 12.425781 -1.90625 13.59375 -3.125 L 14.625 -2.09375 C 13.957031 -1.375 13.140625 -0.820312 12.171875 -0.4375 C 11.210938 -0.0625 10.171875 0.125 9.046875 0.125 Z M 9.046875 0.125 "/></g></g></g><g fill="rgb(0%, 0%, 0%)" fill-opacity="1"><g transform="translate(214.669067, 299.071961)"><g><path d="M 8.578125 0.125 C 6.609375 0.125 5.078125 -0.4375 3.984375 -1.5625 C 2.890625 -2.6875 2.34375 -4.320312 2.34375 -6.46875 L 2.34375 -15.15625 L 3.9375 -15.15625 L 3.9375 -6.546875 C 3.9375 -4.773438 4.332031 -3.457031 5.125 -2.59375 C 5.925781 -1.726562 7.078125 -1.296875 8.578125 -1.296875 C 10.085938 -1.296875 11.238281 -1.726562 12.03125 -2.59375 C 12.832031 -3.457031 13.234375 -4.773438 13.234375 -6.546875 L 13.234375 -15.15625 L 14.796875 -15.15625 L 14.796875 -6.46875 C 14.796875 -4.320312 14.25 -2.6875 13.15625 -1.5625 C 12.0625 -0.4375 10.535156 0.125 8.578125 0.125 Z M 8.578125 0.125 "/></g></g></g><g fill="rgb(0%, 0%, 0%)" fill-opacity="1"><g transform="translate(244.855119, 299.071961)"><g><path d="M 13.1875 -1.390625 L 13.1875 0 L 2.46875 0 L 2.46875 -15.15625 L 12.859375 -15.15625 L 12.859375 -13.765625 L 4.078125 -13.765625 L 4.078125 -8.375 L 11.90625 -8.375 L 11.90625 -7.015625 L 4.078125 -7.015625 L 4.078125 -1.390625 Z M 13.1875 -1.390625 "/></g></g></g><g fill="rgb(0%, 0%, 0%)" fill-opacity="1"><g transform="translate(272.378262, 299.071961)"><g><path d="M 15.140625 -15.15625 L 15.140625 0 L 13.8125 0 L 4.078125 -12.296875 L 4.078125 0 L 2.46875 0 L 2.46875 -15.15625 L 3.796875 -15.15625 L 13.5625 -2.859375 L 13.5625 -15.15625 Z M 15.140625 -15.15625 "/></g></g></g><g fill="rgb(0%, 0%, 0%)" fill-opacity="1"><g transform="translate(303.01895, 299.071961)"><g><path d="M 5.421875 -13.765625 L 0.09375 -13.765625 L 0.09375 -15.15625 L 12.34375 -15.15625 L 12.34375 -13.765625 L 7.015625 -13.765625 L 7.015625 0 L 5.421875 0 Z M 5.421875 -13.765625 "/></g></g></g><g fill="rgb(0%, 0%, 0%)" fill-opacity="1"><g transform="translate(328.485395, 299.071961)"><g><path d="M 12.828125 0 L 9.359375 -4.875 C 8.960938 -4.832031 8.554688 -4.8125 8.140625 -4.8125 L 4.078125 -4.8125 L 4.078125 0 L 2.46875 0 L 2.46875 -15.15625 L 8.140625 -15.15625 C 10.078125 -15.15625 11.59375 -14.691406 12.6875 -13.765625 C 13.789062 -12.847656 14.34375 -11.582031 14.34375 -9.96875 C 14.34375 -8.78125 14.039062 -7.773438 13.4375 -6.953125 C 12.832031 -6.140625 11.976562 -5.554688 10.875 -5.203125 L 14.578125 0 Z M 8.09375 -6.171875 C 9.601562 -6.171875 10.753906 -6.503906 11.546875 -7.171875 C 12.335938 -7.835938 12.734375 -8.769531 12.734375 -9.96875 C 12.734375 -11.1875 12.335938 -12.125 11.546875 -12.78125 C 10.753906 -13.4375 9.601562 -13.765625 8.09375 -13.765625 L 4.078125 -13.765625 L 4.078125 -6.171875 Z M 8.09375 -6.171875 "/></g></g></g><g fill="rgb(0%, 0%, 0%)" fill-opacity="1"><g transform="translate(357.177621, 299.071961)"><g><path d="M 9.09375 0.125 C 7.59375 0.125 6.234375 -0.207031 5.015625 -0.875 C 3.796875 -1.550781 2.84375 -2.472656 2.15625 -3.640625 C 1.46875 -4.804688 1.125 -6.117188 1.125 -7.578125 C 1.125 -9.035156 1.46875 -10.347656 2.15625 -11.515625 C 2.84375 -12.691406 3.796875 -13.613281 5.015625 -14.28125 C 6.234375 -14.957031 7.59375 -15.296875 9.09375 -15.296875 C 10.59375 -15.296875 11.945312 -14.960938 13.15625 -14.296875 C 14.363281 -13.628906 15.3125 -12.707031 16 -11.53125 C 16.695312 -10.351562 17.046875 -9.035156 17.046875 -7.578125 C 17.046875 -6.117188 16.695312 -4.800781 16 -3.625 C 15.3125 -2.445312 14.363281 -1.523438 13.15625 -0.859375 C 11.945312 -0.203125 10.59375 0.125 9.09375 0.125 Z M 9.09375 -1.296875 C 10.289062 -1.296875 11.375 -1.566406 12.34375 -2.109375 C 13.3125 -2.648438 14.066406 -3.398438 14.609375 -4.359375 C 15.160156 -5.316406 15.4375 -6.390625 15.4375 -7.578125 C 15.4375 -8.765625 15.160156 -9.835938 14.609375 -10.796875 C 14.066406 -11.753906 13.3125 -12.503906 12.34375 -13.046875 C 11.375 -13.585938 10.289062 -13.859375 9.09375 -13.859375 C 7.894531 -13.859375 6.804688 -13.585938 5.828125 -13.046875 C 4.859375 -12.503906 4.09375 -11.753906 3.53125 -10.796875 C 2.976562 -9.835938 2.703125 -8.765625 2.703125 -7.578125 C 2.703125 -6.390625 2.976562 -5.316406 3.53125 -4.359375 C 4.09375 -3.398438 4.859375 -2.648438 5.828125 -2.109375 C 6.804688 -1.566406 7.894531 -1.296875 9.09375 -1.296875 Z M 9.09375 -1.296875 "/></g></g></g></svg>