<svg xmlns="http://www.w3.org/2000/svg" xmlns:xlink="http://www.w3.org/1999/xlink" width="650" zoomAndPan="magnify" viewBox="0 0 487.5 225" height="300" preserveAspectRatio="xMidYMid meet" version="1.0"><defs><g/><clipPath id="id1"><path d="M 272 103 L 323 103 L 323 104.953125 L 272 104.953125 Z M 272 103 " clip-rule="nonzero"/></clipPath><clipPath id="id2"><path d="M 194 56 L 280 56 L 280 104.953125 L 194 104.953125 Z M 194 56 " clip-rule="nonzero"/></clipPath><clipPath id="id3"><path d="M 218 12.703125 L 241 12.703125 L 241 62 L 218 62 Z M 218 12.703125 " clip-rule="nonzero"/></clipPath><clipPath id="id4"><path d="M 148.476562 86 L 197 86 L 197 104.953125 L 148.476562 104.953125 Z M 148.476562 86 " clip-rule="nonzero"/></clipPath><clipPath id="id5"><path d="M 278.152344 88.105469 L 328.421875 88.105469 L 328.421875 104.953125 L 278.152344 104.953125 Z M 278.152344 88.105469 " clip-rule="nonzero"/></clipPath></defs><path fill="#ffd700" d="M 171.511719 44.511719 C 171.613281 45.542969 171.777344 46.496094 172 47.394531 C 172.929688 51.140625 175.113281 54.015625 177.992188 55.277344 C 178.851562 55.652344 179.824219 55.914062 180.769531 56.167969 C 182.609375 56.664062 184.507812 57.175781 185.835938 58.566406 C 187.59375 60.414062 187.683594 63.042969 187.773438 65.582031 C 187.796875 66.164062 187.816406 66.761719 187.859375 67.332031 C 188.164062 71.46875 189.90625 75.402344 192.765625 78.398438 C 193.582031 79.261719 194.484375 80.035156 195.449219 80.703125 C 196.382812 81.355469 197.367188 81.890625 198.382812 82.296875 C 198.910156 81.097656 199.496094 79.921875 200.125 78.789062 C 201.90625 75.578125 204.109375 72.589844 206.679688 69.921875 C 207.035156 69.554688 207.371094 69.21875 207.695312 68.902344 C 206.371094 68.441406 205.214844 67.902344 204.1875 67.269531 C 202.613281 66.296875 201.347656 65.089844 200.425781 63.679688 C 199.207031 61.8125 198.570312 59.550781 197.953125 57.363281 C 197 53.988281 196.101562 50.800781 193.226562 49.332031 C 191.035156 48.214844 188.402344 48.492188 185.613281 48.785156 C 183.929688 48.960938 182.1875 49.144531 180.511719 49 C 177.25 48.726562 174.226562 47.214844 171.511719 44.511719 Z M 198.675781 83.542969 C 198.613281 83.542969 198.550781 83.53125 198.492188 83.507812 C 197.214844 83.050781 195.984375 82.410156 194.820312 81.601562 C 193.800781 80.890625 192.839844 80.066406 191.972656 79.152344 C 188.941406 75.972656 187.09375 71.800781 186.765625 67.410156 C 186.722656 66.824219 186.703125 66.210938 186.679688 65.621094 C 186.597656 63.28125 186.511719 60.863281 185.039062 59.320312 C 183.925781 58.148438 182.253906 57.699219 180.484375 57.222656 C 179.5 56.957031 178.484375 56.683594 177.550781 56.277344 C 174.363281 54.875 171.949219 51.734375 170.9375 47.65625 C 170.589844 46.261719 170.386719 44.75 170.3125 43.039062 C 170.300781 42.804688 170.441406 42.59375 170.65625 42.507812 C 170.875 42.421875 171.117188 42.480469 171.269531 42.65625 C 174.0625 45.855469 177.203125 47.625 180.605469 47.914062 C 182.175781 48.046875 183.867188 47.871094 185.5 47.699219 C 188.324219 47.402344 191.242188 47.09375 193.722656 48.359375 C 197.027344 50.042969 198.035156 53.617188 199.007812 57.070312 C 199.601562 59.175781 200.214844 61.355469 201.34375 63.082031 C 202.1875 64.375 203.304688 65.441406 204.765625 66.339844 C 205.933594 67.058594 207.285156 67.652344 208.898438 68.144531 C 209.082031 68.203125 209.226562 68.355469 209.269531 68.546875 C 209.3125 68.734375 209.253906 68.933594 209.109375 69.070312 C 208.589844 69.550781 208.054688 70.074219 207.46875 70.679688 C 204.964844 73.28125 202.816406 76.1875 201.082031 79.320312 C 200.386719 80.570312 199.75 81.878906 199.179688 83.207031 C 199.089844 83.414062 198.890625 83.542969 198.675781 83.542969 " fill-opacity="1" fill-rule="nonzero"/><path fill="#ffd700" d="M 204.882812 66.410156 C 205.949219 67.054688 207.167969 67.59375 208.597656 68.050781 C 212.050781 64.882812 215.960938 62.332031 220.226562 60.457031 C 220.070312 60.15625 219.921875 59.84375 219.78125 59.519531 C 217.949219 57.789062 216.773438 55.929688 216.191406 53.847656 C 215.589844 51.703125 215.664062 49.355469 215.734375 47.085938 C 215.839844 43.582031 215.941406 40.269531 213.632812 38.007812 C 211.878906 36.289062 209.28125 35.761719 206.53125 35.207031 C 204.871094 34.871094 203.15625 34.527344 201.605469 33.890625 C 198.582031 32.65625 196.152344 30.3125 194.371094 26.921875 C 194.15625 27.9375 194.027344 28.894531 193.96875 29.8125 C 193.730469 33.664062 194.949219 37.058594 197.3125 39.121094 C 198.019531 39.738281 198.871094 40.28125 199.695312 40.804688 C 201.300781 41.824219 202.960938 42.882812 203.808594 44.609375 C 204.929688 46.890625 204.230469 49.425781 203.550781 51.878906 C 203.398438 52.441406 203.238281 53.019531 203.105469 53.574219 C 202.089844 57.890625 202.738281 62.558594 204.882812 66.410156 Z M 208.734375 69.214844 C 208.683594 69.214844 208.628906 69.207031 208.574219 69.1875 C 206.871094 68.667969 205.4375 68.039062 204.1875 67.269531 C 204.109375 67.21875 204.046875 67.152344 204 67.074219 C 201.632812 62.898438 200.9375 58.019531 202.042969 53.324219 C 202.175781 52.75 202.339844 52.160156 202.496094 51.589844 C 203.121094 49.335938 203.761719 47 202.824219 45.089844 C 202.113281 43.640625 200.652344 42.707031 199.105469 41.722656 C 198.25 41.179688 197.363281 40.613281 196.59375 39.945312 C 193.972656 37.65625 192.617188 33.9375 192.875 29.746094 C 192.964844 28.320312 193.222656 26.820312 193.664062 25.15625 C 193.726562 24.933594 193.921875 24.769531 194.152344 24.75 C 194.382812 24.734375 194.601562 24.867188 194.695312 25.078125 C 196.402344 28.964844 198.867188 31.589844 202.023438 32.882812 C 203.476562 33.476562 205.140625 33.8125 206.75 34.136719 C 209.535156 34.699219 212.414062 35.28125 214.402344 37.230469 C 217.050781 39.824219 216.9375 43.535156 216.828125 47.121094 C 216.761719 49.308594 216.691406 51.570312 217.246094 53.554688 C 217.78125 55.46875 218.882812 57.1875 220.613281 58.804688 C 220.667969 58.855469 220.710938 58.917969 220.742188 58.984375 C 220.960938 59.5 221.207031 59.992188 221.472656 60.449219 C 221.550781 60.585938 221.566406 60.75 221.515625 60.898438 C 221.464844 61.046875 221.355469 61.164062 221.210938 61.226562 C 216.75 63.109375 212.675781 65.75 209.109375 69.066406 C 209.007812 69.164062 208.871094 69.214844 208.734375 69.214844 " fill-opacity="1" fill-rule="nonzero"/><path fill="#ffd700" d="M 283.609375 72.386719 L 283.613281 72.386719 Z M 274.222656 78.070312 C 275.199219 79.746094 276.0625 81.503906 276.796875 83.296875 C 277.765625 85.664062 278.519531 88.128906 279.035156 90.628906 C 279.328125 92.011719 279.546875 93.425781 279.695312 94.84375 C 281.609375 92.429688 284.070312 89.777344 287.078125 88.261719 C 288.480469 87.554688 289.9375 87.136719 291.414062 87.023438 C 293.636719 86.851562 295.929688 87.375 298.148438 87.878906 C 301.578125 88.660156 304.820312 89.402344 307.488281 87.578125 C 309.519531 86.195312 310.535156 83.757812 311.613281 81.171875 C 312.261719 79.613281 312.9375 78 313.859375 76.605469 C 315.664062 73.882812 318.4375 71.957031 322.113281 70.867188 C 321.160156 70.464844 320.246094 70.152344 319.347656 69.921875 C 315.605469 68.941406 312.03125 69.476562 309.542969 71.394531 C 308.800781 71.964844 308.105469 72.695312 307.429688 73.398438 C 306.113281 74.773438 304.75 76.191406 302.894531 76.6875 C 300.425781 77.34375 298.066406 76.167969 295.78125 75.03125 C 295.265625 74.773438 294.726562 74.503906 294.207031 74.269531 C 290.910156 72.78125 287.28125 72.316406 283.703125 72.921875 C 283.703125 72.921875 283.703125 72.925781 283.703125 72.925781 C 281.992188 73.210938 280.34375 73.746094 278.804688 74.515625 C 276.984375 75.421875 275.40625 76.648438 274.222656 78.070312 Z M 279.269531 96.832031 C 279.21875 96.832031 279.167969 96.828125 279.113281 96.8125 C 278.898438 96.746094 278.738281 96.554688 278.722656 96.324219 C 278.597656 94.484375 278.339844 92.640625 277.964844 90.851562 C 277.460938 88.417969 276.726562 86.015625 275.78125 83.710938 C 275.023438 81.847656 274.117188 80.027344 273.089844 78.296875 C 272.976562 78.105469 272.992188 77.863281 273.128906 77.6875 C 274.4375 76.011719 276.226562 74.578125 278.3125 73.539062 C 279.949219 72.722656 281.703125 72.152344 283.519531 71.847656 C 287.3125 71.199219 291.160156 71.695312 294.660156 73.277344 C 295.195312 73.515625 295.746094 73.789062 296.273438 74.054688 C 298.375 75.101562 300.550781 76.183594 302.613281 75.632812 C 304.171875 75.21875 305.371094 73.964844 306.636719 72.640625 C 307.339844 71.910156 308.066406 71.152344 308.875 70.527344 C 311.632812 68.40625 315.554688 67.796875 319.628906 68.863281 C 321.019531 69.226562 322.445312 69.769531 323.988281 70.523438 C 324.195312 70.625 324.320312 70.847656 324.292969 71.078125 C 324.265625 71.308594 324.09375 71.496094 323.867188 71.546875 C 319.714844 72.460938 316.65625 74.367188 314.773438 77.207031 C 313.90625 78.515625 313.253906 80.078125 312.625 81.589844 C 311.53125 84.210938 310.40625 86.917969 308.105469 88.480469 C 305.039062 90.570312 301.414062 89.742188 297.90625 88.945312 C 295.765625 88.457031 293.554688 87.953125 291.496094 88.113281 C 290.164062 88.214844 288.847656 88.59375 287.574219 89.238281 C 284.292969 90.886719 281.648438 94.046875 279.707031 96.617188 C 279.601562 96.753906 279.441406 96.832031 279.269531 96.832031 " fill-opacity="1" fill-rule="nonzero"/><g clip-path="url(#id1)"><path fill="#ffd700" d="M 281.792969 120.988281 C 283.621094 121.300781 285.25 121.953125 286.628906 122.925781 C 288.453125 124.207031 289.886719 126.066406 291.273438 127.867188 C 293.417969 130.648438 295.441406 133.277344 298.664062 133.574219 C 301.113281 133.796875 303.453125 132.5625 305.933594 131.257812 C 307.433594 130.46875 308.980469 129.65625 310.582031 129.167969 C 313.714844 128.214844 317.082031 128.496094 320.617188 129.996094 C 320.136719 129.078125 319.628906 128.253906 319.089844 127.503906 C 316.828125 124.371094 313.730469 122.515625 310.589844 122.40625 C 309.648438 122.378906 308.648438 122.496094 307.675781 122.609375 C 305.785156 122.832031 303.828125 123.0625 302.078125 122.261719 C 299.761719 121.199219 298.691406 118.792969 297.660156 116.464844 C 297.425781 115.933594 297.183594 115.386719 296.929688 114.875 C 295 110.933594 291.710938 107.835938 287.667969 106.164062 C 286.761719 105.789062 285.832031 105.488281 284.902344 105.273438 C 283.085938 104.851562 281.242188 104.769531 279.550781 105.027344 C 279.359375 106.460938 279.089844 107.886719 278.75 109.269531 C 277.945312 112.628906 276.722656 115.882812 275.121094 118.9375 C 274.710938 119.722656 274.269531 120.503906 273.808594 121.269531 C 276.976562 120.6875 279.539062 120.597656 281.792969 120.988281 Z M 299.238281 134.691406 C 299.015625 134.691406 298.789062 134.683594 298.5625 134.660156 C 294.863281 134.320312 292.597656 131.378906 290.40625 128.53125 C 289.070312 126.796875 287.6875 125.003906 286 123.820312 C 284.75 122.941406 283.273438 122.351562 281.605469 122.066406 C 281.605469 122.066406 281.605469 122.0625 281.605469 122.0625 C 279.203125 121.648438 276.398438 121.8125 272.78125 122.589844 C 272.566406 122.636719 272.34375 122.546875 272.21875 122.363281 C 272.089844 122.183594 272.089844 121.941406 272.207031 121.757812 C 272.90625 120.683594 273.558594 119.566406 274.148438 118.429688 C 275.710938 115.453125 276.902344 112.285156 277.6875 109.011719 C 278.046875 107.539062 278.324219 106.015625 278.515625 104.488281 C 278.542969 104.253906 278.722656 104.0625 278.957031 104.019531 C 280.90625 103.65625 283.046875 103.722656 285.152344 104.210938 C 286.140625 104.4375 287.128906 104.757812 288.089844 105.15625 C 292.375 106.929688 295.867188 110.210938 297.914062 114.394531 C 298.175781 114.925781 298.421875 115.484375 298.660156 116.023438 C 299.613281 118.164062 300.59375 120.378906 302.535156 121.265625 C 304.007812 121.941406 305.726562 121.738281 307.550781 121.523438 C 308.558594 121.40625 309.605469 121.28125 310.625 121.316406 C 314.109375 121.433594 317.515625 123.457031 319.976562 126.867188 C 320.816406 128.027344 321.570312 129.355469 322.28125 130.921875 C 322.378906 131.132812 322.332031 131.382812 322.164062 131.542969 C 321.992188 131.699219 321.742188 131.738281 321.535156 131.632812 C 317.742188 129.695312 314.164062 129.21875 310.902344 130.210938 C 309.398438 130.667969 307.898438 131.460938 306.445312 132.222656 C 304.136719 133.4375 301.757812 134.691406 299.238281 134.691406 " fill-opacity="1" fill-rule="nonzero"/></g><path fill="#ffd700" d="M 251.058594 59.113281 C 252.273438 59.523438 253.492188 59.996094 254.691406 60.53125 C 258.46875 62.210938 261.976562 64.429688 265.121094 67.128906 C 265.324219 67.300781 265.523438 67.476562 265.71875 67.652344 C 265.820312 66.507812 266 65.441406 266.25 64.46875 C 266.851562 62.132812 267.859375 60.269531 269.332031 58.773438 C 270.898438 57.1875 272.972656 56.078125 274.976562 55.003906 C 278.074219 53.347656 281.003906 51.78125 281.820312 48.660156 C 282.4375 46.285156 281.597656 43.78125 280.707031 41.128906 C 280.171875 39.527344 279.613281 37.871094 279.390625 36.210938 C 278.960938 32.976562 279.78125 29.710938 281.835938 26.476562 C 280.839844 26.804688 279.945312 27.167969 279.125 27.574219 C 275.65625 29.292969 273.320312 32.039062 272.707031 35.109375 C 272.523438 36.027344 272.480469 37.035156 272.433594 38.007812 C 272.34375 39.90625 272.253906 41.871094 271.179688 43.460938 C 269.757812 45.570312 267.207031 46.230469 264.738281 46.867188 C 264.175781 47.015625 263.589844 47.164062 263.039062 47.332031 C 259.4375 48.40625 256.191406 50.640625 253.902344 53.617188 C 252.960938 54.84375 252.183594 56.183594 251.589844 57.609375 C 251.386719 58.109375 251.207031 58.613281 251.058594 59.113281 Z M 266.1875 69.367188 C 266.050781 69.367188 265.914062 69.316406 265.808594 69.21875 C 265.363281 68.796875 264.890625 68.371094 264.40625 67.957031 C 261.34375 65.328125 257.925781 63.164062 254.246094 61.527344 C 252.917969 60.9375 251.566406 60.421875 250.226562 59.992188 C 249.953125 59.902344 249.792969 59.613281 249.863281 59.335938 C 250.046875 58.621094 250.289062 57.902344 250.578125 57.195312 C 251.207031 55.679688 252.03125 54.25 253.035156 52.953125 C 255.460938 49.796875 258.902344 47.425781 262.726562 46.285156 C 263.292969 46.113281 263.890625 45.957031 264.464844 45.808594 C 266.734375 45.222656 269.082031 44.617188 270.273438 42.851562 C 271.175781 41.515625 271.257812 39.789062 271.339844 37.960938 C 271.386719 36.945312 271.4375 35.894531 271.636719 34.894531 C 272.3125 31.492188 274.863281 28.464844 278.636719 26.597656 C 279.90625 25.964844 281.34375 25.4375 283.019531 24.984375 C 283.246094 24.921875 283.484375 25.011719 283.613281 25.203125 C 283.746094 25.394531 283.742188 25.648438 283.601562 25.835938 C 281.078125 29.25 280.027344 32.691406 280.476562 36.066406 C 280.683594 37.621094 281.226562 39.230469 281.746094 40.78125 C 282.648438 43.46875 283.578125 46.246094 282.878906 48.9375 C 281.941406 52.519531 278.664062 54.273438 275.492188 55.96875 C 273.558594 57 271.5625 58.070312 270.113281 59.539062 C 268.777344 60.894531 267.859375 62.597656 267.3125 64.738281 C 267 65.957031 266.804688 67.339844 266.730469 68.847656 C 266.722656 69.058594 266.585938 69.246094 266.390625 69.328125 C 266.324219 69.351562 266.253906 69.367188 266.1875 69.367188 " fill-opacity="1" fill-rule="nonzero"/><path fill="#ffd700" d="M 266.746094 68.597656 C 269.402344 71.125 271.714844 73.976562 273.632812 77.078125 C 274.878906 75.667969 276.484375 74.453125 278.3125 73.539062 C 279.921875 72.738281 281.640625 72.171875 283.425781 71.863281 C 283.503906 71.820312 283.585938 71.777344 283.667969 71.738281 C 285.667969 70.742188 287.992188 70.371094 290.238281 70.011719 C 293.710938 69.453125 296.992188 68.925781 298.78125 66.238281 C 300.140625 64.195312 300.167969 61.554688 300.191406 58.761719 C 300.210938 57.070312 300.226562 55.320312 300.558594 53.679688 C 301.207031 50.476562 303.050781 47.652344 306.050781 45.269531 C 305.015625 45.253906 304.046875 45.308594 303.128906 45.425781 C 299.292969 45.921875 296.183594 47.757812 294.601562 50.464844 C 294.128906 51.273438 293.753906 52.207031 293.394531 53.113281 C 292.691406 54.878906 291.960938 56.703125 290.421875 57.859375 C 288.386719 59.390625 285.753906 59.183594 283.210938 58.984375 C 282.632812 58.9375 282.035156 58.890625 281.464844 58.871094 C 276.082031 58.652344 270.792969 60.890625 267.28125 64.863281 C 267.28125 64.863281 267.28125 64.867188 267.277344 64.867188 C 267.003906 65.988281 266.824219 67.238281 266.746094 68.597656 Z M 273.5625 78.566406 C 273.550781 78.566406 273.539062 78.566406 273.527344 78.566406 C 273.347656 78.554688 273.183594 78.453125 273.089844 78.296875 C 271.109375 74.953125 268.660156 71.898438 265.808594 69.21875 C 265.695312 69.109375 265.632812 68.953125 265.636719 68.796875 C 265.714844 67.214844 265.917969 65.757812 266.25 64.46875 C 266.273438 64.375 266.324219 64.285156 266.394531 64.21875 C 266.40625 64.207031 266.417969 64.191406 266.429688 64.179688 L 266.460938 64.140625 C 270.183594 59.925781 275.8125 57.546875 281.507812 57.777344 C 282.097656 57.800781 282.707031 57.851562 283.296875 57.894531 C 285.636719 58.082031 288.058594 58.269531 289.765625 56.988281 C 291.058594 56.015625 291.699219 54.410156 292.375 52.710938 C 292.75 51.765625 293.140625 50.792969 293.65625 49.914062 C 295.410156 46.914062 298.8125 44.882812 302.988281 44.34375 C 304.417969 44.160156 305.949219 44.128906 307.664062 44.246094 C 307.894531 44.261719 308.09375 44.421875 308.152344 44.648438 C 308.214844 44.871094 308.125 45.109375 307.9375 45.242188 C 304.429688 47.640625 302.308594 50.554688 301.632812 53.894531 C 301.320312 55.433594 301.300781 57.128906 301.289062 58.769531 C 301.261719 61.601562 301.234375 64.53125 299.695312 66.84375 C 297.636719 69.925781 293.964844 70.519531 290.410156 71.089844 C 288.246094 71.4375 286.007812 71.796875 284.160156 72.714844 C 284.070312 72.757812 283.976562 72.804688 283.890625 72.855469 C 283.832031 72.886719 283.769531 72.914062 283.703125 72.925781 C 281.992188 73.210938 280.34375 73.746094 278.804688 74.515625 C 276.863281 75.484375 275.199219 76.8125 273.992188 78.355469 C 273.890625 78.488281 273.730469 78.566406 273.5625 78.566406 " fill-opacity="1" fill-rule="nonzero"/><path fill="#ffd700" d="M 239.804688 56.9375 C 243.292969 57.136719 246.722656 57.753906 250.019531 58.777344 C 250.175781 58.25 250.363281 57.71875 250.578125 57.195312 C 251.1875 55.722656 251.984375 54.335938 252.949219 53.0625 C 253.09375 52.144531 253.351562 51.253906 253.710938 50.421875 C 254.589844 48.375 256.121094 46.589844 257.597656 44.867188 C 259.886719 42.199219 262.042969 39.683594 261.664062 36.480469 C 261.378906 34.042969 259.6875 32.011719 257.894531 29.863281 C 256.808594 28.566406 255.6875 27.21875 254.878906 25.753906 C 253.300781 22.898438 252.875 19.554688 253.617188 15.796875 C 252.816406 16.457031 252.113281 17.117188 251.488281 17.800781 C 248.882812 20.652344 247.703125 24.058594 248.246094 27.148438 C 248.410156 28.066406 248.734375 29.019531 249.046875 29.941406 C 249.65625 31.742188 250.285156 33.605469 249.863281 35.480469 C 249.300781 37.964844 247.15625 39.503906 245.085938 40.996094 C 244.617188 41.332031 244.132812 41.683594 243.683594 42.03125 C 240.1875 44.753906 237.757812 48.792969 237.003906 53.136719 C 237.703125 54.367188 238.621094 55.617188 239.804688 56.9375 Z M 250.394531 60.015625 C 250.335938 60.015625 250.28125 60.007812 250.226562 59.992188 C 246.78125 58.867188 243.183594 58.203125 239.523438 58.019531 C 239.378906 58.007812 239.242188 57.945312 239.144531 57.839844 C 237.777344 56.332031 236.734375 54.910156 235.953125 53.496094 C 235.894531 53.390625 235.871094 53.265625 235.890625 53.148438 C 236.652344 48.464844 239.246094 44.101562 243.011719 41.167969 C 243.472656 40.808594 243.96875 40.453125 244.445312 40.109375 C 246.351562 38.738281 248.324219 37.320312 248.792969 35.242188 C 249.148438 33.664062 248.59375 32.023438 248.007812 30.289062 C 247.683594 29.328125 247.347656 28.335938 247.167969 27.335938 C 246.566406 23.914062 247.84375 20.167969 250.679688 17.0625 C 251.652344 16 252.796875 14.992188 254.175781 13.980469 C 254.363281 13.84375 254.621094 13.839844 254.808594 13.972656 C 255.003906 14.101562 255.089844 14.339844 255.03125 14.5625 C 253.917969 18.660156 254.191406 22.25 255.839844 25.226562 C 256.597656 26.601562 257.683594 27.90625 258.734375 29.167969 C 260.550781 31.34375 262.429688 33.59375 262.753906 36.351562 C 263.1875 40.027344 260.769531 42.847656 258.429688 45.578125 C 257.003906 47.238281 255.53125 48.960938 254.714844 50.851562 C 254.375 51.640625 254.140625 52.488281 254.011719 53.363281 C 253.996094 53.457031 253.960938 53.542969 253.902344 53.617188 C 252.960938 54.84375 252.183594 56.183594 251.589844 57.609375 C 251.320312 58.269531 251.097656 58.941406 250.925781 59.605469 C 250.886719 59.753906 250.792969 59.875 250.660156 59.949219 C 250.578125 59.996094 250.484375 60.015625 250.394531 60.015625 " fill-opacity="1" fill-rule="nonzero"/><g clip-path="url(#id2)"><path fill="#ffd700" d="M 237.378906 57.964844 C 237.011719 57.964844 236.644531 57.964844 236.277344 57.976562 C 231.3125 58.105469 226.476562 59.105469 221.910156 60.9375 C 221.675781 61.03125 221.445312 61.125 221.214844 61.226562 C 216.75 63.109375 212.675781 65.75 209.109375 69.066406 C 208.589844 69.550781 208.054688 70.074219 207.46875 70.679688 C 204.964844 73.28125 202.816406 76.1875 201.082031 79.320312 C 200.386719 80.570312 199.75 81.878906 199.179688 83.207031 C 198.222656 85.46875 197.472656 87.808594 196.945312 90.15625 C 196.46875 92.238281 196.160156 94.367188 196.023438 96.480469 C 195.953125 97.398438 195.921875 98.351562 195.921875 99.316406 C 195.921875 99.949219 195.933594 100.507812 195.960938 101.027344 C 196.058594 103.558594 196.394531 106.078125 196.953125 108.519531 C 197.761719 112.09375 199.054688 115.546875 200.796875 118.792969 C 201.046875 119.265625 201.3125 119.734375 201.585938 120.191406 C 201.585938 120.195312 201.585938 120.195312 201.585938 120.195312 C 203.980469 124.273438 207.035156 127.890625 210.664062 130.941406 C 211.296875 131.476562 211.960938 132.003906 212.640625 132.507812 C 215.59375 134.703125 218.824219 136.492188 222.234375 137.824219 C 223.550781 138.339844 224.886719 138.785156 226.207031 139.152344 C 229.824219 140.160156 233.582031 140.671875 237.378906 140.671875 L 237.460938 140.671875 C 238.234375 140.671875 238.988281 140.648438 239.707031 140.601562 C 243.3125 140.40625 246.867188 139.742188 250.273438 138.625 C 251.839844 138.121094 253.402344 137.503906 254.917969 136.792969 C 257.085938 135.785156 259.179688 134.582031 261.132812 133.210938 C 262.875 132 264.535156 130.640625 266.070312 129.171875 C 268.398438 126.941406 270.464844 124.445312 272.207031 121.757812 C 272.90625 120.683594 273.558594 119.566406 274.148438 118.429688 C 275.710938 115.453125 276.902344 112.285156 277.6875 109.011719 C 278.046875 107.539062 278.324219 106.015625 278.515625 104.488281 C 278.730469 102.792969 278.835938 101.050781 278.835938 99.316406 C 278.835938 98.300781 278.796875 97.292969 278.722656 96.328125 C 278.597656 94.484375 278.339844 92.640625 277.964844 90.851562 C 277.460938 88.417969 276.726562 86.015625 275.78125 83.710938 C 275.023438 81.847656 274.117188 80.027344 273.089844 78.296875 C 271.109375 74.953125 268.660156 71.898438 265.808594 69.21875 C 265.363281 68.796875 264.890625 68.371094 264.40625 67.957031 C 261.34375 65.328125 257.925781 63.164062 254.246094 61.527344 C 252.917969 60.9375 251.566406 60.421875 250.226562 59.992188 C 246.78125 58.867188 243.183594 58.203125 239.523438 58.019531 C 238.816406 57.980469 238.09375 57.964844 237.378906 57.964844 Z M 237.460938 141.761719 L 237.378906 141.761719 C 233.480469 141.761719 229.625 141.238281 225.910156 140.203125 C 224.554688 139.828125 223.183594 139.371094 221.832031 138.84375 C 218.332031 137.472656 215.019531 135.636719 211.984375 133.382812 C 211.289062 132.867188 210.605469 132.324219 209.960938 131.777344 C 206.234375 128.644531 203.101562 124.933594 200.644531 120.75 C 200.363281 120.277344 200.089844 119.792969 199.832031 119.304688 C 198.042969 115.976562 196.714844 112.429688 195.886719 108.761719 C 195.3125 106.253906 194.96875 103.671875 194.867188 101.078125 C 194.839844 100.542969 194.824219 99.964844 194.824219 99.316406 C 194.824219 98.328125 194.859375 97.347656 194.929688 96.402344 C 195.070312 94.238281 195.390625 92.054688 195.875 89.914062 C 196.417969 87.507812 197.191406 85.105469 198.171875 82.78125 C 198.753906 81.414062 199.414062 80.074219 200.125 78.789062 C 201.90625 75.578125 204.109375 72.589844 206.679688 69.921875 C 207.28125 69.300781 207.828125 68.761719 208.363281 68.269531 C 212.023438 64.863281 216.203125 62.15625 220.78125 60.222656 C 221.023438 60.117188 221.257812 60.023438 221.5 59.925781 C 226.191406 58.042969 231.152344 57.019531 236.246094 56.886719 C 237.355469 56.851562 238.484375 56.871094 239.578125 56.925781 C 243.335938 57.117188 247.03125 57.800781 250.5625 58.953125 C 251.9375 59.394531 253.328125 59.925781 254.691406 60.53125 C 258.46875 62.210938 261.976562 64.429688 265.121094 67.128906 C 265.621094 67.558594 266.105469 67.992188 266.5625 68.421875 C 269.484375 71.171875 272 74.308594 274.035156 77.742188 C 275.085938 79.515625 276.015625 81.386719 276.796875 83.296875 C 277.765625 85.664062 278.519531 88.128906 279.035156 90.628906 C 279.421875 92.46875 279.683594 94.359375 279.816406 96.25 C 279.894531 97.238281 279.933594 98.273438 279.933594 99.316406 C 279.933594 101.097656 279.820312 102.882812 279.601562 104.625 C 279.40625 106.191406 279.121094 107.757812 278.75 109.269531 C 277.945312 112.628906 276.722656 115.882812 275.121094 118.9375 C 274.515625 120.101562 273.84375 121.25 273.128906 122.351562 C 271.339844 125.109375 269.21875 127.671875 266.828125 129.960938 C 265.25 131.46875 263.546875 132.863281 261.761719 134.105469 C 259.753906 135.511719 257.609375 136.75 255.382812 137.785156 C 253.828125 138.511719 252.222656 139.144531 250.613281 139.664062 C 247.117188 140.8125 243.464844 141.496094 239.769531 141.695312 C 239.035156 141.738281 238.257812 141.761719 237.460938 141.761719 " fill-opacity="1" fill-rule="nonzero"/></g><path fill="#ffd700" d="M 183.886719 91.746094 C 184.320312 91.910156 184.722656 92.035156 185.117188 92.128906 C 188.277344 92.90625 191.71875 92.128906 195.929688 89.683594 C 196.425781 87.53125 197.105469 85.386719 197.957031 83.304688 C 196.871094 82.867188 195.820312 82.296875 194.820312 81.601562 C 193.835938 80.917969 192.910156 80.125 192.066406 79.25 C 191.195312 78.953125 190.367188 78.554688 189.601562 78.058594 C 187.730469 76.84375 186.230469 75.035156 184.777344 73.289062 C 182.535156 70.585938 180.414062 68.035156 177.1875 67.859375 C 174.730469 67.722656 172.433594 69.042969 170 70.441406 C 168.535156 71.285156 167.019531 72.15625 165.4375 72.699219 C 162.34375 73.765625 158.96875 73.609375 155.382812 72.238281 C 155.902344 73.144531 156.433594 73.949219 157 74.675781 C 159.371094 77.710938 162.519531 79.453125 165.648438 79.453125 C 165.65625 79.453125 165.667969 79.453125 165.679688 79.453125 C 166.617188 79.449219 167.613281 79.292969 168.582031 79.144531 C 170.464844 78.855469 172.410156 78.554688 174.191406 79.289062 C 176.542969 80.265625 177.695312 82.625 178.8125 84.910156 C 179.070312 85.433594 179.332031 85.976562 179.605469 86.480469 C 180.6875 88.496094 182.128906 90.265625 183.886719 91.746094 Z M 187.53125 93.515625 C 186.617188 93.515625 185.730469 93.40625 184.859375 93.191406 C 184.394531 93.078125 183.917969 92.929688 183.410156 92.734375 C 183.351562 92.714844 183.300781 92.683594 183.253906 92.644531 C 181.355469 91.0625 179.800781 89.160156 178.640625 86.996094 C 178.359375 86.472656 178.089844 85.921875 177.828125 85.386719 C 176.804688 83.289062 175.742188 81.113281 173.769531 80.296875 C 172.273438 79.679688 170.5625 79.945312 168.75 80.222656 C 167.742188 80.378906 166.707031 80.539062 165.683594 80.542969 C 165.671875 80.542969 165.660156 80.542969 165.648438 80.542969 C 162.179688 80.542969 158.714844 78.652344 156.136719 75.34375 C 155.257812 74.21875 154.457031 72.917969 153.683594 71.375 C 153.582031 71.167969 153.617188 70.917969 153.78125 70.75 C 153.945312 70.585938 154.195312 70.539062 154.40625 70.636719 C 158.261719 72.433594 161.851562 72.777344 165.078125 71.667969 C 166.5625 71.15625 168.03125 70.3125 169.453125 69.496094 C 171.917969 68.078125 174.460938 66.613281 177.246094 66.769531 C 180.953125 66.96875 183.328125 69.828125 185.621094 72.589844 C 187.019531 74.273438 188.46875 76.015625 190.199219 77.140625 C 190.925781 77.609375 191.710938 77.984375 192.539062 78.257812 C 192.625 78.285156 192.703125 78.332031 192.765625 78.398438 C 193.582031 79.261719 194.484375 80.035156 195.449219 80.703125 C 196.53125 81.457031 197.679688 82.054688 198.863281 82.480469 C 199.003906 82.53125 199.117188 82.636719 199.175781 82.777344 C 199.238281 82.914062 199.238281 83.070312 199.179688 83.207031 C 198.222656 85.46875 197.472656 87.808594 196.945312 90.15625 C 196.910156 90.300781 196.820312 90.429688 196.6875 90.503906 C 193.257812 92.527344 190.285156 93.515625 187.53125 93.515625 " fill-opacity="1" fill-rule="nonzero"/><g clip-path="url(#id3)"><path fill="#ffd700" d="M 221.496094 14.886719 C 220.992188 15.792969 220.578125 16.664062 220.25 17.53125 C 218.867188 21.136719 219.015625 24.734375 220.65625 27.410156 C 221.148438 28.207031 221.796875 28.976562 222.421875 29.722656 C 223.648438 31.175781 224.917969 32.679688 225.210938 34.582031 C 225.597656 37.097656 224.167969 39.316406 222.78125 41.460938 C 222.46875 41.945312 222.148438 42.445312 221.859375 42.933594 C 219.125 47.546875 218.59375 53.265625 220.433594 58.230469 C 220.527344 58.480469 220.628906 58.734375 220.738281 58.980469 C 220.894531 59.34375 221.0625 59.695312 221.238281 60.03125 C 221.328125 59.996094 221.414062 59.960938 221.5 59.925781 C 226.191406 58.042969 231.152344 57.019531 236.246094 56.886719 C 236.933594 56.867188 237.621094 56.867188 238.308594 56.882812 C 237.34375 55.722656 236.566406 54.605469 235.953125 53.496094 C 234.75 51.324219 234.195312 49.226562 234.265625 47.085938 C 234.335938 44.863281 235.105469 42.644531 235.851562 40.503906 C 237 37.183594 238.089844 34.050781 236.5625 31.207031 C 235.40625 29.042969 233.082031 27.769531 230.625 26.417969 C 229.140625 25.609375 227.609375 24.765625 226.320312 23.699219 C 223.800781 21.613281 222.183594 18.65625 221.496094 14.886719 Z M 220.996094 61.269531 C 220.804688 61.269531 220.621094 61.167969 220.523438 60.996094 C 220.238281 60.5 219.972656 59.96875 219.734375 59.417969 C 219.621094 59.152344 219.507812 58.882812 219.40625 58.609375 C 217.453125 53.339844 218.015625 47.269531 220.914062 42.375 C 221.214844 41.871094 221.542969 41.363281 221.859375 40.871094 C 223.136719 38.898438 224.453125 36.855469 224.128906 34.746094 C 223.882812 33.148438 222.765625 31.824219 221.585938 30.421875 C 220.929688 29.648438 220.253906 28.847656 219.722656 27.980469 C 217.902344 25.015625 217.722656 21.0625 219.226562 17.140625 C 219.738281 15.796875 220.433594 14.441406 221.351562 12.992188 C 221.476562 12.796875 221.710938 12.699219 221.9375 12.753906 C 222.164062 12.804688 222.332031 12.996094 222.359375 13.226562 C 222.824219 17.441406 224.390625 20.683594 227.019531 22.859375 C 228.226562 23.859375 229.714844 24.675781 231.152344 25.460938 C 233.640625 26.828125 236.214844 28.242188 237.53125 30.691406 C 239.28125 33.957031 238.0625 37.464844 236.886719 40.859375 C 236.167969 42.925781 235.425781 45.0625 235.359375 47.117188 C 235.296875 49.058594 235.804688 50.972656 236.910156 52.96875 C 237.652344 54.308594 238.648438 55.660156 239.957031 57.105469 C 240.105469 57.269531 240.140625 57.503906 240.042969 57.707031 C 239.949219 57.90625 239.742188 58.03125 239.523438 58.019531 C 238.457031 57.964844 237.363281 57.945312 236.277344 57.976562 C 231.3125 58.105469 226.476562 59.105469 221.910156 60.9375 C 221.675781 61.03125 221.445312 61.125 221.214844 61.226562 C 221.144531 61.253906 221.070312 61.269531 220.996094 61.269531 " fill-opacity="1" fill-rule="nonzero"/></g><g clip-path="url(#id4)"><path fill="#ffd700" d="M 195.472656 96.445312 L 195.480469 96.445312 Z M 170.398438 99.421875 C 170.503906 99.421875 170.609375 99.425781 170.714844 99.429688 C 173.261719 99.574219 175.136719 101.425781 176.949219 103.21875 C 177.359375 103.628906 177.789062 104.050781 178.207031 104.433594 C 180.738281 106.753906 183.871094 108.300781 187.261719 108.90625 C 189.144531 109.242188 191.042969 109.273438 192.914062 109 C 193.898438 108.855469 194.859375 108.621094 195.78125 108.296875 C 195.269531 105.933594 194.960938 103.507812 194.867188 101.078125 C 194.839844 100.542969 194.824219 99.964844 194.824219 99.316406 C 194.824219 98.328125 194.859375 97.347656 194.929688 96.40625 C 195.042969 94.640625 195.277344 92.863281 195.621094 91.109375 C 191.53125 93.324219 188.085938 93.984375 184.859375 93.191406 C 184.394531 93.078125 183.917969 92.929688 183.410156 92.734375 C 181.785156 92.117188 180.230469 91.179688 178.726562 90.277344 C 175.714844 88.464844 172.867188 86.753906 169.761719 87.652344 C 167.398438 88.332031 165.667969 90.332031 163.835938 92.453125 C 162.730469 93.730469 161.589844 95.054688 160.273438 96.089844 C 157.703125 98.113281 154.464844 99.078125 150.628906 98.964844 C 151.417969 99.652344 152.1875 100.234375 152.960938 100.730469 C 156.210938 102.828125 159.777344 103.429688 162.738281 102.382812 C 163.621094 102.074219 164.507812 101.597656 165.371094 101.140625 C 166.960938 100.296875 168.601562 99.421875 170.398438 99.421875 Z M 190.386719 110.277344 C 189.28125 110.277344 188.171875 110.175781 187.070312 109.980469 C 183.472656 109.339844 180.152344 107.699219 177.46875 105.238281 C 177.03125 104.839844 176.597656 104.410156 176.175781 103.996094 C 174.511719 102.347656 172.785156 100.640625 170.652344 100.519531 C 169.039062 100.425781 167.503906 101.242188 165.886719 102.105469 C 164.988281 102.582031 164.0625 103.074219 163.101562 103.414062 C 159.816406 104.574219 155.90625 103.929688 152.367188 101.648438 C 151.171875 100.878906 149.984375 99.917969 148.738281 98.710938 C 148.574219 98.546875 148.527344 98.300781 148.625 98.085938 C 148.722656 97.878906 148.945312 97.753906 149.175781 97.777344 C 153.410156 98.199219 156.914062 97.34375 159.59375 95.234375 C 160.828125 94.261719 161.9375 92.980469 163.007812 91.738281 C 164.863281 89.59375 166.78125 87.375 169.457031 86.601562 C 173.023438 85.574219 176.210938 87.488281 179.292969 89.34375 C 180.753906 90.222656 182.265625 91.128906 183.800781 91.714844 C 184.265625 91.890625 184.695312 92.027344 185.117188 92.128906 C 188.328125 92.917969 191.828125 92.101562 196.128906 89.566406 C 196.320312 89.453125 196.554688 89.464844 196.730469 89.59375 C 196.910156 89.722656 196.992188 89.945312 196.941406 90.15625 C 196.46875 92.238281 196.160156 94.367188 196.023438 96.480469 C 196.019531 96.480469 196.019531 96.480469 196.019531 96.484375 C 195.953125 97.398438 195.921875 98.351562 195.921875 99.316406 C 195.921875 99.949219 195.933594 100.507812 195.960938 101.027344 C 196.058594 103.558594 196.394531 106.078125 196.953125 108.519531 C 197.015625 108.78125 196.871094 109.050781 196.621094 109.148438 C 195.488281 109.589844 194.296875 109.902344 193.070312 110.082031 C 192.183594 110.210938 191.285156 110.277344 190.386719 110.277344 " fill-opacity="1" fill-rule="nonzero"/></g><g clip-path="url(#id5)"><path fill="#ffd700" d="M 288.59375 105.089844 C 289.730469 105.089844 290.839844 105.253906 291.902344 105.578125 C 294.035156 106.234375 295.972656 107.5625 297.851562 108.84375 C 300.753906 110.828125 303.492188 112.703125 306.648438 111.988281 C 309.042969 111.445312 310.890625 109.546875 312.84375 107.542969 C 314.019531 106.328125 315.238281 105.074219 316.613281 104.117188 C 319.292969 102.246094 322.585938 101.472656 326.410156 101.804688 C 325.660156 101.074219 324.925781 100.449219 324.183594 99.90625 C 321.058594 97.625 317.539062 96.816406 314.523438 97.6875 C 313.621094 97.945312 312.703125 98.371094 311.816406 98.777344 C 310.085938 99.574219 308.300781 100.394531 306.386719 100.175781 C 303.851562 99.882812 302.089844 97.925781 300.382812 96.03125 C 299.996094 95.597656 299.59375 95.152344 299.199219 94.746094 C 296.117188 91.566406 291.839844 89.589844 287.445312 89.304688 C 284.292969 90.9375 281.734375 93.949219 279.832031 96.453125 C 279.898438 97.382812 279.933594 98.34375 279.933594 99.316406 C 279.933594 100.851562 279.847656 102.390625 279.6875 103.90625 C 281.433594 103.675781 283.304688 103.78125 285.152344 104.210938 C 286.101562 104.429688 287.046875 104.730469 287.972656 105.105469 C 288.179688 105.097656 288.386719 105.089844 288.59375 105.089844 Z M 305.273438 113.234375 C 302.335938 113.238281 299.746094 111.464844 297.230469 109.746094 C 295.421875 108.507812 293.554688 107.230469 291.578125 106.621094 C 290.417969 106.265625 289.179688 106.125 287.914062 106.203125 C 287.828125 106.207031 287.746094 106.195312 287.667969 106.164062 C 286.761719 105.789062 285.832031 105.488281 284.902344 105.273438 C 282.945312 104.820312 280.957031 104.757812 279.160156 105.09375 C 278.988281 105.125 278.8125 105.074219 278.683594 104.953125 C 278.554688 104.835938 278.496094 104.660156 278.515625 104.488281 C 278.730469 102.792969 278.835938 101.050781 278.835938 99.316406 C 278.835938 98.300781 278.796875 97.292969 278.722656 96.328125 C 278.714844 96.195312 278.753906 96.066406 278.835938 95.957031 C 280.84375 93.296875 283.597656 90.015625 287.078125 88.261719 C 287.164062 88.21875 287.261719 88.199219 287.359375 88.207031 C 292.078125 88.472656 296.679688 90.578125 299.984375 93.984375 C 300.394531 94.410156 300.804688 94.863281 301.199219 95.300781 C 302.765625 97.042969 304.390625 98.847656 306.511719 99.089844 C 308.113281 99.273438 309.691406 98.550781 311.359375 97.785156 C 312.28125 97.359375 313.238281 96.921875 314.21875 96.636719 C 317.5625 95.671875 321.429688 96.542969 324.832031 99.023438 C 325.980469 99.863281 327.109375 100.890625 328.28125 102.167969 C 328.4375 102.335938 328.46875 102.589844 328.359375 102.792969 C 328.246094 103 328.023438 103.113281 327.789062 103.074219 C 323.585938 102.410156 320.035156 103.0625 317.238281 105.011719 C 315.953125 105.910156 314.769531 107.125 313.628906 108.300781 C 311.648438 110.335938 309.605469 112.4375 306.890625 113.054688 C 306.339844 113.179688 305.800781 113.234375 305.273438 113.234375 " fill-opacity="1" fill-rule="nonzero"/></g><g fill="#ffffff" fill-opacity="1"><g transform="translate(69.733356, 175.523246)"><g><path d="M 65 -0.890625 L 66.0625 -0.890625 L 66.0625 0 L 46.625 0 L 46.625 -0.890625 L 47.78125 -0.890625 C 49.269531 -0.890625 50.5625 -1.410156 51.65625 -2.453125 C 52.757812 -3.492188 53.375 -4.785156 53.5 -6.328125 L 53.5 -29.515625 L 18.984375 -29.515625 L 18.984375 -6.234375 C 18.984375 2.078125 16.960938 7.660156 12.921875 10.515625 C 11.078125 11.828125 8.703125 12.8125 5.796875 13.46875 L 5.34375 12.65625 C 8.019531 11.226562 9.992188 9.03125 11.265625 6.0625 C 12.546875 3.09375 13.1875 -1.003906 13.1875 -6.234375 L 13.1875 -55.984375 C 13.1875 -57.535156 12.625 -58.84375 11.5 -59.90625 C 10.375 -60.976562 9.035156 -61.515625 7.484375 -61.515625 L 6.421875 -61.515625 L 6.421875 -62.40625 L 25.859375 -62.40625 L 25.859375 -61.515625 L 24.703125 -61.515625 C 23.148438 -61.515625 21.820312 -60.976562 20.71875 -59.90625 C 19.625 -58.84375 19.046875 -57.535156 18.984375 -55.984375 L 18.984375 -32.1875 L 53.5 -32.1875 L 53.5 -54.390625 C 53.550781 -61.992188 55.242188 -67.28125 58.578125 -70.25 C 60.597656 -72.039062 63.332031 -73.320312 66.78125 -74.09375 L 67.21875 -73.28125 C 64.550781 -71.851562 62.5625 -69.65625 61.25 -66.6875 C 59.9375 -63.71875 59.28125 -59.617188 59.28125 -54.390625 L 59.28125 -6.515625 C 59.28125 -4.960938 59.832031 -3.632812 60.9375 -2.53125 C 62.039062 -1.4375 63.394531 -0.890625 65 -0.890625 Z M 65 -0.890625 "/></g></g></g><g fill="#ffffff" fill-opacity="1"><g transform="translate(142.217403, 175.523246)"><g><path d="M 13.09375 -54.6875 C 19.457031 -60.664062 27.707031 -63.65625 37.84375 -63.65625 C 47.976562 -63.65625 56.222656 -60.664062 62.578125 -54.6875 C 68.941406 -48.71875 72.125 -40.890625 72.125 -31.203125 C 72.125 -21.515625 68.941406 -13.679688 62.578125 -7.703125 C 56.222656 -1.734375 47.976562 1.25 37.84375 1.25 C 27.707031 1.25 19.457031 -1.734375 13.09375 -7.703125 C 6.738281 -13.679688 3.5625 -21.515625 3.5625 -31.203125 C 3.5625 -40.890625 6.738281 -48.71875 13.09375 -54.6875 Z M 17.96875 -9.625 C 22.988281 -4.15625 29.597656 -1.421875 37.796875 -1.421875 C 46.003906 -1.421875 52.617188 -4.15625 57.640625 -9.625 C 62.660156 -15.09375 65.171875 -22.285156 65.171875 -31.203125 C 65.171875 -40.117188 62.660156 -47.3125 57.640625 -52.78125 C 52.617188 -58.25 46.003906 -60.984375 37.796875 -60.984375 C 29.597656 -60.984375 22.988281 -58.25 17.96875 -52.78125 C 12.945312 -47.3125 10.4375 -40.117188 10.4375 -31.203125 C 10.4375 -22.285156 12.945312 -15.09375 17.96875 -9.625 Z M 17.96875 -9.625 "/></g></g></g><g fill="#ffffff" fill-opacity="1"><g transform="translate(217.821921, 175.523246)"><g><path d="M 5.4375 -3.65625 C 5.257812 -4.488281 5.171875 -6.09375 5.171875 -8.46875 C 5.171875 -10.84375 5.617188 -13.367188 6.515625 -16.046875 L 7.3125 -16.046875 C 7.25 -15.390625 7.21875 -14.738281 7.21875 -14.09375 C 7.21875 -10.457031 8.316406 -7.4375 10.515625 -5.03125 C 12.710938 -2.625 15.625 -1.421875 19.25 -1.421875 C 23 -1.421875 26.078125 -2.550781 28.484375 -4.8125 C 30.890625 -7.070312 32.09375 -9.910156 32.09375 -13.328125 C 32.09375 -16.742188 30.9375 -19.523438 28.625 -21.671875 L 11.5 -37.53125 C 8.289062 -40.507812 6.6875 -44.109375 6.6875 -48.328125 C 6.6875 -52.546875 8.097656 -56.15625 10.921875 -59.15625 C 13.742188 -62.15625 17.5625 -63.65625 22.375 -63.65625 C 24.632812 -63.65625 27.191406 -63.359375 30.046875 -62.765625 L 33.515625 -62.765625 L 33.515625 -51.796875 L 32.71875 -51.796875 C 32.71875 -54.585938 31.75 -56.816406 29.8125 -58.484375 C 27.882812 -60.148438 25.40625 -60.984375 22.375 -60.984375 C 19.34375 -60.984375 16.800781 -59.972656 14.75 -57.953125 C 12.695312 -55.929688 11.671875 -53.40625 11.671875 -50.375 C 11.671875 -47.34375 12.863281 -44.726562 15.25 -42.53125 L 32.8125 -26.296875 C 35.78125 -23.566406 37.265625 -19.820312 37.265625 -15.0625 C 37.265625 -10.3125 35.75 -6.40625 32.71875 -3.34375 C 29.6875 -0.28125 25.644531 1.25 20.59375 1.25 C 17.976562 1.25 15.195312 0.847656 12.25 0.046875 C 9.3125 -0.753906 7.039062 -1.988281 5.4375 -3.65625 Z M 5.4375 -3.65625 "/></g></g></g><g fill="#ffffff" fill-opacity="1"><g transform="translate(260.260308, 175.523246)"><g><path d="M 52.515625 -54.46875 C 52.515625 -55.894531 52.007812 -57.128906 51 -58.171875 C 49.988281 -59.210938 48.800781 -59.765625 47.4375 -59.828125 L 30.484375 -59.828125 L 30.484375 -6.421875 C 30.546875 -4.867188 31.125 -3.554688 32.21875 -2.484375 C 33.320312 -1.421875 34.648438 -0.890625 36.203125 -0.890625 L 37.359375 -0.890625 L 37.359375 0 L 17.828125 0 L 17.828125 -0.890625 L 18.984375 -0.890625 C 20.535156 -0.890625 21.859375 -1.421875 22.953125 -2.484375 C 24.054688 -3.554688 24.640625 -4.835938 24.703125 -6.328125 L 24.703125 -59.828125 L 7.75 -59.828125 C 6.320312 -59.765625 5.117188 -59.210938 4.140625 -58.171875 C 3.160156 -57.128906 2.671875 -55.894531 2.671875 -54.46875 L 2.671875 -52.953125 L 1.78125 -52.875 L 1.78125 -64.109375 C 2.675781 -63.742188 4.222656 -63.382812 6.421875 -63.03125 C 8.617188 -62.675781 10.640625 -62.5 12.484375 -62.5 L 42.609375 -62.5 C 45.523438 -62.5 47.945312 -62.71875 49.875 -63.15625 C 51.8125 -63.601562 52.988281 -63.921875 53.40625 -64.109375 L 53.40625 -52.875 L 52.515625 -52.953125 Z M 52.515625 -54.46875 "/></g></g></g><g fill="#ffffff" fill-opacity="1"><g transform="translate(315.358892, 175.523246)"><g><path d="M 6.515625 -0.890625 C 8.054688 -0.890625 9.375 -1.4375 10.46875 -2.53125 C 11.570312 -3.632812 12.15625 -4.960938 12.21875 -6.515625 L 12.21875 -56.4375 C 12.21875 -57.863281 11.648438 -59.066406 10.515625 -60.046875 C 9.390625 -61.023438 8.054688 -61.515625 6.515625 -61.515625 L 5.4375 -61.515625 L 5.34375 -62.40625 L 31.46875 -62.40625 C 33.3125 -62.40625 35.316406 -62.582031 37.484375 -62.9375 C 39.660156 -63.300781 41.191406 -63.660156 42.078125 -64.015625 L 42.078125 -52.78125 L 41.1875 -52.78125 L 41.1875 -54.390625 C 41.1875 -55.816406 40.695312 -57.035156 39.71875 -58.046875 C 38.738281 -59.054688 37.566406 -59.585938 36.203125 -59.640625 L 18.015625 -59.640625 L 18.015625 -32.09375 L 33.078125 -32.09375 C 34.265625 -32.15625 35.273438 -32.601562 36.109375 -33.4375 C 36.941406 -34.269531 37.359375 -35.304688 37.359375 -36.546875 L 37.359375 -37.796875 L 38.25 -37.796875 L 38.25 -23.71875 L 37.359375 -23.71875 L 37.359375 -25.046875 C 37.359375 -26.242188 36.957031 -27.253906 36.15625 -28.078125 C 35.351562 -28.910156 34.359375 -29.359375 33.171875 -29.421875 L 18.015625 -29.421875 L 18.015625 -2.765625 L 30.765625 -2.765625 C 35.160156 -2.765625 38.515625 -3.742188 40.828125 -5.703125 C 43.148438 -7.660156 45.082031 -10.570312 46.625 -14.4375 L 47.515625 -14.4375 L 42.34375 0 L 5.34375 0 L 5.34375 -0.890625 Z M 6.515625 -0.890625 "/></g></g></g><g fill="#ffffff" fill-opacity="1"><g transform="translate(366.80205, 175.523246)"><g><path d="M 6.515625 -0.890625 C 8.054688 -0.890625 9.375 -1.4375 10.46875 -2.53125 C 11.570312 -3.632812 12.15625 -4.960938 12.21875 -6.515625 L 12.21875 -55.90625 C 12.15625 -57.445312 11.570312 -58.765625 10.46875 -59.859375 C 9.375 -60.960938 8.054688 -61.515625 6.515625 -61.515625 L 5.34375 -61.515625 L 5.34375 -62.40625 L 24.875 -62.40625 L 24.875 -61.515625 L 23.71875 -61.515625 C 21.570312 -61.515625 19.9375 -60.59375 18.8125 -58.75 C 18.28125 -57.863281 18.015625 -56.914062 18.015625 -55.90625 L 18.015625 -2.765625 L 30.765625 -2.765625 C 35.160156 -2.765625 38.515625 -3.742188 40.828125 -5.703125 C 43.148438 -7.660156 45.082031 -10.570312 46.625 -14.4375 L 47.515625 -14.4375 L 42.34375 0 L 5.34375 0 L 5.34375 -0.890625 Z M 6.515625 -0.890625 "/></g></g></g><g fill="#ffffff" fill-opacity="1"><g transform="translate(57.4899, 220.54974)"><g><path d="M 12.703125 -1.328125 L 12.703125 0 L 2.375 0 L 2.375 -14.609375 L 12.390625 -14.609375 L 12.390625 -13.265625 L 3.921875 -13.265625 L 3.921875 -8.078125 L 11.46875 -8.078125 L 11.46875 -6.765625 L 3.921875 -6.765625 L 3.921875 -1.328125 Z M 12.703125 -1.328125 "/></g></g></g><g fill="#ffffff" fill-opacity="1"><g transform="translate(83.994961, 220.54974)"><g><path d="M 2.375 -14.609375 L 3.921875 -14.609375 L 3.921875 -1.328125 L 12.09375 -1.328125 L 12.09375 0 L 2.375 0 Z M 2.375 -14.609375 "/></g></g></g><g fill="#ffffff" fill-opacity="1"><g transform="translate(108.832207, 220.54974)"><g/></g></g><g fill="#ffffff" fill-opacity="1"><g transform="translate(126.852239, 220.54974)"><g><path d="M 12.34375 0 L 9.015625 -4.6875 C 8.640625 -4.644531 8.25 -4.625 7.84375 -4.625 L 3.921875 -4.625 L 3.921875 0 L 2.375 0 L 2.375 -14.609375 L 7.84375 -14.609375 C 9.707031 -14.609375 11.164062 -14.160156 12.21875 -13.265625 C 13.28125 -12.378906 13.8125 -11.15625 13.8125 -9.59375 C 13.8125 -8.457031 13.519531 -7.492188 12.9375 -6.703125 C 12.363281 -5.921875 11.539062 -5.351562 10.46875 -5 L 14.03125 0 Z M 7.796875 -5.9375 C 9.242188 -5.9375 10.347656 -6.253906 11.109375 -6.890625 C 11.878906 -7.535156 12.265625 -8.4375 12.265625 -9.59375 C 12.265625 -10.78125 11.878906 -11.6875 11.109375 -12.3125 C 10.347656 -12.945312 9.242188 -13.265625 7.796875 -13.265625 L 3.921875 -13.265625 L 3.921875 -5.9375 Z M 7.796875 -5.9375 "/></g></g></g><g fill="#ffffff" fill-opacity="1"><g transform="translate(154.483082, 220.54974)"><g><path d="M 12.703125 -1.328125 L 12.703125 0 L 2.375 0 L 2.375 -14.609375 L 12.390625 -14.609375 L 12.390625 -13.265625 L 3.921875 -13.265625 L 3.921875 -8.078125 L 11.46875 -8.078125 L 11.46875 -6.765625 L 3.921875 -6.765625 L 3.921875 -1.328125 Z M 12.703125 -1.328125 "/></g></g></g><g fill="#ffffff" fill-opacity="1"><g transform="translate(180.988146, 220.54974)"><g><path d="M 12.703125 -1.328125 L 12.703125 0 L 2.375 0 L 2.375 -14.609375 L 12.390625 -14.609375 L 12.390625 -13.265625 L 3.921875 -13.265625 L 3.921875 -8.078125 L 11.46875 -8.078125 L 11.46875 -6.765625 L 3.921875 -6.765625 L 3.921875 -1.328125 Z M 12.703125 -1.328125 "/></g></g></g><g fill="#ffffff" fill-opacity="1"><g transform="translate(207.493211, 220.54974)"><g><path d="M 14.578125 -14.609375 L 14.578125 0 L 13.3125 0 L 3.921875 -11.84375 L 3.921875 0 L 2.375 0 L 2.375 -14.609375 L 3.65625 -14.609375 L 13.0625 -2.75 L 13.0625 -14.609375 Z M 14.578125 -14.609375 "/></g></g></g><g fill="#ffffff" fill-opacity="1"><g transform="translate(237.000358, 220.54974)"><g><path d="M 8.71875 0.125 C 7.269531 0.125 5.960938 -0.191406 4.796875 -0.828125 C 3.640625 -1.472656 2.726562 -2.359375 2.0625 -3.484375 C 1.40625 -4.617188 1.078125 -5.890625 1.078125 -7.296875 C 1.078125 -8.703125 1.40625 -9.972656 2.0625 -11.109375 C 2.726562 -12.242188 3.644531 -13.128906 4.8125 -13.765625 C 5.988281 -14.410156 7.296875 -14.734375 8.734375 -14.734375 C 9.816406 -14.734375 10.816406 -14.550781 11.734375 -14.1875 C 12.660156 -13.820312 13.441406 -13.289062 14.078125 -12.59375 L 13.09375 -11.625 C 11.957031 -12.769531 10.519531 -13.34375 8.78125 -13.34375 C 7.625 -13.34375 6.570312 -13.078125 5.625 -12.546875 C 4.6875 -12.023438 3.945312 -11.304688 3.40625 -10.390625 C 2.875 -9.472656 2.609375 -8.441406 2.609375 -7.296875 C 2.609375 -6.160156 2.875 -5.132812 3.40625 -4.21875 C 3.945312 -3.300781 4.6875 -2.578125 5.625 -2.046875 C 6.570312 -1.515625 7.625 -1.25 8.78125 -1.25 C 10.53125 -1.25 11.96875 -1.832031 13.09375 -3 L 14.078125 -2.015625 C 13.441406 -1.328125 12.660156 -0.796875 11.734375 -0.421875 C 10.804688 -0.0546875 9.800781 0.125 8.71875 0.125 Z M 8.71875 0.125 "/></g></g></g><g fill="#ffffff" fill-opacity="1"><g transform="translate(264.547819, 220.54974)"><g><path d="M 8.265625 0.125 C 6.367188 0.125 4.890625 -0.414062 3.828125 -1.5 C 2.773438 -2.582031 2.25 -4.160156 2.25 -6.234375 L 2.25 -14.609375 L 3.796875 -14.609375 L 3.796875 -6.296875 C 3.796875 -4.597656 4.175781 -3.332031 4.9375 -2.5 C 5.707031 -1.664062 6.816406 -1.25 8.265625 -1.25 C 9.722656 -1.25 10.832031 -1.664062 11.59375 -2.5 C 12.363281 -3.332031 12.75 -4.597656 12.75 -6.296875 L 12.75 -14.609375 L 14.25 -14.609375 L 14.25 -6.234375 C 14.25 -4.160156 13.722656 -2.582031 12.671875 -1.5 C 11.617188 -0.414062 10.148438 0.125 8.265625 0.125 Z M 8.265625 0.125 "/></g></g></g><g fill="#ffffff" fill-opacity="1"><g transform="translate(293.617162, 220.54974)"><g><path d="M 12.703125 -1.328125 L 12.703125 0 L 2.375 0 L 2.375 -14.609375 L 12.390625 -14.609375 L 12.390625 -13.265625 L 3.921875 -13.265625 L 3.921875 -8.078125 L 11.46875 -8.078125 L 11.46875 -6.765625 L 3.921875 -6.765625 L 3.921875 -1.328125 Z M 12.703125 -1.328125 "/></g></g></g><g fill="#ffffff" fill-opacity="1"><g transform="translate(320.122226, 220.54974)"><g><path d="M 14.578125 -14.609375 L 14.578125 0 L 13.3125 0 L 3.921875 -11.84375 L 3.921875 0 L 2.375 0 L 2.375 -14.609375 L 3.65625 -14.609375 L 13.0625 -2.75 L 13.0625 -14.609375 Z M 14.578125 -14.609375 "/></g></g></g><g fill="#ffffff" fill-opacity="1"><g transform="translate(349.629373, 220.54974)"><g><path d="M 5.21875 -13.265625 L 0.078125 -13.265625 L 0.078125 -14.609375 L 11.890625 -14.609375 L 11.890625 -13.265625 L 6.765625 -13.265625 L 6.765625 0 L 5.21875 0 Z M 5.21875 -13.265625 "/></g></g></g><g fill="#ffffff" fill-opacity="1"><g transform="translate(374.1539, 220.54974)"><g><path d="M 12.34375 0 L 9.015625 -4.6875 C 8.640625 -4.644531 8.25 -4.625 7.84375 -4.625 L 3.921875 -4.625 L 3.921875 0 L 2.375 0 L 2.375 -14.609375 L 7.84375 -14.609375 C 9.707031 -14.609375 11.164062 -14.160156 12.21875 -13.265625 C 13.28125 -12.378906 13.8125 -11.15625 13.8125 -9.59375 C 13.8125 -8.457031 13.519531 -7.492188 12.9375 -6.703125 C 12.363281 -5.921875 11.539062 -5.351562 10.46875 -5 L 14.03125 0 Z M 7.796875 -5.9375 C 9.242188 -5.9375 10.347656 -6.253906 11.109375 -6.890625 C 11.878906 -7.535156 12.265625 -8.4375 12.265625 -9.59375 C 12.265625 -10.78125 11.878906 -11.6875 11.109375 -12.3125 C 10.347656 -12.945312 9.242188 -13.265625 7.796875 -13.265625 L 3.921875 -13.265625 L 3.921875 -5.9375 Z M 7.796875 -5.9375 "/></g></g></g><g fill="#ffffff" fill-opacity="1"><g transform="translate(401.784743, 220.54974)"><g><path d="M 8.765625 0.125 C 7.316406 0.125 6.003906 -0.195312 4.828125 -0.84375 C 3.648438 -1.488281 2.726562 -2.375 2.0625 -3.5 C 1.40625 -4.625 1.078125 -5.890625 1.078125 -7.296875 C 1.078125 -8.703125 1.40625 -9.96875 2.0625 -11.09375 C 2.726562 -12.21875 3.648438 -13.101562 4.828125 -13.75 C 6.003906 -14.40625 7.316406 -14.734375 8.765625 -14.734375 C 10.210938 -14.734375 11.515625 -14.410156 12.671875 -13.765625 C 13.828125 -13.128906 14.738281 -12.242188 15.40625 -11.109375 C 16.082031 -9.972656 16.421875 -8.703125 16.421875 -7.296875 C 16.421875 -5.890625 16.082031 -4.617188 15.40625 -3.484375 C 14.738281 -2.359375 13.828125 -1.472656 12.671875 -0.828125 C 11.515625 -0.191406 10.210938 0.125 8.765625 0.125 Z M 8.765625 -1.25 C 9.921875 -1.25 10.960938 -1.507812 11.890625 -2.03125 C 12.816406 -2.550781 13.546875 -3.273438 14.078125 -4.203125 C 14.609375 -5.128906 14.875 -6.160156 14.875 -7.296875 C 14.875 -8.441406 14.609375 -9.472656 14.078125 -10.390625 C 13.546875 -11.316406 12.816406 -12.039062 11.890625 -12.5625 C 10.960938 -13.082031 9.921875 -13.34375 8.765625 -13.34375 C 7.609375 -13.34375 6.5625 -13.082031 5.625 -12.5625 C 4.6875 -12.039062 3.945312 -11.316406 3.40625 -10.390625 C 2.875 -9.472656 2.609375 -8.441406 2.609375 -7.296875 C 2.609375 -6.160156 2.875 -5.128906 3.40625 -4.203125 C 3.945312 -3.273438 4.6875 -2.550781 5.625 -2.03125 C 6.5625 -1.507812 7.609375 -1.25 8.765625 -1.25 Z M 8.765625 -1.25 "/></g></g></g></svg>